<svg width="12" height="21" viewBox="0 0 12 21" fill="none" xmlns="http://www.w3.org/2000/svg">
<path d="M2.76555 10.5227L11.1795 19.1695C11.2488 19.2392 11.3035 19.3219 11.3406 19.4129C11.3777 19.5039 11.3964 19.6013 11.3956 19.6996C11.3947 19.7978 11.3744 19.895 11.3359 19.9853C11.2973 20.0757 11.2411 20.1575 11.1707 20.226C11.1003 20.2945 11.017 20.3484 10.9256 20.3845C10.8342 20.4206 10.7366 20.4383 10.6383 20.4364C10.5401 20.4345 10.4432 20.4132 10.3533 20.3736C10.2633 20.3341 10.1821 20.277 10.1144 20.2059L1.19711 11.0409C1.06214 10.9022 0.986623 10.7163 0.986623 10.5227C0.986623 10.3292 1.06214 10.1433 1.19711 10.0046L10.1144 0.839601C10.1821 0.768448 10.2633 0.711443 10.3533 0.671879C10.4432 0.632315 10.5401 0.610981 10.6383 0.60911C10.7366 0.607241 10.8342 0.62487 10.9256 0.660982C11.017 0.697094 11.1003 0.750969 11.1707 0.81949C11.2411 0.888012 11.2973 0.96982 11.3359 1.06018C11.3745 1.15054 11.3947 1.24765 11.3956 1.34591C11.3964 1.44416 11.3777 1.5416 11.3406 1.63259C11.3035 1.72358 11.2488 1.8063 11.1795 1.87599L2.76555 10.5227Z" fill="white"/>
</svg>
