<svg width="11" height="21" viewBox="0 0 11 21" fill="none" xmlns="http://www.w3.org/2000/svg">
<path d="M8.63003 10.5227L0.216106 1.8759C0.146833 1.80621 0.0920667 1.72349 0.0549767 1.6325C0.0178866 1.54151 -0.0007906 1.44407 2.56436e-05 1.34582C0.000841888 1.24756 0.0211349 1.15045 0.0597314 1.06009C0.098328 0.969731 0.154462 0.887924 0.224883 0.819402C0.295304 0.750881 0.378615 0.697005 0.469996 0.660894C0.561376 0.624782 0.659011 0.607151 0.75725 0.609021C0.855489 0.610892 0.952381 0.632226 1.04232 0.67179C1.13226 0.711354 1.21346 0.768361 1.28122 0.839514L10.1985 10.0045C10.3334 10.1432 10.409 10.3291 10.409 10.5227C10.409 10.7162 10.3334 10.9021 10.1985 11.0409L1.28122 20.2058C1.21346 20.277 1.13226 20.334 1.04232 20.3735C0.952381 20.4131 0.855489 20.4344 0.75725 20.4363C0.659011 20.4382 0.561376 20.4205 0.469996 20.3844C0.378615 20.3483 0.295304 20.2944 0.224883 20.2259C0.154462 20.1574 0.098328 20.0756 0.0597314 19.9852C0.0211349 19.8949 0.000841888 19.7978 2.56436e-05 19.6995C-0.0007906 19.6012 0.0178866 19.5038 0.0549767 19.4128C0.0920667 19.3218 0.146833 19.2391 0.216106 19.1694L8.63003 10.5227Z" fill="white"/>
</svg>
