<svg width="53" height="53" viewBox="0 0 53 53" fill="none" xmlns="http://www.w3.org/2000/svg">
<path d="M51.8141 48.9984C52.0098 49.1808 52.1668 49.4008 52.2757 49.6451C52.3845 49.8895 52.4431 50.1533 52.4478 50.4208C52.4525 50.6883 52.4033 50.954 52.3031 51.2021C52.2029 51.4501 52.0538 51.6755 51.8646 51.8646C51.6754 52.0538 51.4501 52.2029 51.202 52.3031C50.954 52.4033 50.6883 52.4525 50.4208 52.4478C50.1533 52.4431 49.8895 52.3846 49.6451 52.2757C49.4007 52.1668 49.1808 52.0098 48.9984 51.8141L26.5 29.3189L4.00155 51.8141C3.6239 52.166 3.1244 52.3575 2.60829 52.3484C2.09218 52.3393 1.59975 52.1302 1.23474 51.7652C0.86974 51.4002 0.660662 50.9078 0.651555 50.3917C0.642449 49.8756 0.834026 49.3761 1.18593 48.9984L23.681 26.5L1.18593 4.00156C0.834026 3.62391 0.642449 3.12441 0.651555 2.6083C0.660662 2.09219 0.86974 1.59976 1.23474 1.23475C1.59975 0.869751 2.09218 0.660673 2.60829 0.651567C3.1244 0.642461 3.6239 0.834037 4.00155 1.18594L26.5 23.6811L48.9984 1.18594C49.3761 0.834037 49.8756 0.642461 50.3917 0.651567C50.9078 0.660673 51.4002 0.869751 51.7652 1.23475C52.1302 1.59976 52.3393 2.09219 52.3484 2.6083C52.3575 3.12441 52.166 3.62391 51.8141 4.00156L29.3189 26.5L51.8141 48.9984Z" fill="black"/>
</svg>
