<svg width="18" height="18" viewBox="0 0 18 18" fill="none" xmlns="http://www.w3.org/2000/svg">
<path d="M15.1875 14.625V11.25C15.1875 11.1008 15.1282 10.9577 15.0227 10.8523C14.9173 10.7468 14.7742 10.6875 14.625 10.6875C14.4758 10.6875 14.3327 10.7468 14.2273 10.8523C14.1218 10.9577 14.0625 11.1008 14.0625 11.25V13.2673L11.0855 10.2895C10.9799 10.184 10.8368 10.1247 10.6875 10.1247C10.5382 10.1247 10.3951 10.184 10.2895 10.2895C10.184 10.3951 10.1247 10.5382 10.1247 10.6875C10.1247 10.8368 10.184 10.9799 10.2895 11.0855L13.2673 14.0625H11.25C11.1008 14.0625 10.9577 14.1218 10.8523 14.2273C10.7468 14.3327 10.6875 14.4758 10.6875 14.625C10.6875 14.7742 10.7468 14.9173 10.8523 15.0227C10.9577 15.1282 11.1008 15.1875 11.25 15.1875H14.625C14.7742 15.1875 14.9173 15.1282 15.0227 15.0227C15.1282 14.9173 15.1875 14.7742 15.1875 14.625ZM6.91453 7.71047L3.9375 4.73273V6.75C3.9375 6.89918 3.87824 7.04226 3.77275 7.14775C3.66726 7.25324 3.52418 7.3125 3.375 7.3125C3.22582 7.3125 3.08274 7.25324 2.97725 7.14775C2.87176 7.04226 2.8125 6.89918 2.8125 6.75V3.375C2.8125 3.22582 2.87176 3.08274 2.97725 2.97725C3.08274 2.87176 3.22582 2.8125 3.375 2.8125H6.75C6.89918 2.8125 7.04226 2.87176 7.14775 2.97725C7.25324 3.08274 7.3125 3.22582 7.3125 3.375C7.3125 3.52418 7.25324 3.66726 7.14775 3.77275C7.04226 3.87824 6.89918 3.9375 6.75 3.9375H4.73273L7.71047 6.91453C7.81602 7.02008 7.87531 7.16323 7.87531 7.3125C7.87531 7.46177 7.81602 7.60492 7.71047 7.71047C7.60492 7.81602 7.46177 7.87531 7.3125 7.87531C7.16323 7.87531 7.02008 7.81602 6.91453 7.71047ZM14.625 7.3125C14.4758 7.3125 14.3327 7.25324 14.2273 7.14775C14.1218 7.04226 14.0625 6.89918 14.0625 6.75V4.73273L11.0855 7.71047C10.9799 7.81602 10.8368 7.87531 10.6875 7.87531C10.5382 7.87531 10.3951 7.81602 10.2895 7.71047C10.184 7.60492 10.1247 7.46177 10.1247 7.3125C10.1247 7.16323 10.184 7.02008 10.2895 6.91453L13.2673 3.9375H11.25C11.1008 3.9375 10.9577 3.87824 10.8523 3.77275C10.7468 3.66726 10.6875 3.52418 10.6875 3.375C10.6875 3.22582 10.7468 3.08274 10.8523 2.97725C10.9577 2.87176 11.1008 2.8125 11.25 2.8125H14.625C14.7742 2.8125 14.9173 2.87176 15.0227 2.97725C15.1282 3.08274 15.1875 3.22582 15.1875 3.375V6.75C15.1875 6.89918 15.1282 7.04226 15.0227 7.14775C14.9173 7.25324 14.7742 7.3125 14.625 7.3125ZM4.73273 14.0625H6.75C6.89918 14.0625 7.04226 14.1218 7.14775 14.2273C7.25324 14.3327 7.3125 14.4758 7.3125 14.625C7.3125 14.7742 7.25324 14.9173 7.14775 15.0227C7.04226 15.1282 6.89918 15.1875 6.75 15.1875H3.375C3.22582 15.1875 3.08274 15.1282 2.97725 15.0227C2.87176 14.9173 2.8125 14.7742 2.8125 14.625V11.25C2.8125 11.1008 2.87176 10.9577 2.97725 10.8523C3.08274 10.7468 3.22582 10.6875 3.375 10.6875C3.52418 10.6875 3.66726 10.7468 3.77275 10.8523C3.87824 10.9577 3.9375 11.1008 3.9375 11.25V13.2673L6.91453 10.2895C7.02008 10.184 7.16323 10.1247 7.3125 10.1247C7.46177 10.1247 7.60492 10.184 7.71047 10.2895C7.81602 10.3951 7.87531 10.5382 7.87531 10.6875C7.87531 10.8368 7.81602 10.9799 7.71047 11.0855L4.73273 14.0625Z" fill="black"/>
</svg>
