<svg width="30" height="30" fill="none" xmlns="http://www.w3.org/2000/svg"><path d="M14.525.8c-.515.071-.868.235-1.179.546-.321.321-.474.663-.547 1.225-.025.195-.047 2.564-.047 5.265l-.002 4.91-5.162.015-5.163.015-.335.113c-.876.296-1.294.957-1.304 2.061-.012 1.224.409 1.889 1.389 2.193.218.067.92.08 5.411.094l5.16.017.017 5.16c.014 4.491.027 5.193.094 5.411.119.382.263.63.501.857.4.383.87.536 1.642.536 1.183 0 1.844-.43 2.143-1.393.067-.218.08-.92.094-5.411l.017-5.16 5.16-.017c4.491-.014 5.193-.027 5.411-.094.382-.119.63-.263.857-.501.393-.411.54-.878.532-1.692-.01-1.104-.428-1.765-1.304-2.061l-.335-.113-5.161-.015-5.16-.015-.015-5.16-.015-5.161-.113-.335c-.201-.595-.614-1.01-1.176-1.183A3.888 3.888 0 0 0 14.525.8" fill-rule="evenodd" fill="#000"/></svg>