<svg width="22" height="22" viewBox="0 0 22 22" fill="none" xmlns="http://www.w3.org/2000/svg">
<path fill-rule="evenodd" clip-rule="evenodd" d="M15.2863 2.4088C12.4023 1.76412 9.41158 1.76412 6.52758 2.4088L6.21683 2.47755C5.4056 2.65892 4.66052 3.06163 4.06438 3.64095C3.46823 4.22027 3.04436 4.9535 2.83983 5.75921C2.10879 8.63986 2.10879 11.6575 2.83983 14.5381C3.03488 15.3065 3.42962 16.0097 3.98405 16.5764C4.53847 17.143 5.23287 17.553 5.99683 17.7648L6.42308 20.3095C6.43669 20.3903 6.47171 20.4659 6.5245 20.5286C6.57728 20.5913 6.64591 20.6387 6.72322 20.6658C6.80054 20.693 6.88371 20.6989 6.96409 20.683C7.04447 20.667 7.11912 20.6299 7.18025 20.5753L9.68367 18.3359C11.5629 18.4506 13.449 18.3003 15.2863 17.8895L15.598 17.8207C16.4092 17.6393 17.1543 17.2366 17.7505 16.6573C18.3466 16.078 18.7705 15.3448 18.975 14.539C19.706 11.6584 19.706 8.64079 18.975 5.76013C18.7704 4.9543 18.3464 4.22098 17.7501 3.64166C17.1538 3.06233 16.4085 2.65969 15.5971 2.47846L15.2863 2.4088ZM7.30125 5.68496C7.13088 5.66017 6.95716 5.69446 6.809 5.78213H6.79617C6.45242 5.9838 6.14258 6.23771 5.87858 6.53655C5.65858 6.79046 5.53942 7.04713 5.50825 7.29463C5.48992 7.4413 5.50275 7.5898 5.54583 7.73005L5.56233 7.73921C5.80983 8.46613 6.1325 9.16555 6.52667 9.82371C7.03491 10.7482 7.66036 11.6031 8.3875 12.3675L8.4095 12.3986L8.44433 12.4243L8.46542 12.449L8.49108 12.471C9.25808 13.2004 10.1151 13.8288 11.0412 14.341C12.1 14.9176 12.7426 15.1899 13.1285 15.3035V15.309C13.2412 15.3439 13.3439 15.3595 13.4475 15.3595C13.7762 15.3352 14.0872 15.2016 14.3312 14.98C14.6291 14.716 14.8812 14.4052 15.0773 14.0596V14.0532C15.2616 13.7049 15.1992 13.3767 14.9334 13.154C14.3995 12.6874 13.8221 12.273 13.2092 11.9165C12.7985 11.6937 12.3814 11.8285 12.2127 12.054L11.8525 12.5086C11.6673 12.7341 11.3318 12.703 11.3318 12.703L11.3227 12.7085C8.81925 12.0695 8.151 9.53496 8.151 9.53496C8.151 9.53496 8.11983 9.1903 8.35175 9.0143L8.80275 8.6513C9.01908 8.4753 9.16942 8.05913 8.9375 7.64846C8.5833 7.035 8.16974 6.45778 7.70275 5.92513C7.6009 5.79977 7.45806 5.71439 7.29942 5.68405L7.30125 5.68496ZM11.5307 4.58313C11.4092 4.58313 11.2926 4.63142 11.2067 4.71737C11.1207 4.80333 11.0724 4.91991 11.0724 5.04146C11.0724 5.16302 11.1207 5.2796 11.2067 5.36555C11.2926 5.45151 11.4092 5.4998 11.5307 5.4998C12.6903 5.4998 13.6528 5.87838 14.4146 6.60438C14.806 7.0013 15.1112 7.47155 15.3111 7.98671C15.5118 8.5028 15.6035 9.05371 15.5797 9.60555C15.5771 9.66574 15.5865 9.72583 15.6072 9.78241C15.6279 9.83898 15.6595 9.89093 15.7003 9.93528C15.7826 10.0248 15.8972 10.078 16.0187 10.0831C16.1403 10.0882 16.2589 10.0448 16.3485 9.9625C16.438 9.88016 16.4912 9.7656 16.4963 9.64405C16.5248 8.96524 16.4121 8.28792 16.1654 7.65488C15.9177 7.01884 15.542 6.44041 15.0617 5.95538L15.0526 5.94621C14.1075 5.0433 12.9112 4.58313 11.5307 4.58313ZM11.4996 6.09013C11.378 6.09013 11.2614 6.13842 11.1755 6.22437C11.0895 6.31033 11.0412 6.42691 11.0412 6.54846C11.0412 6.67002 11.0895 6.7866 11.1755 6.87255C11.2614 6.95851 11.378 7.0068 11.4996 7.0068H11.5152C12.3512 7.06638 12.9598 7.34505 13.3861 7.80246C13.8233 8.27363 14.0497 8.85938 14.0323 9.58355C14.0295 9.7051 14.0751 9.82279 14.1591 9.91073C14.2431 9.99866 14.3586 10.0496 14.4801 10.0524C14.6017 10.0552 14.7194 10.0096 14.8073 9.92563C14.8952 9.84166 14.9462 9.72619 14.949 9.60463C14.971 8.65405 14.6648 7.83363 14.058 7.17913V7.1773C13.4374 6.5118 12.5858 6.1598 11.561 6.09105L11.5454 6.08921L11.4996 6.09013ZM11.4822 7.62555C11.4208 7.62014 11.359 7.62714 11.3005 7.64614C11.2419 7.66514 11.1877 7.69574 11.1413 7.73613C11.0948 7.77652 11.0569 7.82586 11.0299 7.8812C11.0029 7.93655 10.9874 7.99677 10.9842 8.05826C10.981 8.11975 10.9902 8.18126 11.0113 8.23911C11.0324 8.29696 11.0649 8.34997 11.1069 8.39497C11.149 8.43997 11.1996 8.47603 11.2559 8.50102C11.3122 8.526 11.3729 8.53939 11.4345 8.54038C11.8177 8.56055 12.0624 8.67605 12.2164 8.83096C12.3713 8.9868 12.4868 9.23705 12.5079 9.62846C12.5091 9.68997 12.5226 9.75062 12.5477 9.80679C12.5727 9.86297 12.6089 9.91352 12.6539 9.95543C12.6989 9.99735 12.7519 10.0298 12.8098 10.0508C12.8676 10.0718 12.929 10.0809 12.9905 10.0776C13.0519 10.0744 13.1121 10.0588 13.1673 10.0318C13.2226 10.0048 13.2719 9.96692 13.3122 9.92047C13.3526 9.87402 13.3831 9.81993 13.4021 9.76142C13.4211 9.7029 13.4281 9.64116 13.4227 9.57988C13.3934 9.02988 13.2211 8.54405 12.8682 8.18655C12.5134 7.82905 12.0303 7.65488 11.4822 7.62555Z" fill="#64605F"/>
</svg>
