<svg width="36" height="36" viewBox="0 0 36 36" fill="none" xmlns="http://www.w3.org/2000/svg">
<path d="M6.82776 18.0599C6.82694 20.1258 7.36191 22.1424 8.37857 23.92L6.73035 29.9943L12.8892 28.3643C14.5861 29.2981 16.4966 29.7902 18.4411 29.7911H18.4459C24.8489 29.7911 30.0612 24.5323 30.0638 18.0692C30.0696 3.18099 6.83391 2.54183 6.82776 18.0599ZM23.7426 20.5145C23.4523 20.3679 22.0251 19.6593 21.759 19.5616C21.4929 19.4638 21.2994 19.4149 21.1058 19.7082C20.9124 20.0014 20.356 20.6611 20.1866 20.8566C20.0173 21.0521 19.848 21.0765 19.5577 20.9299C19.2674 20.7833 18.332 20.474 17.2232 19.4762C16.3603 18.6996 15.7777 17.7404 15.6083 17.4471C15.439 17.1539 15.5903 16.9954 15.7357 16.8494C15.8662 16.7182 16.0259 16.5073 16.1711 16.3363C16.3162 16.1653 16.3646 16.0431 16.4614 15.8476C16.5582 15.6521 16.5097 15.4811 16.4372 15.3345C16.3646 15.1879 15.784 13.7462 15.5421 13.1598C15.3065 12.5887 15.0671 12.6659 14.889 12.657C14.7198 12.6485 14.5261 12.6467 14.3326 12.6467C14.1391 12.6467 13.8246 12.72 13.5585 13.0132C13.2924 13.3064 12.5425 14.015 12.5425 15.4566C12.5425 16.8982 13.5827 18.291 13.7278 18.4865C13.873 18.6819 15.7748 21.6404 18.6868 22.909C19.3795 23.2108 19.9202 23.391 20.3418 23.526C21.0372 23.7489 21.67 23.7175 22.1702 23.6421C22.7279 23.558 23.8877 22.9335 24.1296 22.2494C24.3716 21.5652 24.3715 20.9788 24.299 20.8566C24.2264 20.7344 24.0329 20.6611 23.7426 20.5145Z" fill="white"/>
<path d="M23.6385 20.7999C23.3514 20.6452 21.9402 19.8971 21.6771 19.7939C21.414 19.6907 21.2226 19.6391 21.0312 19.9487C20.8399 20.2582 20.2898 20.9547 20.1223 21.161C19.9549 21.3674 19.7874 21.3932 19.5004 21.2384C19.2134 21.0837 18.2885 20.7572 17.1921 19.7038C16.3388 18.884 15.7627 17.8714 15.5952 17.5618C15.4278 17.2523 15.5774 17.085 15.7211 16.9308C15.8502 16.7923 16.0082 16.5697 16.1517 16.3891C16.2952 16.2086 16.3431 16.0796 16.4387 15.8732C16.5344 15.6669 16.4866 15.4863 16.4148 15.3315C16.3431 15.1768 15.769 13.6549 15.5298 13.0358C15.2968 12.4329 15.0601 12.5145 14.8839 12.505C14.7167 12.496 14.5251 12.4941 14.3338 12.4941C14.1424 12.4941 13.8314 12.5715 13.5683 12.8811C13.3052 13.1906 12.5637 13.9386 12.5637 15.4605C12.5637 16.9824 13.5922 18.4527 13.7358 18.659C13.8793 18.8654 15.7598 21.9885 18.6393 23.3277C19.3242 23.6463 19.8588 23.8366 20.2757 23.9791C20.9633 24.2143 21.5891 24.1812 22.0837 24.1016C22.6352 24.0128 23.7819 23.3536 24.0212 22.6314C24.2604 21.9091 24.2604 21.29 24.1886 21.1611C24.1169 21.0321 23.9255 20.9547 23.6385 20.7999Z" fill="#25D366"/>
</svg>
