<?xml version="1.0" encoding="utf-8"?>
<!-- Generator: Adobe Illustrator 26.1.0, SVG Export Plug-In . SVG Version: 6.00 Build 0)  -->
<svg version="1.1" id="Слой_1" xmlns="http://www.w3.org/2000/svg" xmlns:xlink="http://www.w3.org/1999/xlink" x="0px" y="0px"
	 viewBox="0 0 63 62" style="enable-background:new 0 0 63 62;" xml:space="preserve">
<style type="text/css">
	.st0{clip-path:url(#SVGID_00000007415786763119628130000006824472225408644000_);}
	.st1{fill:#FFFFFF;filter:url(#Adobe_OpacityMaskFilter);}
	.st2{mask:url(#mask0_22_440_00000131331495885015891400000012433325058061531290_);}
	.st3{fill:#FF4E00;}
</style>
<g>
	<defs>
		<rect id="SVGID_1_" width="63" height="62"/>
	</defs>
	<clipPath id="SVGID_00000000192192410420841010000014584450752189444020_">
		<use xlink:href="#SVGID_1_"  style="overflow:visible;"/>
	</clipPath>
	<g style="clip-path:url(#SVGID_00000000192192410420841010000014584450752189444020_);">
		<defs>
			<filter id="Adobe_OpacityMaskFilter" filterUnits="userSpaceOnUse" x="-0.1" y="-0.1" width="63.2" height="62.2">
				<feColorMatrix  type="matrix" values="1 0 0 0 0  0 1 0 0 0  0 0 1 0 0  0 0 0 1 0"/>
			</filter>
		</defs>
		
			<mask maskUnits="userSpaceOnUse" x="-0.1" y="-0.1" width="63.2" height="62.2" id="mask0_22_440_00000131331495885015891400000012433325058061531290_">
			<path class="st1" d="M0,0h63v62H0V0z"/>
		</mask>
		<g class="st2">
			<g>
				<path class="st3" d="M0.9,62.1c-0.6,0-1-0.4-1-1V46.8c0-5.9,4.9-10.7,10.8-10.7c0.6,0,1,0.4,1,1s-0.4,1-1,1
					c-4.9,0-8.8,3.9-8.8,8.7v14.3C1.9,61.6,1.5,62.1,0.9,62.1z"/>
			</g>
			<g>
				<path class="st3" d="M30.5,23.6h-1.7c-0.6,0-1-0.4-1-1s0.4-1,1-1h1.7c0.6,0,1.1-0.5,1.1-1.1s-0.5-1.1-1.1-1.1c-0.6,0-1-0.4-1-1
					s0.4-1,1-1c1.7,0,3.1,1.4,3.1,3.1S32.2,23.6,30.5,23.6z"/>
			</g>
			<g>
				<path class="st3" d="M6.7,23.6H5.1c-1.7,0-3.1-1.4-3.1-3.1s1.4-3.1,3.1-3.1c0.6,0,1,0.4,1,1s-0.4,1-1,1C4.4,19.5,4,20,4,20.6
					s0.5,1.1,1.1,1.1h1.7c0.6,0,1,0.4,1,1S7.3,23.6,6.7,23.6z"/>
			</g>
			<g>
				<path class="st3" d="M17.8,34.9c-6.7,0-12.1-5.3-12.1-11.9v-4.4c0-0.6,0.4-1,1-1s1,0.4,1,1V23c0,5.5,4.5,9.9,10.1,9.9
					s10.1-4.4,10.1-9.9v-4.4c0-0.6,0.4-1,1-1s1,0.4,1,1V23C29.8,29.6,24.4,34.9,17.8,34.9z"/>
			</g>
			<g>
				<path class="st3" d="M29.7,14.7c-0.6,0-1-0.4-1-1c0-4.7-3.6-8.6-8.4-9.1c-0.5-0.1-1-0.5-0.9-1.1s0.5-1,1.1-0.9
					c5.8,0.5,10.2,5.3,10.2,11.1C30.7,14.2,30.3,14.7,29.7,14.7z"/>
			</g>
			<g>
				<path class="st3" d="M10.7,6.1c-0.3,0-0.7-0.2-0.9-0.5c-0.3-0.5-0.1-1.1,0.3-1.4c1.5-0.9,3.3-1.5,5.1-1.6c0.6,0,1,0.4,1.1,0.9
					c0,0.6-0.4,1-0.9,1.1c-1.5,0.1-2.9,0.6-4.2,1.3C11,6,10.9,6.1,10.7,6.1z"/>
			</g>
			<g>
				<path class="st3" d="M5.8,14.7C5.8,14.7,5.8,14.7,5.8,14.7c-0.6,0-1-0.4-1-1c0-1.7,0.4-3.4,1.1-4.9c0.2-0.5,0.8-0.7,1.3-0.5
					C7.8,8.6,8,9.2,7.7,9.7c-0.6,1.2-0.9,2.6-0.9,4C6.8,14.2,6.3,14.7,5.8,14.7z"/>
			</g>
			<g>
				<path class="st3" d="M31,19.5H4.5c-1.4,0-2.5-1.1-2.5-2.5v-1.8c0-1.4,1.1-2.5,2.5-2.5h8.1c1,0,1.7-0.8,1.7-1.7V2.4
					c0-1.4,1.1-2.5,2.5-2.5h1.8c1.4,0,2.5,1.1,2.5,2.5V11c0,0.9,0.8,1.7,1.7,1.7H31c1.4,0,2.5,1.1,2.5,2.5V17
					C33.6,18.4,32.4,19.5,31,19.5z M4.5,14.7c-0.3,0-0.5,0.2-0.5,0.5V17c0,0.3,0.2,0.5,0.5,0.5H31c0.3,0,0.5-0.2,0.5-0.5v-1.8
					c0-0.3-0.2-0.5-0.5-0.5h-8.1c-2.1,0-3.7-1.7-3.7-3.7V2.4c0-0.3-0.2-0.5-0.5-0.5h-1.8c-0.3,0-0.5,0.2-0.5,0.5V11
					c0,2-1.7,3.7-3.7,3.7H4.5z"/>
			</g>
			<g>
				<path class="st3" d="M17.7,62.1c-0.4,0-0.8-0.3-1-0.7L10,38.2c-4.5,0.4-8,4.1-8,8.6v14.3c0,0.6-0.4,1-1,1s-1-0.4-1-1V46.8
					c0-5.9,4.8-10.6,10.8-10.6c0.4,0,0.8,0.3,1,0.7l6.1,20.7l6.1-20.7c0.1-0.4,0.5-0.7,1-0.7c3.5,0,6.6,1.6,8.7,4.3
					c0.3,0.4,0.2,1.1-0.2,1.4c-0.4,0.3-1.1,0.2-1.4-0.2c-1.5-2-3.8-3.3-6.3-3.5l-6.8,23.2C18.6,61.8,18.2,62.1,17.7,62.1z"/>
			</g>
			<g>
				<path class="st3" d="M13.1,46.3c-0.1,0-0.2,0-0.3,0c-0.3-0.1-0.6-0.4-0.7-0.7l-2.4-8.2c-0.1-0.5,0.1-1,0.5-1.2l3.9-2
					c0.2-0.1,0.5-0.1,0.8-0.1c0.3,0.1,0.5,0.3,0.6,0.5l3.1,6.1c0.2,0.4,0.1,0.9-0.2,1.2l-4.7,4C13.6,46.2,13.3,46.3,13.1,46.3z
					 M11.9,37.6l1.7,5.9l2.9-2.5l-2.3-4.5L11.9,37.6z"/>
			</g>
			<g>
				<path class="st3" d="M22.4,46.3c-0.2,0-0.5-0.1-0.7-0.2l-4.7-4c-0.3-0.3-0.4-0.8-0.2-1.2l3.1-6.1c0.1-0.2,0.3-0.4,0.6-0.5
					c0.3-0.1,0.5-0.1,0.8,0.1l3.9,2c0.4,0.2,0.6,0.7,0.5,1.2l-2.4,8.2c-0.1,0.3-0.4,0.6-0.7,0.7C22.6,46.3,22.5,46.3,22.4,46.3z
					 M19,41l2.9,2.5l1.7-5.9l-2.3-1.2L19,41z"/>
			</g>
			<g>
				<path class="st3" d="M14.3,62.1c-0.3,0-0.6-0.1-0.8-0.4l-6.6-9.1c-0.2-0.3-0.3-0.7-0.1-1.1l2.3-4.1l-2.2-2.8
					c-0.2-0.3-0.3-0.7-0.1-1l3.1-6.9c0.2-0.4,0.6-0.6,1-0.6c0.4,0,0.8,0.3,0.9,0.7l7,24c0.1,0.3,0,0.6-0.2,0.9
					c-0.2,0.3-0.5,0.4-0.8,0.4c-0.5,0-1-0.4-1-0.9L10.5,40l-1.7,3.9l2.3,2.8c0.3,0.3,0.3,0.8,0.1,1.1l-2.3,4.1l6.2,8.6
					c0.3,0.4,0.2,1.1-0.2,1.4C14.7,62,14.5,62.1,14.3,62.1z"/>
			</g>
			<g>
				<path class="st3" d="M21.3,62.1c-0.2,0-0.4-0.1-0.6-0.2c-0.4-0.3-0.5-1-0.2-1.4l6.2-8.6l-2.3-4.1c-0.2-0.4-0.2-0.8,0.1-1.1
					l2.3-2.8L25,40l-6.2,21.2c-0.1,0.5-0.5,0.9-1,0.9h0c-0.3,0-0.6-0.1-0.8-0.4c-0.2-0.3-0.2-0.6-0.2-0.9l7-24
					c0.1-0.4,0.5-0.7,0.9-0.7c0.4,0,0.8,0.2,1,0.6l3.1,6.9c0.2,0.3,0.1,0.7-0.1,1l-2.2,2.8l2.3,4.1c0.2,0.3,0.2,0.8-0.1,1.1
					l-6.6,9.1C21.9,61.9,21.6,62.1,21.3,62.1z"/>
			</g>
			<g>
				<path class="st3" d="M50.9,51.9c-0.2,0-0.3,0-0.5-0.1c-0.5-0.3-0.7-0.9-0.4-1.4l0.9-1.8c0.2-0.3,0.5-0.5,0.8-0.5
					c0.4,0,0.8-0.1,1.3-0.2c0.5-0.1,1-0.3,1.4-0.5c0.3-0.2,0.7-0.1,1,0.1l1.7,1.3l1.7-1.6l-1.2-1.8c-0.2-0.3-0.2-0.7,0-1
					c0.4-0.8,0.7-1.7,0.8-2.6c0-0.4,0.3-0.7,0.6-0.8l2-0.8l-0.5-2.2L58.3,38c-0.3,0-0.7-0.2-0.9-0.5c-0.5-0.8-1.2-1.4-1.9-2
					c-0.3-0.2-0.5-0.6-0.4-0.9l0.2-2.1l-2.2-0.7l-1,2c-0.2,0.3-0.5,0.5-0.8,0.5c-0.4,0-0.8,0.1-1.2,0.2c-0.5,0.1-1,0.3-1.4,0.5
					c-0.3,0.2-0.7,0.1-1-0.1l-1.7-1.3l-1.7,1.6l1.2,1.8c0.2,0.3,0.2,0.7,0,1c-0.4,0.8-0.7,1.7-0.8,2.6c0,0.4-0.3,0.7-0.6,0.8l-1,0.4
					c-0.5,0.2-1.1,0-1.3-0.5c-0.2-0.5,0-1.1,0.5-1.3l0.5-0.2c0.1-0.8,0.3-1.5,0.7-2.2l-1-1.5c-0.5-0.8-0.4-1.8,0.3-2.4l1.8-1.7
					c0.7-0.6,1.7-0.7,2.4-0.1l1.3,1c0.4-0.2,0.9-0.3,1.3-0.4c0.3-0.1,0.7-0.1,1-0.2l0.8-1.6c0.4-0.8,1.3-1.2,2.2-0.9l2.4,0.7
					c0.9,0.3,1.4,1.1,1.3,2l-0.2,1.6c0.6,0.5,1.2,1,1.6,1.7l1.8-0.1c0.9,0,1.7,0.6,1.9,1.4l0.6,2.4c0.2,0.9-0.2,1.8-1.1,2.1
					l-1.5,0.7c-0.1,0.8-0.3,1.5-0.7,2.2l1,1.5c0.5,0.8,0.4,1.8-0.3,2.4l-1.8,1.7c-0.7,0.6-1.7,0.7-2.4,0.1l-1.3-1
					c-0.4,0.2-0.9,0.3-1.3,0.4c-0.3,0.1-0.7,0.1-1,0.2l-0.7,1.3C51.7,51.7,51.3,51.9,50.9,51.9z M51.5,45.9c-2.1,0-4.1-1.5-4.6-3.6
					l0,0c-0.3-1.2-0.1-2.5,0.6-3.5c0.7-1.1,1.7-1.8,3-2.1c2.5-0.6,5.1,1,5.7,3.5c0.3,1.2,0.1,2.4-0.6,3.5c-0.7,1.1-1.7,1.8-3,2.1
					C52.2,45.9,51.9,45.9,51.5,45.9z M51.5,38.6c-0.2,0-0.4,0-0.6,0.1c-0.7,0.2-1.3,0.6-1.7,1.2c-0.4,0.6-0.5,1.3-0.3,2l0,0
					c0.3,1.4,1.8,2.3,3.3,2c0.7-0.2,1.3-0.6,1.7-1.2c0.4-0.6,0.5-1.3,0.3-2C53.9,39.4,52.8,38.6,51.5,38.6z"/>
			</g>
			<g>
				<path class="st3" d="M47.7,31.6c-0.6,0-1.2-0.3-1.5-0.9l-0.4-0.9c-0.3,0-0.6-0.1-0.8-0.2c-0.2-0.1-0.4-0.1-0.6-0.2l-0.9,0.6
					c-0.6,0.4-1.5,0.3-2.1-0.2L40,28.6c-0.6-0.6-0.6-1.4-0.2-2.1l0.6-0.8c-0.2-0.4-0.3-0.9-0.4-1.4l-1-0.5c-0.7-0.3-1.1-1.1-0.9-1.9
					l0.5-1.7c0.2-0.7,0.9-1.2,1.7-1.2l1,0.1c0.3-0.4,0.6-0.7,1-1L42.4,17c-0.1-0.8,0.5-1.5,1.2-1.7l1.7-0.5c0.8-0.2,1.5,0.2,1.9,0.9
					l0.4,0.9c0.3,0,0.6,0.1,0.8,0.2c0.2,0.1,0.4,0.1,0.6,0.2l0.9-0.6c0.6-0.4,1.5-0.3,2.1,0.2l1.3,1.3c0.6,0.6,0.6,1.4,0.2,2.1
					l-0.6,0.8c0.2,0.4,0.3,0.9,0.4,1.4l1,0.5c0.7,0.3,1.1,1.1,0.9,1.9l-0.5,1.7c-0.2,0.7-0.9,1.2-1.7,1.2l-1-0.1
					c-0.3,0.4-0.6,0.7-1,1l0.1,1.1c0.1,0.8-0.5,1.5-1.2,1.7l-1.7,0.4C47.9,31.6,47.8,31.6,47.7,31.6z M44.2,27.3
					c0.1,0,0.3,0,0.4,0.1c0.3,0.1,0.5,0.2,0.8,0.3c0.3,0.1,0.7,0.1,1,0.2c0.4,0,0.7,0.2,0.9,0.6l0.5,1.2l1.2-0.3l-0.1-1.3
					c0-0.4,0.1-0.7,0.4-0.9c0.5-0.4,1-0.8,1.3-1.3c0.2-0.3,0.6-0.5,0.9-0.4l1.3,0.1l0.3-1.1L52,23.7c-0.3-0.2-0.5-0.5-0.6-0.8
					c0-0.6-0.2-1.2-0.5-1.8c-0.2-0.3-0.1-0.7,0.1-1l0.7-1l-0.8-0.8L49.7,19c-0.3,0.2-0.7,0.2-1,0.1c-0.3-0.1-0.5-0.2-0.8-0.3
					c-0.3-0.1-0.7-0.1-1-0.2c-0.4,0-0.7-0.2-0.9-0.6l-0.5-1.2l-1.2,0.3l0.1,1.3c0,0.4-0.1,0.7-0.4,0.9c-0.5,0.4-1,0.8-1.3,1.3
					c-0.2,0.3-0.5,0.5-0.9,0.4l-1.3-0.1l-0.3,1.1l1.2,0.6c0.3,0.2,0.5,0.5,0.6,0.8c0,0.6,0.2,1.2,0.5,1.8c0.2,0.3,0.1,0.7-0.1,1
					l-0.7,1l0.8,0.8l1.1-0.8C43.8,27.4,44,27.3,44.2,27.3z M42.3,28.4C42.3,28.4,42.3,28.4,42.3,28.4L42.3,28.4L42.3,28.4z
					 M52.8,25.7C52.8,25.7,52.8,25.7,52.8,25.7L52.8,25.7z M51.1,18.1L51.1,18.1C51.1,18.1,51.1,18.1,51.1,18.1z M50.7,18
					C50.7,18,50.7,18,50.7,18L50.7,18z M46.7,26.4c-0.3,0-0.6,0-0.8-0.1c-0.8-0.2-1.5-0.8-2-1.5c-0.4-0.7-0.5-1.6-0.3-2.4l0,0
					c0,0,0,0,0,0l0,0c0.5-1.7,2.2-2.7,4-2.2c0.8,0.2,1.5,0.8,2,1.5c0.4,0.7,0.5,1.6,0.3,2.4C49.4,25.5,48.1,26.4,46.7,26.4z
					 M46.7,22.1c-0.5,0-1,0.3-1.2,0.9v0c-0.1,0.3,0,0.6,0.1,0.9c0.2,0.3,0.4,0.5,0.7,0.6c0.7,0.2,1.3-0.2,1.5-0.8
					c0.1-0.3,0-0.6-0.1-0.9c-0.2-0.3-0.4-0.5-0.7-0.6C46.9,22.1,46.8,22.1,46.7,22.1z M44.6,22.7L44.6,22.7L44.6,22.7z"/>
			</g>
			<g>
				<path class="st3" d="M59.8,62.1H52c-0.6,0-1-0.4-1-1s0.4-1,1-1h5.6L33.7,32.5v27.6h13.5c0.6,0,1,0.4,1,1s-0.4,1-1,1H32.7
					c-0.6,0-1-0.4-1-1V29.8c0-0.4,0.3-0.8,0.7-0.9c0.4-0.1,0.8,0,1.1,0.3l27.1,31.3c0.3,0.3,0.3,0.7,0.2,1.1
					C60.5,61.9,60.2,62.1,59.8,62.1z M50.4,57.9H37c-0.6,0-1-0.4-1-1V41.3c0-0.4,0.3-0.8,0.7-0.9c0.4-0.1,0.8,0,1.1,0.3l13.5,15.6
					c0.3,0.3,0.3,0.7,0.2,1.1C51.2,57.6,50.8,57.9,50.4,57.9z M38,55.9h10.3L38,44V55.9z"/>
			</g>
			<g>
				<path class="st3" d="M14.6,36.1c-0.6,0-1-0.4-1-1v-1.6c0-0.6,0.4-1,1-1s1,0.4,1,1v1.6C15.6,35.7,15.2,36.1,14.6,36.1z"/>
			</g>
			<g>
				<path class="st3" d="M20.9,36.1c-0.6,0-1-0.4-1-1v-1.6c0-0.6,0.4-1,1-1s1,0.4,1,1v1.6C21.9,35.7,21.5,36.1,20.9,36.1z"/>
			</g>
		</g>
	</g>
</g>
</svg>
