<svg width="55" height="55" viewBox="0 0 55 55" fill="none" xmlns="http://www.w3.org/2000/svg">
<path d="M52.9464 1.1055C52.9243 0.740467 52.6588 0.433876 52.3002 0.362116C49.889 -0.120974 47.4439 -0.120652 45.0327 0.362761C44.6753 0.434413 44.412 0.739608 44.3901 1.10356C44.3859 1.17296 44.3825 1.24246 44.3791 1.31197C44.3756 1.38308 44.3703 1.4542 44.3592 1.52456C44.1798 2.671 43.1858 3.55092 41.99 3.55092C41.1144 3.55092 40.347 3.07922 39.9284 2.37655C39.7443 2.0676 39.6447 1.71567 39.6132 1.35741C39.6049 1.26352 39.5965 1.16974 39.5876 1.07596C39.552 0.700613 39.2614 0.400575 38.8873 0.352985C35.193 -0.117429 31.4468 -0.117536 27.7529 0.35277C27.3786 0.400467 27.0865 0.70029 27.0508 1.07596C27.0137 1.46569 26.9813 1.85597 26.9511 2.24667C26.8447 2.24721 26.7373 2.24646 26.6328 2.24936C24.1902 2.31489 21.79 2.9907 19.6893 4.20417C19.326 4.41397 19.1588 4.8657 19.3325 5.24748C19.4706 5.55096 19.7647 5.7222 20.068 5.7222C20.2053 5.7222 20.3445 5.68707 20.4718 5.61316C22.3463 4.52494 24.4918 3.91874 26.6767 3.86009C26.7323 3.85859 26.7897 3.85945 26.8458 3.85869C26.7217 6.18487 26.7168 8.52083 26.8324 10.8477C23.5336 10.9396 20.326 11.6186 17.298 12.8665C16.602 13.1536 15.9957 12.8622 15.6605 12.4938C15.3291 12.1293 15.0988 11.5055 15.4464 10.847C16.1189 9.57123 16.9915 8.42179 18.0404 7.42982C18.3593 7.12828 18.4058 6.62027 18.1162 6.29069C17.8138 5.9465 17.2891 5.92405 16.9583 6.23536C15.7697 7.3543 14.7814 8.65297 14.0211 10.0951C13.4142 11.2448 13.5897 12.6119 14.4684 13.578C15.0702 14.2396 15.8895 14.5922 16.7326 14.5922C17.1271 14.5922 17.5269 14.5149 17.912 14.3562C20.7747 13.1764 23.809 12.5372 26.9313 12.4566C26.9315 12.4567 26.9315 12.4567 26.9315 12.4567C26.9665 12.933 27.0058 13.4088 27.0509 13.8837C27.0865 14.258 27.3759 14.5589 27.7489 14.6064C28.1008 14.6511 28.4533 14.6904 28.8061 14.7267V21.5541C27.2195 21.0289 25.4666 21.2097 23.9912 22.0996L13.0825 28.6789C12.4564 27.8989 11.4958 27.3982 10.42 27.3982H5.27607C3.39066 27.3982 1.86221 28.9266 1.86221 30.8121V51.5859C1.86221 53.4713 3.39066 54.9998 5.27607 54.9998H10.4201C11.3902 54.9998 12.2663 54.5924 12.8884 53.9406C12.9338 53.9485 12.9802 53.9535 13.0276 53.9535H37.0409C37.4821 53.9535 37.8668 53.6136 37.88 53.1726C37.8937 52.7163 37.528 52.3421 37.0746 52.3421H13.8332V51.6107C13.8332 51.6025 13.8339 51.5942 13.8339 51.5859V30.8121C13.8339 30.8052 13.8334 30.7983 13.8333 30.7914V30.1078L24.8235 23.4794C26.0489 22.7403 27.5383 22.6798 28.8061 23.2911V25.6932H26.6205C26.1793 25.6932 25.7946 26.033 25.7814 26.474C25.7676 26.9303 26.1334 27.3045 26.5867 27.3045H39.8816C40.5557 27.3045 41.1904 27.5673 41.6678 28.0439C42.1447 28.5208 42.4073 29.1547 42.4073 29.829C42.4073 31.215 41.2849 32.3439 39.9013 32.3546C39.5312 32.3574 39.1938 32.5906 39.1027 32.9493C38.9666 33.4853 39.3679 33.9661 39.8816 33.9661H41.02C42.4332 33.9661 43.6267 35.1225 43.6025 36.5355C43.579 37.9085 42.4552 39.0183 41.0774 39.0183H39.9154C39.4742 39.0183 39.0895 39.3582 39.0763 39.7991C39.0625 40.2554 39.4283 40.6296 39.8816 40.6296C40.5566 40.6296 41.1909 40.8922 41.6683 41.3696C42.1417 41.8421 42.4038 42.471 42.4073 43.1417C42.4146 44.5384 41.2135 45.6808 39.8167 45.6808H38.7198C38.2787 45.6808 37.894 46.0207 37.8808 46.4616C37.867 46.9179 38.2328 47.2921 38.6861 47.2921C39.3602 47.2921 39.9949 47.5549 40.4728 48.0321C40.9493 48.5079 41.2118 49.1417 41.2118 49.8166C41.2118 50.7401 40.7113 51.5852 39.9029 52.0309C39.5354 52.2335 39.3447 52.6697 39.5022 53.0587C39.6322 53.3797 39.936 53.5649 40.251 53.5649C40.3788 53.5649 40.5086 53.5344 40.6293 53.47C41.9825 52.7485 42.8231 51.3486 42.8231 49.8167C42.8231 48.7177 42.3981 47.685 41.6257 46.9064C43.0378 46.2472 44.0186 44.8136 44.0186 43.1553C44.0186 42.0553 43.5934 41.022 42.8212 40.2438C44.2333 39.5845 45.2142 38.1505 45.2142 36.4916C45.2142 34.8323 44.2324 33.3981 42.819 32.7395C43.5602 31.9915 44.0186 30.9629 44.0186 29.8291C44.0186 28.7245 43.5884 27.6859 42.8067 26.9042C42.0245 26.1233 40.9857 25.6933 39.8816 25.6933H37.8321V14.7269C38.1852 14.6906 38.538 14.6514 38.8903 14.6065C39.2632 14.559 39.5522 14.2581 39.5877 13.8838C39.5967 13.79 39.605 13.6962 39.6133 13.6025C39.6448 13.2442 39.7444 12.8923 39.9285 12.5833C40.3471 11.8807 41.1143 11.409 41.9901 11.409C43.186 11.409 44.1799 12.2889 44.3593 13.4353C44.3703 13.5056 44.3756 13.5768 44.3792 13.6479C44.3828 13.7174 44.386 13.7869 44.3902 13.8562C44.4121 14.2201 44.6754 14.5252 45.0328 14.5969C46.239 14.8388 47.4536 14.9598 48.6683 14.9598C49.8817 14.9598 51.0952 14.839 52.3003 14.5977C52.6589 14.5258 52.9243 14.2193 52.9465 13.8544C53.2017 9.62463 53.2017 5.33525 52.9464 1.1055ZM10.4201 53.3886H5.27607C4.28218 53.3886 3.47359 52.58 3.47359 51.5861V30.8123C3.47359 29.8184 4.28218 29.0098 5.27607 29.0098H10.4201C11.4105 29.0098 12.2165 29.8129 12.2221 30.802L12.222 51.5986C12.2152 52.5867 11.4098 53.3886 10.4201 53.3886ZM28.597 1.87455C31.7339 1.5236 34.9046 1.5236 38.0418 1.87455C38.3584 5.59748 38.3584 9.36219 38.0418 13.0851C34.9046 13.4361 31.7339 13.4361 28.597 13.0851C28.2804 9.36219 28.2804 5.59748 28.597 1.87455ZM36.2208 25.6934H30.4176V14.8634C31.3836 14.9271 32.3515 14.9597 33.3194 14.9597C34.2872 14.9597 35.2549 14.9271 36.2208 14.8634V25.6934ZM41.9901 9.79758C41.1931 9.79758 40.4504 10.0322 39.8254 10.4347C39.911 8.4668 39.911 6.49308 39.8254 4.52516C40.4502 4.92768 41.1931 5.1623 41.9901 5.1623C42.8245 5.1623 43.6 4.90587 44.2424 4.46812C44.1855 6.47406 44.1855 8.48592 44.2424 10.4919C43.5998 10.0539 42.8245 9.79758 41.9901 9.79758ZM51.3739 13.1284C49.5757 13.4216 47.7604 13.4216 45.9624 13.1284C45.759 9.3769 45.759 5.58287 45.9624 1.83137C47.7603 1.53821 49.5756 1.53821 51.3739 1.83137C51.5773 5.58287 51.5773 9.3769 51.3739 13.1284Z" fill="#FF4E00"/>
</svg>
