<svg width="64" height="64" viewBox="0 0 64 64" fill="none" xmlns="http://www.w3.org/2000/svg">
<path d="M58.61 5.97498H54.1562C53.6385 5.97498 53.2188 6.39473 53.2188 6.91248V14.8812H37.0071L33.8555 11.7296C33.4894 11.3635 32.8958 11.3635 32.5298 11.7296C32.1636 12.0957 32.1636 12.6892 32.5298 13.0554L41.9576 22.4832C40.4584 22.9614 39.0979 23.7885 37.9621 24.9242C36.8262 26.0601 35.9991 27.4206 35.521 28.92L20.723 14.1222C20.9567 12.5024 21.7098 10.9925 22.8708 9.83261C24.0308 8.67148 25.5405 7.91811 27.1596 7.68436L29.4408 9.96648C29.8069 10.3327 30.4004 10.3327 30.7666 9.96673C31.1329 9.60073 31.133 9.00711 30.7669 8.64098L28.1656 6.03848C27.9697 5.84248 27.6976 5.74311 27.4211 5.76723C25.2036 5.96048 23.1165 6.93361 21.545 8.50673C19.9721 10.0781 18.9995 12.1652 18.8061 14.3835C18.791 14.5569 18.8246 14.7287 18.9002 14.8811H10.7812V6.91248C10.7812 6.39473 10.3615 5.97498 9.84375 5.97498H5.39C2.418 5.97498 0 8.39298 0 11.365V48.7937C0 51.7665 2.418 54.185 5.39 54.185H14.5825V54.845C14.5825 56.7149 16.1037 58.2362 17.9737 58.2362H46.02C47.4179 58.2362 48.6185 57.4341 49.1534 56.1429C49.4202 55.4985 49.4837 54.823 49.3575 54.185H58.61C61.582 54.185 64 51.7665 64 48.7937V11.365C64 8.39298 61.582 5.97498 58.61 5.97498ZM43.8973 30.8599L40.9309 30.4354C41.1464 29.859 41.4806 29.3336 41.926 28.8884C42.3713 28.4431 42.8965 28.1089 43.4729 27.8934L43.8973 30.8599ZM39.2878 26.2501C40.3115 25.2265 41.5596 24.5112 42.9372 24.1505L43.2025 26.0044C42.2236 26.2977 41.3363 26.8264 40.6001 27.5625C39.864 28.2986 39.3354 29.1861 39.042 30.165L37.1881 29.8997C37.5489 28.5221 38.264 27.2739 39.2878 26.2501ZM1.875 11.365C1.875 9.42686 3.45187 7.84998 5.39 7.84998H8.90625V43.4037H5.39C4.087 43.4037 2.85387 43.8634 1.875 44.7069V11.365ZM58.61 52.31H48.2809L20.3716 24.4009C19.3831 23.4124 17.9671 23.1305 16.6759 23.6654C15.3846 24.2002 14.5825 25.4009 14.5825 26.7987V46.3275C14.5825 46.8452 15.0023 47.265 15.52 47.265C16.0378 47.265 16.4575 46.8452 16.4575 46.3275V26.7987C16.4575 26.1641 16.8074 25.6404 17.3934 25.3976C17.9794 25.1549 18.597 25.2779 19.0457 25.7266L47.092 53.7729C47.5407 54.2216 47.6637 54.8394 47.421 55.4252C47.1783 56.0112 46.6545 56.3611 46.02 56.3611H44.3587V54.1875C44.3587 53.6697 43.939 53.25 43.4212 53.25C42.9035 53.25 42.4837 53.6697 42.4837 54.1875V56.3611H39.3409V54.1875C39.3409 53.6697 38.9211 53.25 38.4034 53.25C37.8856 53.25 37.4659 53.6697 37.4659 54.1875V56.3611H34.323V54.1875C34.323 53.6697 33.9033 53.25 33.3855 53.25C32.8678 53.25 32.448 53.6697 32.448 54.1875V56.3611H29.3051V54.1875C29.3051 53.6697 28.8854 53.25 28.3676 53.25C27.8499 53.25 27.4301 53.6697 27.4301 54.1875V56.3611H24.2875V54.1875C24.2875 53.6697 23.8678 53.25 23.35 53.25C22.8323 53.25 22.4125 53.6697 22.4125 54.1875V56.3611H17.9737C17.1377 56.3611 16.4575 55.681 16.4575 54.8449V50.7C16.4575 50.1822 16.0378 49.7625 15.52 49.7625C15.0023 49.7625 14.5825 50.1822 14.5825 50.7V52.31H5.39C3.45187 52.31 1.875 50.7326 1.875 48.7937C1.875 47.8555 2.24062 46.9725 2.90363 46.3084C3.56862 45.6444 4.45162 45.2787 5.39 45.2787H9.84375C10.3615 45.2787 10.7812 44.859 10.7812 44.3412V16.7562H20.7055L35.2809 31.3316C35.4243 31.475 35.6103 31.568 35.811 31.5967L44.8698 32.893C45.159 32.935 45.457 32.837 45.6655 32.6279C45.8743 32.4191 45.9725 32.1244 45.9306 31.8321L44.6344 22.7734C44.6058 22.5726 44.5126 22.3866 44.3693 22.2432L38.8821 16.7561H53.2188V34.9311C53.2188 35.4489 53.6385 35.8686 54.1562 35.8686C54.674 35.8686 55.0938 35.4489 55.0938 34.9311V7.84998H58.61C60.5481 7.84998 62.125 9.42686 62.125 11.365V44.7067C61.1469 43.8637 59.9134 43.4037 58.61 43.4037H55.0938V39.3062C55.0938 38.7885 54.674 38.3687 54.1562 38.3687C53.6385 38.3687 53.2188 38.7885 53.2188 39.3062V44.3412C53.2188 44.859 53.6385 45.2787 54.1562 45.2787H58.61C59.5484 45.2787 60.4314 45.6444 61.0952 46.3074C61.7593 46.9725 62.125 47.8555 62.125 48.7937C62.125 50.7326 60.5481 52.31 58.61 52.31Z" fill="#FF4E00"/>
<path d="M22.6455 51.1107H34.743C35.1223 51.1107 35.464 50.8823 35.6091 50.5319C35.7543 50.1817 35.674 49.7783 35.4059 49.5103L23.3084 37.4128C23.0404 37.1445 22.637 37.0645 22.2868 37.2095C21.9364 37.3547 21.708 37.6965 21.708 38.0757V50.1732C21.708 50.6909 22.1278 51.1107 22.6455 51.1107ZM23.583 40.3389L32.4798 49.2355H23.583V40.3389Z" fill="#FF4E00"/>
</svg>
