<svg width="63" height="64" viewBox="0 0 63 64" fill="none" xmlns="http://www.w3.org/2000/svg">
<path d="M51.3628 48.0024L43.183 45.2326C43.1806 45.2318 43.178 45.2309 43.1755 45.2301L42.0039 44.8334C45.2179 44.1947 48.1791 43.2595 50.6553 42.0928C51.7686 41.568 52.4823 40.4349 52.4733 39.2055C52.3498 22.3751 50.0416 0 31.5 0C12.9584 0 10.6502 22.3751 10.5268 39.2055C10.5178 40.4348 11.2315 41.568 12.3448 42.0926C14.821 43.2594 17.7821 44.1945 20.9961 44.8331L19.8236 45.2303C19.8215 45.2309 19.8195 45.2316 19.8175 45.2323L11.6373 48.0023C9.08208 48.8675 7.36533 51.2873 7.36533 54.0233V60.8601C7.36533 62.5915 8.75182 64 10.4561 64H52.5438C54.2482 64 55.6346 62.5915 55.6346 60.8601V54.0233C55.6346 51.2873 53.918 48.8675 51.3628 48.0024ZM13.1747 40.2746C12.7613 40.0796 12.4964 39.6659 12.4996 39.2204C12.5855 27.4998 13.8639 18.8744 16.4078 12.8512C19.4907 5.55237 24.4275 2.00413 31.5 2.00413C38.5725 2.00413 43.5092 5.55237 46.5921 12.8512C49.1361 18.8744 50.4145 27.4997 50.5003 39.2201C50.5036 39.6657 50.2384 40.0795 49.8249 40.2745C47.0695 41.5728 43.6578 42.5711 39.9492 43.1674C39.8861 42.96 39.8515 42.741 39.8515 42.5155V39.4823C39.8515 39.4781 39.8511 39.4741 39.8509 39.47L42.2465 37.7665C43.3323 36.9945 44.1712 35.9551 44.7041 34.7637C45.3672 34.1494 45.8233 33.5214 46.1364 32.9579C46.1364 32.9579 46.2112 32.9593 46.2323 32.9593C47.0457 32.9593 47.8113 32.6419 48.3941 32.0615C48.992 31.4661 49.3212 30.6698 49.3212 29.8193V25.5935C49.3212 24.753 48.9985 23.9631 48.4125 23.3697C47.8265 22.7762 47.0475 22.4487 46.2206 22.4536L46.0483 22.4541C46.0828 21.7727 46.11 21.0504 46.1308 20.2691C46.138 19.9989 46.0372 19.737 45.8516 19.5431C45.7096 19.395 45.5271 19.2961 45.3301 19.2579C44.834 19.0445 42.5869 17.9155 41.2287 14.4854C41.1208 14.2128 40.9006 14.0021 40.6265 13.909C40.3521 13.8159 40.0516 13.8496 39.8041 14.0014C38.2084 14.9792 29.2837 18.981 17.8344 19.2167C17.5717 19.2222 17.322 19.3337 17.1408 19.5269C16.9594 19.72 16.8613 19.9786 16.8684 20.2455C16.8892 21.036 16.9166 21.7654 16.9513 22.4543L16.779 22.4538C16.7756 22.4538 16.7723 22.4538 16.7689 22.4538C15.9453 22.4538 15.1708 22.779 14.5871 23.3699C14.001 23.9632 13.6784 24.753 13.6784 25.5936V29.8194C13.6784 30.67 14.0075 31.4663 14.6055 32.0616C15.1883 32.642 15.9538 32.9594 16.7673 32.9594C16.7885 32.9594 17.7461 32.9401 17.7461 32.9401C18.0718 34.8877 19.1419 36.6209 20.7532 37.7668L23.1488 39.4702C23.1488 39.4744 23.1482 39.4784 23.1482 39.4825V42.5158C23.1482 42.7412 23.1136 42.9603 23.0505 43.1676C19.342 42.5713 15.9301 41.5729 13.1747 40.2746ZM33.0783 34.2046H32.0261C30.612 34.2046 29.4615 35.3735 29.4615 36.81C29.4615 38.2466 30.6121 39.4154 32.0261 39.4154H33.0783C34.1211 39.4154 35.019 38.7789 35.4194 37.869C36.9347 37.7987 38.2482 37.6156 39.388 37.3529L34.7616 40.6429C33.8012 41.3258 32.6739 41.6867 31.4986 41.6867C30.3264 41.6867 29.1993 41.3258 28.2386 40.6429L21.8847 36.1245C20.5735 35.192 19.7511 33.7276 19.6285 32.108L18.9819 23.3923C18.9365 22.7071 18.9001 21.9805 18.8716 21.1908C28.9362 20.7997 36.8518 17.7242 39.8465 16.2435C41.2343 19.054 43.1508 20.3713 44.1386 20.8966C44.1087 21.7978 44.0692 22.6182 44.0182 23.3883L43.3716 32.1064C43.3333 32.6116 43.227 33.1015 43.0593 33.5649C41.7244 34.6534 39.4231 35.6577 35.4634 35.8591C35.0888 34.892 34.162 34.2046 33.0783 34.2046ZM33.6702 36.81C33.6702 37.1415 33.4046 37.4113 33.0783 37.4113H32.0261C31.6998 37.4113 31.4343 37.1415 31.4343 36.81C31.4343 36.4785 31.6998 36.2088 32.0261 36.2088H33.0783C33.4046 36.2088 33.6702 36.4785 33.6702 36.81ZM25.1211 42.5155V40.8726L27.1072 42.285C28.4009 43.2049 29.9193 43.6911 31.5016 43.6911C33.0806 43.6911 34.5992 43.2049 35.8928 42.285L37.8789 40.8725V42.5155C37.8789 44.33 39.0173 45.9345 40.7118 46.5083L41.2243 46.6818C38.8287 49.674 35.1658 53.1271 31.4997 54.4569C27.8339 53.1271 24.1708 49.674 21.7752 46.6818L22.2878 46.5083C23.9826 45.9345 25.1211 44.3299 25.1211 42.5155ZM45.4368 30.939L45.9174 24.4587L46.2271 24.4576C46.5234 24.4566 46.8079 24.5744 47.0199 24.789C47.2318 25.0036 47.3485 25.2892 47.3485 25.5934V29.8191C47.3485 30.1269 47.2294 30.4147 47.0131 30.6301C46.7969 30.8455 46.5129 30.9616 46.2083 30.9546L45.4368 30.939ZM17.5632 30.9391L16.7916 30.9548C16.4894 30.9608 16.2029 30.8456 15.9866 30.6304C15.7704 30.415 15.6512 30.1269 15.6512 29.8194V25.5936C15.6512 25.2896 15.768 25.004 15.9798 24.7892C16.1917 24.5745 16.4699 24.4581 16.7726 24.4579L17.0825 24.4589L17.5632 30.9391ZM15.7828 61.9959H10.4561C9.83968 61.9959 9.33814 61.4864 9.33814 60.8601V54.0233C9.33814 53.3056 9.512 52.6206 9.82331 52.0144L14.8389 57.1096C15.4475 57.728 15.7827 58.55 15.7827 59.4244L15.7828 61.9959ZM45.2442 59.4245V61.9959H17.7558V59.4245C17.7558 58.0147 17.2154 56.6895 16.2342 55.6926L11.1199 50.4972C11.4629 50.2472 11.8451 50.0448 12.2611 49.9038L19.7822 47.3569C23.7493 52.5954 28.2444 55.4945 31.1952 56.4686C31.2943 56.5014 31.3972 56.5176 31.5001 56.5176C31.603 56.5176 31.706 56.5014 31.805 56.4686C34.7559 55.4944 39.251 52.5953 43.218 47.3569L50.7391 49.9038C51.1551 50.0448 51.5373 50.2472 51.8804 50.4972L46.766 55.6926C45.7846 56.6894 45.2442 58.0147 45.2442 59.4245ZM53.6618 60.8601C53.6618 61.4864 53.1603 61.9959 52.5438 61.9959H47.2171V59.4245C47.2171 58.5501 47.5523 57.7281 48.1609 57.1097L53.1765 52.0145C53.4879 52.6208 53.6617 53.3058 53.6617 54.0234V60.8601H53.6618Z" fill="#FF4E00"/>
</svg>
