<svg width="63" height="62" viewBox="0 0 63 62" fill="none" xmlns="http://www.w3.org/2000/svg">
<g clip-path="url(#clip0_22_440)">
<mask id="mask0_22_440" style="mask-type:luminance" maskUnits="userSpaceOnUse" x="0" y="0" width="63" height="62">
<path d="M0 3.8147e-06H63V62H0V3.8147e-06Z" fill="white"/>
</mask>
<g mask="url(#mask0_22_440)">
<path d="M0.922852 61.0913V46.8037C0.922852 41.4632 5.3219 37.134 10.7485 37.134" stroke="#FF4E00" stroke-width="2" stroke-miterlimit="10" stroke-linecap="round" stroke-linejoin="round"/>
<path d="M30.5088 18.5066C31.6689 18.5066 32.6091 19.4321 32.6091 20.5737C32.6091 21.7152 31.6689 22.6406 30.5088 22.6406H28.8455" stroke="#FF4E00" stroke-width="2" stroke-miterlimit="10" stroke-linecap="round" stroke-linejoin="round"/>
<path d="M5.05453 18.5066C3.89457 18.5066 2.95424 19.4321 2.95424 20.5737C2.95424 21.7152 3.89457 22.6406 5.05453 22.6406H6.71788" stroke="#FF4E00" stroke-width="2" stroke-miterlimit="10" stroke-linecap="round" stroke-linejoin="round"/>
<path d="M28.8456 18.6232V23.0356C28.8456 29.049 23.8921 33.9238 17.7817 33.9238C11.6713 33.9238 6.71783 29.049 6.71783 23.0356V18.6232" stroke="#FF4E00" stroke-width="2" stroke-miterlimit="10" stroke-linecap="round" stroke-linejoin="round"/>
<path d="M20.4382 3.61719C25.6469 4.1098 29.7198 8.42886 29.7198 13.6841" stroke="#FF4E00" stroke-width="2" stroke-miterlimit="10" stroke-linecap="round" stroke-linejoin="round"/>
<path d="M10.6748 5.06592C12.0699 4.2208 13.6653 3.71427 15.2993 3.59741" stroke="#FF4E00" stroke-width="2" stroke-miterlimit="10" stroke-linecap="round" stroke-linejoin="round"/>
<path d="M5.779 13.6841C5.77936 12.1516 6.13325 10.6273 6.81677 9.24999" stroke="#FF4E00" stroke-width="2" stroke-miterlimit="10" stroke-linecap="round" stroke-linejoin="round"/>
<path d="M31.024 13.6839H22.9416C21.4272 13.6839 20.1995 12.4756 20.1995 10.9852V2.42994C20.1995 1.58955 19.5071 0.908158 18.653 0.908158H16.8456C15.9916 0.908158 15.2993 1.58955 15.2993 2.42994V10.9852C15.2993 12.4756 14.0716 13.6839 12.557 13.6839H4.47458C3.62063 13.6839 2.92825 14.3653 2.92825 15.2058V16.9844C2.92825 17.825 3.62063 18.5063 4.47458 18.5063H31.024C31.8781 18.5063 32.5704 17.825 32.5704 16.9844V15.2058C32.5704 14.3653 31.8781 13.6839 31.024 13.6839Z" stroke="#FF4E00" stroke-width="2" stroke-miterlimit="10" stroke-linecap="round" stroke-linejoin="round"/>
<path d="M0.922852 61.0913V46.7656C0.922852 41.4463 5.30455 37.134 10.7098 37.134L17.7494 61.0913L24.789 37.134H24.8277C28.0397 37.134 30.8902 38.6568 32.6747 41.0088" stroke="#FF4E00" stroke-width="2" stroke-miterlimit="10" stroke-linecap="round" stroke-linejoin="round"/>
<path d="M17.7728 41.2573L13.1085 45.2979L10.7332 37.1346L14.6452 35.1238L17.7728 41.2573Z" stroke="#FF4E00" stroke-width="2" stroke-miterlimit="10" stroke-linecap="round" stroke-linejoin="round"/>
<path d="M17.7817 41.2573L22.4461 45.2979L24.8213 37.1346L20.9093 35.1238L17.7817 41.2573Z" stroke="#FF4E00" stroke-width="2" stroke-miterlimit="10" stroke-linecap="round" stroke-linejoin="round"/>
<path d="M17.7171 61.0918H17.7494L10.7098 37.1345L7.64912 44.0378L10.3123 47.3563L7.64912 52.011L14.253 61.0918" stroke="#FF4E00" stroke-width="2" stroke-miterlimit="10" stroke-linecap="round" stroke-linejoin="round"/>
<path d="M17.814 61.0918H17.7817L24.8213 37.1345L27.8819 44.0378L25.2188 47.3563L27.8819 52.011L21.2781 61.0918" stroke="#FF4E00" stroke-width="2" stroke-miterlimit="10" stroke-linecap="round" stroke-linejoin="round"/>
<path d="M50.9471 50.8999L51.887 49.1306C52.3588 49.1076 52.8354 49.0431 53.3122 48.9338C53.8926 48.8007 54.4434 48.6081 54.9598 48.3647L56.7653 49.6759C57.1045 49.9222 57.5743 49.8947 57.8834 49.6105L59.7281 47.9142C60.0371 47.6301 60.0976 47.1697 59.8721 46.819L58.6169 44.868C59.1025 43.9449 59.4057 42.9256 59.491 41.8653L61.5499 40.9763C61.9371 40.8092 62.1492 40.3944 62.0549 39.9894L61.4922 37.5712C61.3979 37.1661 61.0239 36.8857 60.6022 36.9039L58.2594 37.0051C57.6796 36.1128 56.9272 35.3557 56.0581 34.7688L56.3127 32.5667C56.3604 32.1533 56.1027 31.7659 55.6994 31.645L53.2919 30.9232C52.8886 30.8022 52.4542 30.9822 52.2581 31.351L51.1687 33.4019C50.6967 33.4249 50.2202 33.4894 49.7434 33.5986C49.1629 33.7317 48.6124 33.9244 48.0959 34.1677L46.2905 32.8566C45.9513 32.6103 45.4814 32.6376 45.1723 32.922L43.3276 34.6181C43.0185 34.9024 42.9581 35.3626 43.1837 35.7134L44.4387 37.6645C43.9533 38.5876 43.6499 39.6068 43.5646 40.6671L42.5424 41.1085M47.899 42.0978C47.4397 40.1239 48.6918 38.1513 50.696 37.692C52.7003 37.2327 54.6972 38.4605 55.1567 40.4346C55.6161 42.4086 54.3638 44.3812 52.3597 44.8405C50.3555 45.2998 48.3583 44.0719 47.899 42.0978Z" stroke="#FF4E00" stroke-width="2" stroke-miterlimit="10" stroke-linecap="round" stroke-linejoin="round"/>
<path d="M44.5553 22.6579C44.8823 21.4966 46.1049 20.8124 47.2861 21.1298C48.4675 21.4473 49.1601 22.6461 48.8333 23.8075C48.5063 24.9688 47.2837 25.653 46.1024 25.3355C44.9212 25.0181 44.2285 23.8193 44.5553 22.6579ZM42.808 29.2297L44.2026 28.3034C44.5075 28.4469 44.8297 28.5658 45.1677 28.6565C45.579 28.767 45.9923 28.8301 46.4014 28.8497L47.0848 30.2794C47.2133 30.548 47.5184 30.6879 47.8113 30.6125L49.5587 30.1622C49.8514 30.0867 50.0486 29.8173 50.0279 29.521L49.9121 27.8728C50.5366 27.4541 51.0798 26.9141 51.4999 26.2752L53.1033 26.4047C53.4046 26.4291 53.6815 26.239 53.7621 25.9525L54.2436 24.242C54.3243 23.9554 54.1859 23.6536 53.9142 23.524L52.4043 22.8035C52.3478 22.0478 52.1358 21.3194 51.7916 20.659L52.7127 19.3581C52.8857 19.1137 52.8573 18.7837 52.6452 18.5725L51.3793 17.3124C51.167 17.1012 50.8315 17.069 50.5806 17.2358L49.1861 18.162C48.8811 18.0185 48.5588 17.8997 48.2209 17.8089C47.8096 17.6983 47.3964 17.6353 46.9871 17.6155L46.3038 16.186C46.1754 15.9174 45.8702 15.7774 45.5774 15.8529L43.8299 16.3031C43.5373 16.3787 43.34 16.6481 43.3608 16.9444L43.4765 18.5926C42.8519 19.0112 42.3088 19.5513 41.8887 20.1902L40.2854 20.0606C39.984 20.0363 39.7072 20.2264 39.6263 20.513L39.145 22.2235C39.0644 22.51 39.2028 22.8118 39.4745 22.9413L40.9844 23.6618C41.0409 24.4176 41.2528 25.146 41.597 25.8064L40.6759 27.1073C40.5028 27.3516 40.5312 27.6817 40.7435 27.8929L42.0094 29.153C42.2214 29.364 42.5571 29.3964 42.808 29.2297Z" stroke="#FF4E00" stroke-width="2" stroke-miterlimit="10" stroke-linecap="round" stroke-linejoin="round"/>
<path d="M51.9645 61.0918H59.7647L32.6746 29.7788V61.0918H47.1776M36.9812 41.2945L50.4419 56.8535H36.9812V41.2945Z" stroke="#FF4E00" stroke-width="2" stroke-miterlimit="10" stroke-linecap="round" stroke-linejoin="round"/>
<path d="M14.6452 35.1235V33.479" stroke="#FF4E00" stroke-width="2" stroke-miterlimit="10" stroke-linecap="round" stroke-linejoin="round"/>
<path d="M20.9093 35.1235V33.479" stroke="#FF4E00" stroke-width="2" stroke-miterlimit="10" stroke-linecap="round" stroke-linejoin="round"/>
</g>
</g>
<defs>
<clipPath id="clip0_22_440">
<rect width="63" height="62" fill="white"/>
</clipPath>
</defs>
</svg>
