<svg width="58" height="58" viewBox="0 0 58 58" fill="none" xmlns="http://www.w3.org/2000/svg">
<g clip-path="url(#clip0_22_407)">
<path fill-rule="evenodd" clip-rule="evenodd" d="M46.8852 28.7832C46.5356 28.7832 46.2518 28.501 46.2518 28.1502C46.2518 27.8006 46.5353 27.5171 46.885 27.5171C47.2342 27.5171 47.5181 27.8007 47.5181 28.1502C47.5182 28.501 47.2344 28.7833 46.8852 28.7832Z" fill="#FF4E00"/>
<path fill-rule="evenodd" clip-rule="evenodd" d="M30.1455 28.7832C29.7959 28.7832 29.5121 28.501 29.5121 28.1502C29.5121 27.8006 29.7957 27.5171 30.1453 27.5171C30.4945 27.5171 30.7784 27.8007 30.7784 28.1502C30.7785 28.501 30.4948 28.7833 30.1455 28.7832Z" fill="#FF4E00"/>
<path fill-rule="evenodd" clip-rule="evenodd" d="M44.4184 27.743L54.4125 37.7383L56.4715 35.6793L46.4774 25.684L44.4184 27.743ZM54.4125 39.2656C54.2451 39.2656 54.0839 39.1998 53.9652 39.0811L43.0757 28.19C42.8279 27.9434 42.8277 27.5426 43.0757 27.2958L46.029 24.3412C46.2771 24.0933 46.6778 24.0933 46.9245 24.3413L57.8156 35.2308C57.9343 35.3495 58 35.5106 58 35.6793C58.0003 35.8468 57.9342 36.0078 57.8153 36.1265L54.861 39.081C54.7423 39.1998 54.5812 39.2657 54.4125 39.2656Z" fill="#FF4E00"/>
<path fill-rule="evenodd" clip-rule="evenodd" d="M20.5578 35.6793L22.6183 37.7383L32.6121 27.743L30.5531 25.684L20.5578 35.6793ZM22.6183 39.2656C22.4494 39.2656 22.2883 39.1998 22.1697 39.0811L19.2151 36.1263C18.9686 35.8784 18.9684 35.4789 19.2151 35.231L30.1062 24.3412C30.3528 24.0933 30.7537 24.0933 31.0003 24.3413L33.955 27.2957C34.0737 27.4144 34.1408 27.5755 34.1408 27.743C34.1408 27.9105 34.0736 28.0715 33.9548 28.1901L23.0653 39.081C22.9465 39.1998 22.7855 39.2657 22.6183 39.2656Z" fill="#FF4E00"/>
<path fill-rule="evenodd" clip-rule="evenodd" d="M46.9759 45.4278C46.8151 45.4278 46.6541 45.3671 46.5301 45.2459C46.2822 44.9992 46.2795 44.5982 46.5247 44.3502C47.6778 43.1842 48.126 42.3903 48.5139 41.4102L48.5456 41.3283C48.9228 40.3734 49.5546 38.7761 49.9648 37.9004C50.1141 37.5824 50.491 37.4466 50.8076 37.5956C51.1243 37.7433 51.26 38.1207 51.1123 38.4372C50.718 39.2773 50.0716 40.9143 49.7233 41.7941L49.6905 41.8757C49.1762 43.1776 48.5626 44.0904 47.4257 45.2405C47.3018 45.3658 47.1382 45.4278 46.9759 45.4278Z" fill="#FF4E00"/>
<path fill-rule="evenodd" clip-rule="evenodd" d="M37.7473 46.3683C37.3908 46.3683 37.0097 46.2496 36.6113 46.0122C36.2964 45.8235 35.8397 45.3513 35.0364 44.3793C34.4231 43.6379 33.4114 42.9877 32.5198 42.4126L32.5027 42.402C30.949 41.401 32.4816 38.6153 32.6608 38.3013C33.2716 37.2341 33.8111 36.4363 34.4112 35.7135C35.2199 34.7413 36.6008 34.0186 38.6333 33.5014C38.7969 33.4605 38.9604 33.4197 39.1253 33.3789C40.852 32.9487 42.4821 32.5427 43.6798 31.3185C43.9252 31.0693 44.3247 31.0653 44.5754 31.3093C44.8246 31.5547 44.8286 31.9557 44.5846 32.205C43.1364 33.6847 41.2529 34.153 39.4313 34.6069C39.2691 34.6477 39.1068 34.6886 38.9446 34.7296C37.1813 35.1766 36.0163 35.7636 35.3847 36.5234C34.8268 37.1959 34.34 37.9149 33.7596 38.9305C33.1742 39.954 32.8904 41.1465 33.1885 41.3377L33.2057 41.3482C34.1753 41.972 35.2739 42.6805 36.0111 43.5721C36.9041 44.6509 37.181 44.8765 37.2589 44.924C37.4953 45.0638 37.6982 45.1271 37.8156 45.0928C37.9318 45.0611 38.0332 44.9109 38.0938 44.804C38.3209 44.1708 38.3128 43.5892 38.0701 43.0273C38.065 43.014 38.0596 43.0022 38.0555 42.9903C37.8039 42.2926 37.098 41.6648 35.9584 41.1227C35.642 40.9721 35.5074 40.5951 35.6576 40.2785C35.8082 39.9632 36.1853 39.8287 36.5018 39.9791C37.9449 40.6649 38.8668 41.5277 39.2401 42.5419C39.6107 43.4125 39.6199 44.3357 39.2664 45.2867C39.256 45.3117 39.2453 45.3369 39.2322 45.3619C38.9646 45.867 38.603 46.1876 38.1584 46.3129C38.0253 46.3497 37.888 46.3683 37.7473 46.3683Z" fill="#FF4E00"/>
<path fill-rule="evenodd" clip-rule="evenodd" d="M51.9196 40.1834C51.7587 40.1834 51.5963 40.1214 51.4723 39.9974L42.1579 30.6826C41.9113 30.436 41.911 30.035 42.1576 29.7884L43.8631 28.0829C44.11 27.835 44.5108 27.835 44.7587 28.0829C45.0053 28.3295 45.0053 28.7306 44.7587 28.9786L43.5004 30.2356L51.9196 38.6546L53.1779 37.3976C53.4245 37.1495 53.8254 37.1497 54.0734 37.3977C54.3203 37.6443 54.32 38.0453 54.0734 38.2932L52.368 39.9973C52.244 40.1213 52.0817 40.1834 51.9196 40.1834Z" fill="#FF4E00"/>
<path fill-rule="evenodd" clip-rule="evenodd" d="M39.3709 52.9091C38.8551 52.9091 38.3405 52.714 37.9474 52.3223L36.9516 51.325C36.705 51.0784 36.7049 50.6775 36.9516 50.4295C37.1997 50.1827 37.6005 50.1829 37.8472 50.4295L38.8432 51.4267C39.1346 51.7167 39.6067 51.7169 39.8982 51.4267C40.038 51.2867 40.1146 51.0995 40.1146 50.8991C40.1146 50.6985 40.038 50.5113 39.8982 50.3714C39.6504 50.1247 39.6503 49.7238 39.8982 49.4772C40.1449 49.2292 40.5459 49.2292 40.7925 49.4759C41.1726 49.8556 41.3808 50.361 41.3808 50.8991C41.3809 51.4372 41.1724 51.9424 40.7938 52.321C40.401 52.7139 39.8864 52.9091 39.3709 52.9091Z" fill="#FF4E00"/>
<path fill-rule="evenodd" clip-rule="evenodd" d="M41.7371 51.3764C41.1989 51.3764 40.6935 51.1681 40.3149 50.7883L39.215 49.688C38.9672 49.4415 38.9669 49.0406 39.215 48.7925C39.4617 48.5458 39.8626 48.5459 40.1093 48.7925L41.2109 49.894C41.3507 50.0336 41.5377 50.1102 41.7369 50.1102C41.9376 50.1102 42.1247 50.0338 42.2645 49.894C42.4045 49.7541 42.4807 49.5668 42.4807 49.3664C42.481 49.1657 42.4043 48.9785 42.2645 48.8387C42.018 48.592 42.0178 48.1911 42.2645 47.9432C42.5124 47.6965 42.9121 47.6965 43.16 47.9444C43.5388 48.3229 43.747 48.8281 43.747 49.3664C43.7471 49.9044 43.5387 50.4096 43.16 50.7895C42.7816 51.168 42.2763 51.3764 41.7371 51.3764Z" fill="#FF4E00"/>
<path fill-rule="evenodd" clip-rule="evenodd" d="M44.5003 50.2399C43.9623 50.2399 43.4569 50.0315 43.0783 49.653L40.4113 46.9858C40.1635 46.7393 40.1634 46.3383 40.4113 46.0903C40.658 45.8436 41.0589 45.8436 41.3069 46.0903L43.9726 48.7573C44.1124 48.8971 44.2997 48.9737 44.5001 48.9737C44.701 48.9735 44.888 48.8971 45.0278 48.7573C45.3182 48.4671 45.3179 47.9936 45.0278 47.7034L42.4559 45.1314C42.2093 44.8847 42.209 44.4838 42.4557 44.2358C42.7039 43.9891 43.1046 43.9892 43.3514 44.2358L45.9236 46.8079C46.7071 47.5926 46.7069 48.8681 45.9233 49.653C45.5438 50.0313 45.0383 50.2399 44.5003 50.2399Z" fill="#FF4E00"/>
<path fill-rule="evenodd" clip-rule="evenodd" d="M46.4498 48.29C45.9118 48.29 45.4063 48.0817 45.0278 47.7031C44.7799 47.455 44.7798 47.0541 45.0278 46.8075C45.2745 46.5607 45.6754 46.5595 45.9233 46.8075C46.0634 46.9472 46.2505 47.0238 46.4497 47.0238C46.6504 47.0236 46.8374 46.9474 46.9772 46.8075C47.298 46.487 47.2015 46.0108 46.9495 45.7233L42.5428 40.7203C40.9271 41.8322 39.7372 41.4577 38.5686 40.4064C38.1876 40.8113 37.6824 41.314 37.4039 41.5092C37.118 41.7095 36.7234 41.641 36.5215 41.3548C36.3212 41.0698 36.3897 40.6742 36.6759 40.4737C36.953 40.2785 37.8551 39.3394 38.0384 39.1032C38.152 38.9581 38.322 38.8686 38.5067 38.8592C38.69 38.85 38.8694 38.9213 38.996 39.0544C40.2137 40.3298 40.8175 40.5397 42.2249 39.3723C42.4888 39.1546 42.8778 39.1851 43.1046 39.4423L47.9007 44.887C48.6445 45.7324 48.6326 46.942 47.8729 47.7031C47.4944 48.0816 46.9892 48.29 46.4498 48.29Z" fill="#FF4E00"/>
<path fill-rule="evenodd" clip-rule="evenodd" d="M25.1097 40.1834C24.9477 40.1834 24.7864 40.1214 24.6625 39.9974L22.9572 38.2932C22.7106 38.0453 22.7104 37.6443 22.957 37.3977C23.2052 37.1495 23.6059 37.1497 23.8527 37.3977L25.1097 38.6546L33.5289 30.2356L32.272 28.9786C32.0251 28.7306 32.0251 28.3296 32.2717 28.0829C32.5198 27.835 32.9208 27.835 33.1674 28.0829L34.8729 29.7871C35.1196 30.035 35.1195 30.436 34.8729 30.6827L25.5582 39.9973C25.4344 40.1213 25.2719 40.1834 25.1097 40.1834Z" fill="#FF4E00"/>
<path fill-rule="evenodd" clip-rule="evenodd" d="M38.4897 34.8273C38.3116 34.8273 38.1347 34.7534 38.0094 34.6082C36.8463 33.2562 36.3738 33.2933 35.6576 33.35C34.9006 33.4081 33.9574 33.4819 32.4023 32.4253C32.1136 32.2288 32.0383 31.8358 32.2348 31.5456C32.4314 31.2567 32.8245 31.1815 33.1147 31.3781C34.302 32.1852 34.9125 32.1378 35.5601 32.0864C36.6299 32.0032 37.5016 32.0758 38.9683 33.7812C39.1967 34.0464 39.1662 34.4461 38.9023 34.6742C38.7823 34.7771 38.6359 34.8273 38.4897 34.8273Z" fill="#FF4E00"/>
<path fill-rule="evenodd" clip-rule="evenodd" d="M29.1037 45.3369C28.9387 45.3369 28.7739 45.2723 28.6499 45.1456C27.2767 43.7329 26.984 42.3547 26.7016 41.0198C26.5289 40.2019 26.3495 39.3566 25.9183 38.4373C25.7707 38.1206 25.9064 37.7434 26.2229 37.5957C26.5396 37.4465 26.9167 37.5826 27.0644 37.9005C27.5578 38.9504 27.7608 39.9105 27.9402 40.7573C28.2081 42.0209 28.4389 43.1131 29.5573 44.262C29.8015 44.5124 29.7961 44.9134 29.5455 45.1575C29.4231 45.2775 29.2632 45.3369 29.1037 45.3369Z" fill="#FF4E00"/>
<path fill-rule="evenodd" clip-rule="evenodd" d="M36.589 49.2346C36.4243 49.2346 36.2578 49.2966 36.1325 49.4233L34.7634 50.791C34.513 51.043 34.5127 51.4532 34.7633 51.7051C35.0154 51.9571 35.4255 51.9571 35.6774 51.7051L37.0454 50.3358C37.1667 50.2146 37.2325 50.0525 37.2325 49.8796C37.2325 49.7055 37.1666 49.5432 37.0452 49.4233C36.9201 49.2966 36.7537 49.2347 36.589 49.2346ZM35.221 53.1586C34.7305 53.1586 34.2411 52.9727 33.8691 52.5994C33.1226 51.8542 33.1226 50.6408 33.8691 49.8955L35.2371 48.5276C35.9823 47.7825 37.1956 47.7825 37.9409 48.5277C38.301 48.8876 38.4988 49.3678 38.4988 49.8796C38.4989 50.3914 38.3009 50.8716 37.9409 51.2316L36.5732 52.5993C36.1999 52.9726 35.7103 53.1587 35.221 53.1586Z" fill="#FF4E00"/>
<path fill-rule="evenodd" clip-rule="evenodd" d="M33.4117 51.35C32.8998 51.35 32.4194 51.151 32.0594 50.7908C31.3144 50.0455 31.3141 48.8321 32.0594 48.0869L33.4285 46.7191C34.1738 45.9738 35.3872 45.9726 36.1324 46.7191C36.4928 47.0791 36.6904 47.5593 36.6904 48.0711C36.6906 48.5827 36.4925 49.0629 36.1324 49.4231C35.8846 49.6697 35.4835 49.6697 35.2369 49.4231C34.9905 49.1749 34.9902 48.774 35.2369 48.5275C35.3584 48.406 35.4241 48.2438 35.4241 48.0711C35.4244 47.8969 35.3582 47.7347 35.2369 47.6147C35.1157 47.4933 34.9533 47.426 34.7806 47.426C34.6065 47.426 34.4442 47.4933 34.3228 47.6147L32.9552 48.9824C32.7032 49.2343 32.7031 49.6433 32.955 49.8953C33.0766 50.0165 33.2385 50.0838 33.4114 50.0838C33.5855 50.0838 33.7478 50.0166 33.8691 49.8953C34.1158 49.6484 34.5167 49.6485 34.7633 49.8953C35.0115 50.1432 35.0114 50.5442 34.7633 50.7908C34.4034 51.1508 33.9232 51.35 33.4117 51.35Z" fill="#FF4E00"/>
<path fill-rule="evenodd" clip-rule="evenodd" d="M33.8759 47.7993C33.7134 47.7993 33.5513 47.7375 33.4286 47.6148C33.1808 47.3668 33.1806 46.9659 33.4286 46.7192C33.5487 46.5977 33.6159 46.4357 33.6159 46.2616C33.6159 46.0886 33.5486 45.9264 33.4286 45.8052C33.1766 45.5531 32.7664 45.5531 32.5145 45.8052C32.2679 46.053 31.8669 46.0531 31.619 45.8052C31.3722 45.5585 31.3722 45.1575 31.619 44.9096C32.3656 44.1642 33.5776 44.1643 34.3229 44.9096C34.6845 45.2695 34.8821 45.7497 34.8821 46.2616C34.8821 46.7732 34.6843 47.2534 34.3229 47.6148C34.2002 47.7374 34.0379 47.7995 33.8759 47.7993ZM31.6032 49.5406C31.0915 49.5406 30.6112 49.3427 30.2512 48.9826C29.5062 48.2372 29.5059 47.0238 30.2512 46.2786C30.4991 46.0307 30.8987 46.0307 31.1467 46.2786C31.3937 46.5253 31.3934 46.9263 31.1467 47.173C30.895 47.4248 30.8947 47.835 31.1467 48.087C31.268 48.2083 31.4303 48.2743 31.603 48.2743C31.7774 48.2742 31.9394 48.2083 32.0594 48.087C32.3078 47.8403 32.7083 47.8391 32.9551 48.087C33.203 48.3336 33.203 48.7347 32.9551 48.9826C32.595 49.3425 32.1148 49.5406 31.6032 49.5406Z" fill="#FF4E00"/>
<path fill-rule="evenodd" clip-rule="evenodd" d="M31.1627 43.8083C30.9977 43.8083 30.8314 43.8705 30.7062 43.9971L29.3385 45.3647C29.217 45.4861 29.1497 45.6485 29.1497 45.8212C29.15 45.9952 29.217 46.1576 29.3384 46.2788C29.4587 46.3988 29.6206 46.4663 29.7948 46.4663C29.9676 46.4663 30.1298 46.399 30.2512 46.2788L31.6192 44.9098C31.8709 44.6591 31.8709 44.249 31.619 43.9971C31.4933 43.8703 31.3288 43.8084 31.1627 43.8083ZM29.7949 47.7324C29.283 47.7324 28.8028 47.5345 28.4428 47.1733C28.0828 46.8143 27.8835 46.333 27.8835 45.8212C27.8836 45.3107 28.0827 44.8306 28.4428 44.4692L29.8106 43.1014C30.5558 42.3562 31.7694 42.3562 32.5145 43.1014C33.26 43.8467 33.2597 45.0602 32.5145 45.8055L31.1467 47.1745C30.7867 47.5345 30.3066 47.7324 29.7949 47.7324Z" fill="#FF4E00"/>
<path fill-rule="evenodd" clip-rule="evenodd" d="M28.4098 18.0587H12.0399C11.6903 18.0587 11.4066 17.7752 11.4066 17.4256C11.4068 17.076 11.6903 16.7926 12.0397 16.7926L28.4098 16.7925C28.7594 16.7925 29.043 17.0761 29.043 17.4256C29.0431 17.7751 28.7593 18.0587 28.4098 18.0587Z" fill="#FF4E00"/>
<path fill-rule="evenodd" clip-rule="evenodd" d="M32.9578 21.4617H7.4921C7.14249 21.4617 6.8587 21.1782 6.8587 20.8286C6.8587 20.4791 7.14235 20.1954 7.49183 20.1954L32.9578 20.1953C33.3072 20.1953 33.5908 20.4791 33.5908 20.8286C33.5908 21.1781 33.3072 21.4617 32.9578 21.4617Z" fill="#FF4E00"/>
<path fill-rule="evenodd" clip-rule="evenodd" d="M22.1144 27.2932H5.09791C4.7483 27.2932 4.46478 27.0097 4.46478 26.6601C4.46492 26.3105 4.7483 26.027 5.09791 26.027L22.1144 26.0269C22.464 26.0269 22.7474 26.3106 22.7474 26.6601C22.7474 27.0096 22.4637 27.2932 22.1144 27.2932Z" fill="#FF4E00"/>
<path fill-rule="evenodd" clip-rule="evenodd" d="M18.9487 31.2434H5.09791C4.7483 31.2434 4.46478 30.9599 4.46478 30.6104C4.46492 30.2608 4.7483 29.9773 5.09791 29.9773L18.9487 29.9771C19.2982 29.9771 19.5817 30.2608 19.5817 30.6104C19.582 30.9599 19.2982 31.2434 18.9487 31.2434Z" fill="#FF4E00"/>
<path fill-rule="evenodd" clip-rule="evenodd" d="M15.9415 35.1924H5.09791C4.7483 35.1924 4.46478 34.9102 4.46478 34.5594C4.46492 34.2098 4.7483 33.9263 5.09791 33.9263H15.9415C16.2911 33.9263 16.5745 34.2099 16.5745 34.5594C16.5745 34.9102 16.2908 35.1925 15.9415 35.1924Z" fill="#FF4E00"/>
<path fill-rule="evenodd" clip-rule="evenodd" d="M18.9487 39.1426H5.09791C4.7483 39.1426 4.46478 38.8604 4.46478 38.5096C4.46492 38.16 4.7483 37.8765 5.09791 37.8765H18.9487C19.2982 37.8765 19.5817 38.1601 19.5817 38.5096C19.582 38.8604 19.2982 39.1427 18.9487 39.1426Z" fill="#FF4E00"/>
<path fill-rule="evenodd" clip-rule="evenodd" d="M22.1144 43.0934H5.09791C4.7483 43.0934 4.46478 42.8099 4.46478 42.4603C4.46492 42.1107 4.7483 41.8271 5.09791 41.8271H22.1144C22.464 41.8271 22.7474 42.1108 22.7474 42.4603C22.7474 42.8099 22.4637 43.0934 22.1144 43.0934Z" fill="#FF4E00"/>
<path fill-rule="evenodd" clip-rule="evenodd" d="M5.73131 12.9584H34.7186V7.52957H5.73131V12.9584ZM35.3516 14.2248H5.09791C4.7483 14.2248 4.46478 13.9411 4.46478 13.5917L4.46492 6.89631C4.46492 6.5467 4.7483 6.26332 5.09791 6.26332L35.3516 6.26318C35.7012 6.26318 35.9847 6.54683 35.9847 6.89631L35.985 13.5915C35.985 13.941 35.7012 14.2248 35.3516 14.2248Z" fill="#FF4E00"/>
<path fill-rule="evenodd" clip-rule="evenodd" d="M14.8639 51.7356H5.09791C4.7483 51.7356 4.46478 51.4533 4.46478 51.1025C4.46492 50.7528 4.7483 50.4694 5.09791 50.4694L14.8639 50.4692C15.2135 50.4692 15.4968 50.753 15.4968 51.1025C15.4969 51.4532 15.2132 51.7356 14.8639 51.7356Z" fill="#FF4E00"/>
<path fill-rule="evenodd" clip-rule="evenodd" d="M6.58339 49.6647C6.52251 49.6647 6.46176 49.6556 6.39982 49.6372C6.06613 49.5368 5.87613 49.1846 5.97635 48.8496C6.61483 46.7206 7.3178 45.7434 8.25692 45.6788C9.02077 45.6286 9.61817 46.2367 10.0692 46.9581C11.3157 45.1458 12.6479 45.126 13.6028 45.4876C13.9301 45.6101 14.0948 45.9755 13.9721 46.3027C13.8484 46.6298 13.4828 46.796 13.1556 46.6719C12.7838 46.5321 11.7945 46.1576 10.6087 48.545C10.5008 48.7639 10.275 48.8998 10.0323 48.8971C9.7885 48.8931 9.568 48.7494 9.46645 48.5265C8.76227 46.9897 8.35058 46.9423 8.34402 46.9423C8.33867 46.9423 7.84148 47.036 7.18855 49.2137C7.10693 49.488 6.85486 49.6647 6.58339 49.6647Z" fill="#FF4E00"/>
<path fill-rule="evenodd" clip-rule="evenodd" d="M38.6782 56.4151H1.77147C0.795424 56.4151 0 55.6211 0 54.6451V3.35461C0 2.37856 0.79529 1.58461 1.77134 1.58461L38.6782 1.58447C39.6543 1.58447 40.4496 2.37856 40.4496 3.35474L40.4497 33.8616C40.4497 34.2112 40.1659 34.4948 39.8164 34.4948C39.4671 34.4947 39.1833 34.2112 39.1833 33.8617V3.35461C39.1833 3.07631 38.9564 2.85086 38.6781 2.85086H1.77147C1.49304 2.85086 1.26626 3.07631 1.26626 3.35474L1.26639 54.6451C1.26639 54.9233 1.49304 55.149 1.77134 55.149L38.6782 55.1488C38.9565 55.1488 39.1833 54.9234 39.1833 54.6451V52.2036C39.1833 51.8527 39.4668 51.5706 39.8164 51.5706C40.1662 51.5706 40.4496 51.8527 40.4496 52.2036L40.4497 54.6451C40.4497 55.621 39.6541 56.4152 38.6782 56.4151Z" fill="#FF4E00"/>
</g>
<defs>
<clipPath id="clip0_22_407">
<rect width="58" height="58" fill="white"/>
</clipPath>
</defs>
</svg>
