<svg width="227" height="241" viewBox="0 0 227 241" fill="none" xmlns="http://www.w3.org/2000/svg">
<g filter="url(#filter0_d_1_1105)">
<circle cx="132" cy="107" r="78.5" stroke="#FF4E00" shape-rendering="crispEdges"/>
</g>
<g filter="url(#filter1_f_1_1105)">
<circle cx="132" cy="107" r="74.5" stroke="#FF4E00"/>
</g>
<circle cx="132" cy="107" r="59" fill="#FF6420" fill-opacity="0.7"/>
<path d="M125.217 124.513C124.296 125.125 123.362 125.16 122.416 124.618C121.472 124.078 121 123.243 121 122.113V92.8875C121 91.758 121.472 90.9222 122.416 90.38C123.362 89.8398 124.296 89.8755 125.217 90.4873L147.756 105.1C148.585 105.665 149 106.465 149 107.5C149 108.536 148.585 109.336 147.756 109.901L125.217 124.513Z" fill="white"/>
<path d="M57.6706 51.2384L66.1301 42.1436L54.3381 31.1753L53.1602 32.4417L63.7681 42.3085L57.6644 48.8706L47.0565 39.0037L45.8786 40.2701L57.6706 51.2384Z" fill="white"/>
<path d="M41.6908 55.8192C40.6981 55.1621 40.0784 54.2671 39.8286 53.1591C39.5788 52.0511 39.7686 51.0319 40.376 50.1141C40.9835 49.1964 41.8475 48.6235 42.9744 48.4266C44.1013 48.2297 45.1517 48.4536 46.1444 49.1106C47.1371 49.7677 47.7536 50.6471 48.0034 51.7551C48.2531 52.8632 48.0728 53.8885 47.4653 54.8063C46.8579 55.7241 45.9845 56.2908 44.867 56.4938C43.7494 56.6969 42.6834 56.4762 41.6908 55.8192ZM47.0214 47.7652C45.6728 46.8727 44.2421 46.5722 42.7075 46.8763C41.1823 47.1867 39.9827 47.9818 39.1149 49.2929C38.2533 50.5946 37.9902 52.0096 38.3067 53.5255C38.6264 55.0569 39.462 56.2564 40.8106 57.149C42.1591 58.0416 43.5898 58.342 45.1244 58.0379C46.6528 57.7431 47.8525 56.948 48.714 55.6463C49.5818 54.3352 49.845 52.9202 49.5253 51.3888C49.2056 49.8573 48.3699 48.6578 47.0214 47.7652Z" fill="white"/>
<path d="M39.4288 59.6776C37.9948 58.98 36.537 58.8704 35.0506 59.3587C33.5691 59.837 32.5044 60.7678 31.8461 62.1211C31.6103 62.6058 31.4501 63.1149 31.3756 63.6531C31.3011 64.1914 31.276 64.6537 31.3154 65.035C31.3498 65.4264 31.4142 65.8074 31.5188 66.183C31.6184 66.5687 31.6916 66.829 31.7533 66.959C31.815 67.0889 31.8562 67.1839 31.8971 67.2537L33.3273 66.6756L33.0854 66.1458C32.9157 65.776 32.8247 65.2697 32.8026 64.622C32.7753 63.9593 32.9093 63.3501 33.1893 62.7744C33.651 61.8251 34.4174 61.1738 35.4936 60.8356C36.5698 60.4974 37.6458 60.5961 38.7163 61.1169C39.7868 61.6376 40.5287 62.4231 40.9269 63.4785C41.3252 64.534 41.296 65.5438 40.8343 66.4932C40.6525 66.8668 40.4151 67.2009 40.137 67.4902C39.8487 67.7747 39.5848 67.9835 39.3354 68.1369C39.0908 68.2802 38.8209 68.3987 38.5406 68.4871C38.2502 68.5706 38.0599 68.628 37.9647 68.6441C37.8544 68.6654 37.7843 68.6812 37.734 68.6817L38.2582 70.223L38.9441 70.0196C39.4048 69.8941 39.9738 69.5714 40.6313 69.067C41.2888 68.5626 41.8142 67.919 42.1925 67.1413C42.8458 65.7981 42.9058 64.3911 42.3724 62.9203C41.839 61.4494 40.8629 60.3752 39.4288 59.6776Z" fill="white"/>
<path d="M33.288 81.8292L25.5169 79.3253L25.0243 80.8539L35.5319 84.2395L35.9211 83.0316L32.0125 77.1824L38.6007 74.7153L38.9864 73.5181L28.4788 70.1325L27.9863 71.6611L35.7575 74.165L29.7036 76.4385L33.288 81.8292Z" fill="white"/>
<path d="M27.796 95.6836C26.6218 95.4877 25.6913 94.9227 25.012 94.0124C24.3326 93.1021 24.0909 92.094 24.2719 91.0084C24.453 89.9228 25.0088 89.0477 25.9579 88.409C26.9069 87.7703 27.9575 87.547 29.1317 87.7429C30.3059 87.9387 31.2272 88.4908 31.9065 89.4011C32.5858 90.3114 32.8386 91.3214 32.6576 92.407C32.4765 93.4925 31.9096 94.3658 30.9716 95.0063C30.0337 95.6469 28.9702 95.8794 27.796 95.6836ZM29.3848 86.1569C27.7897 85.8909 26.3606 86.1991 25.0829 87.1018C23.8163 88.0063 23.0444 89.2211 22.7857 90.7719C22.5289 92.3117 22.8648 93.7112 23.7712 94.9668C24.6868 96.2352 25.9385 96.9905 27.5336 97.2566C29.1288 97.5226 30.5578 97.2144 31.8356 96.3117C33.1114 95.4201 33.8833 94.2054 34.1401 92.6656C34.3988 91.1148 34.0629 89.7152 33.1473 88.4467C32.2317 87.1782 30.98 86.423 29.3848 86.1569Z" fill="white"/>
<path d="M31.3456 100.05L31.1972 103.956L21.6582 103.593L21.5972 105.198L31.1362 105.56L30.9877 109.466L32.4803 109.523L32.8382 100.107L31.3456 100.05Z" fill="white"/>
<path d="M27.1588 114.181C28.2885 114.079 29.3079 114.383 30.2302 115.112C31.1525 115.841 31.6578 116.698 31.747 117.693C31.8312 118.633 31.4935 119.52 30.7329 120.344C29.9723 121.167 29.0109 121.637 27.8364 121.742C26.6619 121.847 25.6323 121.556 24.7374 120.881C23.8425 120.206 23.3636 119.392 23.2794 118.452C23.1902 117.457 23.5239 116.525 24.3018 115.643C25.0798 114.762 26.029 114.282 27.1588 114.181ZM23.3892 114.518L23.1907 114.694C23.0665 114.818 22.9128 114.99 22.7426 115.23C22.5725 115.471 22.4054 115.745 22.2535 116.063C22.0894 116.371 21.9659 116.754 21.8708 117.203C21.7757 117.651 21.7496 118.116 21.7917 118.585C21.918 119.995 22.5876 121.175 23.8004 122.126C25.0132 123.078 26.4138 123.482 27.9797 123.342C29.5457 123.201 30.8511 122.543 31.8754 121.391C32.9109 120.239 33.36 118.958 33.2347 117.56C33.1926 117.09 33.0843 116.638 32.91 116.202C32.7357 115.767 32.547 115.423 32.343 115.159C32.138 114.884 31.9136 114.645 31.6678 114.419C31.422 114.193 31.2514 114.051 31.1549 113.98C31.0584 113.91 30.9751 113.861 30.9283 113.843L32.6509 113.688L32.5076 112.089L16.7023 113.505L16.8456 115.105L23.3892 114.518Z" fill="white"/>
<path d="M30.2319 136.563L31.0671 136.487C32.6216 136.131 33.7896 135.345 34.5821 134.127C35.3746 132.908 35.6084 131.564 35.2725 130.097C34.9467 128.674 34.1186 127.573 32.7833 126.773C31.4479 125.973 30.0164 125.759 28.4619 126.115C26.9074 126.471 25.7031 127.3 24.8516 128.612C23.9975 129.914 23.7518 131.307 24.0877 132.774C24.2105 133.31 24.4075 133.818 24.6895 134.295C24.9715 134.772 25.2419 135.148 25.5141 135.431C25.7864 135.714 26.073 135.96 26.39 136.187C26.7069 136.414 26.9222 136.549 27.0517 136.611C27.1812 136.674 27.2729 136.722 27.3486 136.751L28.1251 135.513L27.5995 135.23C27.2379 135.059 26.847 134.711 26.4211 134.209C25.9818 133.699 25.6966 133.108 25.5437 132.44C25.3131 131.433 25.4654 130.488 26.0065 129.581C26.5367 128.676 27.2894 128.089 28.2511 127.811L30.2319 136.563ZM33.8056 130.433C34.0212 131.375 33.8867 132.247 33.4046 133.06C32.9226 133.873 32.2028 134.452 31.267 134.793L29.5976 127.503C30.5338 127.415 31.4173 127.65 32.2455 128.198C33.0627 128.748 33.5901 129.492 33.8056 130.433Z" fill="white"/>
<path d="M35.3506 137.439L36.6821 141.113L27.7074 144.366L28.2546 145.876L37.2293 142.623L38.5609 146.297L39.9652 145.789L36.7548 136.93L35.3506 137.439Z" fill="white"/>
<path d="M33.3015 154.008L37.1999 152.037L38.4975 154.602C38.8269 155.254 38.9101 155.866 38.747 156.439C38.5839 157.013 38.2142 157.451 37.643 157.74C37.0617 158.034 36.4893 158.072 35.9309 157.863C35.3724 157.655 34.9335 157.235 34.6092 156.594L33.3015 154.008ZM38.3577 159.178C39.3399 158.682 39.9794 157.955 40.2563 157.01C40.5333 156.064 40.3879 155.03 39.8304 153.928L38.5328 151.362L41.8199 149.7L41.0952 148.267L31.2438 153.249L33.2763 157.268C33.8338 158.37 34.5754 159.09 35.5011 159.427C36.4217 159.755 37.3756 159.675 38.3577 159.178Z" fill="white"/>
<path d="M49.6724 163.334L40.8965 170.032L44.1056 174.237C44.7869 175.129 45.5415 175.655 46.3873 175.801C47.2173 175.945 48.033 175.718 48.8276 175.111C49.149 174.866 49.4027 174.588 49.5888 174.276C49.7659 173.971 49.8738 173.705 49.9212 173.471C49.9687 173.237 49.9689 172.997 49.9466 172.746C49.9243 172.494 49.8982 172.331 49.8705 172.239C49.8338 172.154 49.8176 172.095 49.8082 172.046L50.1891 172.193C50.4414 172.283 50.7987 172.307 51.2385 172.254C51.6783 172.201 52.1015 172.034 52.4764 171.747C53.1371 171.243 53.4977 170.587 53.5583 169.777C53.6189 168.968 53.3515 168.155 52.7383 167.352L49.6724 163.334ZM48.2212 171.096C48.6027 171.596 48.7618 172.082 48.7162 172.54C48.6617 173.006 48.4068 173.412 47.9426 173.767C47.4783 174.121 47.0101 174.266 46.5557 174.189C46.0924 174.119 45.6745 173.83 45.2929 173.33L43.0582 170.402L45.9864 168.167L48.2212 171.096ZM51.4128 170.539C50.6183 171.145 49.8712 170.981 49.1762 170.07L47.0845 167.329L49.4593 165.517L51.551 168.258C52.2459 169.169 52.1985 169.939 51.4128 170.539Z" fill="white"/>
<path d="M63.2501 178.912L52.6822 180.064L58.5261 174.202L57.3888 173.068L49.5943 180.886L50.5646 181.854L61.1325 180.702L55.2887 186.564L56.4339 187.705L64.2284 179.888L63.2501 178.912Z" fill="white"/>
<path d="M69.5362 196.194L68.1588 195.148L73.9316 187.545L67.8944 182.961L65.9452 185.528C65.4562 186.172 64.9181 186.751 64.3626 187.259C63.807 187.768 63.3218 188.147 62.907 188.396C62.4923 188.645 62.0957 188.852 61.6859 189.02C61.2761 189.188 60.9926 189.283 60.8531 189.318C60.7136 189.354 60.6192 189.366 60.5563 189.375L59.9212 188.893L57.3472 192.283L58.6262 193.254L60.2969 191.054L67.3539 196.412L65.6831 198.612L66.9621 199.584L69.5362 196.194ZM68.2701 185.122L71.7493 187.764L66.8798 194.177L61.9337 190.421L62.6875 190.19C63.1871 190.033 63.8768 189.626 64.7567 188.969C65.6388 188.327 66.4546 187.494 67.2152 186.492L68.2701 185.122Z" fill="white"/>
<path d="M82.9653 200.021L83.4709 199.352C84.2533 197.962 84.4576 196.569 84.0893 195.163C83.7209 193.757 82.8839 192.68 81.5726 191.942C80.3004 191.226 78.9289 191.098 77.4384 191.548C75.948 191.997 74.8269 192.913 74.0445 194.302C73.2621 195.692 73.0651 197.14 73.4634 198.653C73.8518 200.161 74.717 201.28 76.0283 202.018C76.5078 202.288 77.0161 202.484 77.5587 202.596C78.1013 202.708 78.5613 202.761 78.9541 202.75C79.3468 202.739 79.7213 202.692 80.1024 202.611C80.4836 202.529 80.7283 202.46 80.8617 202.406C80.9951 202.353 81.0924 202.317 81.1646 202.281L80.7712 200.873L80.2083 201.072C79.8387 201.225 79.3181 201.28 78.6604 201.257C77.9875 201.239 77.3581 201.052 76.7611 200.716C75.8608 200.209 75.2641 199.461 74.9567 198.45C74.6439 197.449 74.7159 196.497 75.1573 195.599L82.9653 200.021ZM80.8342 193.253C81.6758 193.727 82.2304 194.413 82.5078 195.317C82.7852 196.221 82.7297 197.143 82.3525 198.065L75.8351 194.395C76.4 193.644 77.1686 193.148 78.131 192.904C79.0879 192.67 79.9926 192.779 80.8342 193.253Z" fill="white"/>
<path d="M95.0489 204.406C94.6134 205.514 93.8674 206.306 92.8358 206.782C91.8043 207.257 90.7679 207.284 89.7436 206.882C88.7193 206.479 87.9788 205.753 87.5512 204.692C87.1236 203.631 87.1234 202.557 87.5589 201.449C87.9944 200.342 88.7259 199.555 89.7574 199.08C90.789 198.604 91.8294 198.567 92.8537 198.969C93.878 199.372 94.6144 200.108 95.0461 201.159C95.4779 202.209 95.4844 203.298 95.0489 204.406ZM86.0602 200.872C85.4686 202.377 85.4731 203.839 86.0907 205.277C86.7124 206.704 87.7403 207.711 89.2036 208.286C90.6564 208.857 92.0951 208.82 93.5116 208.194C94.9426 207.562 95.9415 206.494 96.5331 204.989C97.1247 203.484 97.1201 202.022 96.5025 200.585C95.8954 199.151 94.8675 198.144 93.4147 197.573C91.9514 196.998 90.5127 197.036 89.0816 197.668C87.6506 198.3 86.6518 199.367 86.0602 200.872Z" fill="white"/>
<path d="M113.645 211.359L116.098 209.34L119.323 215.176L121.151 215.399L117.264 208.317L122.033 204.385L120.082 204.147L113.897 209.297L114.608 203.478L113.014 203.283L111.675 214.241L113.269 214.436L113.645 211.359Z" fill="white"/>
<path d="M133.668 209.95C133.679 211.14 133.284 212.154 132.506 212.981C131.727 213.809 130.777 214.222 129.676 214.232C128.576 214.242 127.617 213.847 126.823 213.023C126.03 212.199 125.627 211.203 125.616 210.013C125.605 208.822 125.989 207.819 126.768 206.992C127.546 206.165 128.497 205.741 129.597 205.731C130.698 205.721 131.656 206.127 132.45 206.94C133.244 207.752 133.657 208.759 133.668 209.95ZM124.011 210.039C124.026 211.656 124.577 213.01 125.688 214.111C126.799 215.202 128.129 215.751 129.701 215.737C131.262 215.722 132.582 215.148 133.661 214.038C134.752 212.916 135.278 211.552 135.263 209.935C135.248 208.318 134.696 206.964 133.586 205.862C132.486 204.761 131.156 204.211 129.595 204.226C128.022 204.24 126.703 204.814 125.612 205.936C124.522 207.058 123.996 208.422 124.011 210.039Z" fill="white"/>
<path d="M148.21 205.464L149.502 213.525L151.087 213.271L149.341 202.371L148.088 202.572L144.647 208.707L139.461 203.954L138.219 204.153L139.965 215.053L141.551 214.799L140.259 206.738L145.03 211.103L148.21 205.464Z" fill="white"/>
<path d="M163.885 209.578L165.426 209.09L162.094 198.566L152.993 201.447L156.326 211.972L157.857 211.487L154.982 202.408L161.01 200.499L163.885 209.578Z" fill="white"/>
<path d="M169.92 200.337C169.053 200.946 168.49 201.622 168.233 202.365C167.965 203.113 168.038 203.898 168.432 204.731C168.792 205.492 169.444 206.004 170.403 206.271C171.361 206.538 172.343 206.434 173.338 205.963C173.734 205.776 174.096 205.543 174.419 205.254C174.747 204.974 174.993 204.709 175.16 204.456C175.316 204.208 175.457 203.955 175.574 203.676C175.69 203.398 175.755 203.218 175.782 203.118C175.809 203.018 175.821 202.938 175.832 202.883L176.471 204.234L177.923 203.547L174.922 197.202C174.408 196.115 173.601 195.379 172.499 194.993C171.402 194.618 170.29 194.684 169.153 195.222C168.706 195.433 168.293 195.715 167.929 196.049C167.565 196.382 167.292 196.698 167.105 196.985C166.923 197.283 166.76 197.595 166.617 197.924C166.474 198.252 166.394 198.477 166.361 198.591C166.329 198.706 166.312 198.801 166.295 198.871L167.671 199.364L167.817 198.859C167.905 198.52 168.125 198.118 168.477 197.653C168.829 197.189 169.269 196.832 169.796 196.582C170.527 196.236 171.237 196.187 171.92 196.423C172.608 196.669 173.125 197.157 173.47 197.888L169.92 200.337ZM172.7 204.613C172.05 204.92 171.465 205.023 170.96 204.901C170.456 204.78 170.095 204.491 169.884 204.044C169.442 203.11 169.793 202.223 170.927 201.389L174.061 199.137L174.358 199.767C174.824 200.751 174.899 201.697 174.578 202.595C174.261 203.502 173.634 204.171 172.7 204.613Z" fill="white"/>
<path d="M189.209 196.716L190.566 195.836L184.563 186.572L183.206 187.452L185.771 191.41L180.465 194.849L177.9 190.89L176.552 191.764L182.556 201.028L183.903 200.155L181.277 196.102L186.583 192.663L189.209 196.716Z" fill="white"/>
<path d="M194.129 178.639L194.544 189.262L189.102 183.025L187.892 184.081L195.15 192.399L196.182 191.498L195.767 180.876L201.209 187.113L202.427 186.049L195.169 177.731L194.129 178.639Z" fill="white"/>
<path d="M203.516 168.524L205.436 178.979L199.164 173.579L198.116 174.796L206.482 181.999L207.376 180.96L205.456 170.505L211.728 175.905L212.784 174.679L204.417 167.477L203.516 168.524Z" fill="white"/>
<defs>
<filter id="filter0_d_1_1105" x="37.0002" y="12" width="190" height="190" filterUnits="userSpaceOnUse" color-interpolation-filters="sRGB">
<feFlood flood-opacity="0" result="BackgroundImageFix"/>
<feColorMatrix in="SourceAlpha" type="matrix" values="0 0 0 0 0 0 0 0 0 0 0 0 0 0 0 0 0 0 127 0" result="hardAlpha"/>
<feMorphology radius="3" operator="dilate" in="SourceAlpha" result="effect1_dropShadow_1_1105"/>
<feOffset/>
<feGaussianBlur stdDeviation="6.5"/>
<feComposite in2="hardAlpha" operator="out"/>
<feColorMatrix type="matrix" values="0 0 0 0 1 0 0 0 0 0.305882 0 0 0 0 0 0 0 0 1 0"/>
<feBlend mode="normal" in2="BackgroundImageFix" result="effect1_dropShadow_1_1105"/>
<feBlend mode="normal" in="SourceGraphic" in2="effect1_dropShadow_1_1105" result="shape"/>
</filter>
<filter id="filter1_f_1_1105" x="53.0002" y="28" width="158" height="158" filterUnits="userSpaceOnUse" color-interpolation-filters="sRGB">
<feFlood flood-opacity="0" result="BackgroundImageFix"/>
<feBlend mode="normal" in="SourceGraphic" in2="BackgroundImageFix" result="shape"/>
<feGaussianBlur stdDeviation="2" result="effect1_foregroundBlur_1_1105"/>
</filter>
</defs>
</svg>
