<svg height="158" width="158" viewBox="0 0 158 158" fill="none" xmlns="http://www.w3.org/2000/svg">
    <g filter="url(#filter0_f_305_2)">
    <circle cx="79" cy="79" r="74.5" stroke="#25D366"/>
    </g>
    <circle cx="79" cy="79" r="59" fill="#25D366"/>
    <path d="M92.25 80.9534H79.9583V93.2451C79.9583 93.8971 79.6993 94.5224 79.2383 94.9834C78.7773 95.4444 78.152 95.7034 77.5 95.7034C76.848 95.7034 76.2227 95.4444 75.7617 94.9834C75.3007 94.5224 75.0417 93.8971 75.0417 93.2451V80.9534H62.75C62.098 80.9534 61.4727 80.6944 61.0117 80.2334C60.5507 79.7724 60.2917 79.1471 60.2917 78.4951C60.2917 77.8431 60.5507 77.2178 61.0117 76.7568C61.4727 76.2957 62.098 76.0367 62.75 76.0367H75.0417V63.7451C75.0417 63.0931 75.3007 62.4678 75.7617 62.0068C76.2227 61.5457 76.848 61.2867 77.5 61.2867C78.152 61.2867 78.7773 61.5457 79.2383 62.0068C79.6993 62.4678 79.9583 63.0931 79.9583 63.7451V76.0367H92.25C92.902 76.0367 93.5273 76.2957 93.9883 76.7568C94.4493 77.2178 94.7083 77.8431 94.7083 78.4951C94.7083 79.1471 94.4493 79.7724 93.9883 80.2334C93.5273 80.6944 92.902 80.9534 92.25 80.9534Z" fill="white"/>
    <defs>
        <filter id="filter0_f_305_2" x="0" y="0" width="158" height="158" filterUnits="userSpaceOnUse" color-interpolation-filters="sRGB">
        <feFlood flood-opacity="0" result="BackgroundImageFix"/>
        <feBlend mode="normal" in="SourceGraphic" in2="BackgroundImageFix" result="shape"/>
        <feGaussianBlur stdDeviation="2" result="effect1_foregroundBlur_305_2"/>
        </filter>
    </defs>
</svg>