<svg width="216" height="130" viewBox="0 0 216 130" fill="none" xmlns="http://www.w3.org/2000/svg">
<path d="M50.8067 54.5916H25.2595V60.8679H50.8067V54.5916Z" fill="white"/>
<path d="M50.9727 61.0152H25.1126V54.4259H50.9727V61.0152ZM25.4255 60.7023H50.6598V54.7388H25.4255V60.7023Z" fill="#D6D2D2"/>
<path d="M63.3228 60.8679H38.3094V67.1443H63.3228V60.8679Z" fill="white"/>
<path d="M63.47 67.2915H38.1436V60.7023H63.47V67.2915ZM38.4565 66.9786H63.1571V61.0152H38.4565V66.9786Z" fill="#D6D2D2"/>
<path d="M38.2907 60.8679H12.7435V67.1443H38.2907V60.8679Z" fill="white"/>
<path d="M38.4567 67.2915H12.5966V60.7023H38.4567V67.2915ZM12.9095 66.9786H38.1438V61.0152H12.9095V66.9786Z" fill="#D6D2D2"/>
<path d="M101.367 54.5916H75.8202V60.8679H101.367V54.5916Z" fill="white"/>
<path d="M101.533 61.0152H75.6732V54.4259H101.533V61.0152ZM75.9861 60.7023H101.22V54.7388H75.9861V60.7023Z" fill="#D6D2D2"/>
<path d="M113.883 60.8679H88.87V67.1443H113.883V60.8679Z" fill="white"/>
<path d="M114.031 67.2915H88.7042V60.7023H114.031V67.2915ZM89.0171 66.9786H113.718V61.0152H89.0171V66.9786Z" fill="#D6D2D2"/>
<path d="M75.8205 54.5916H50.807V60.8679H75.8205V54.5916Z" fill="white"/>
<path d="M75.9675 61.0152H50.6412V54.4259H75.9675V61.0152ZM50.9541 60.7023H75.6546V54.7388H50.9541V60.7023Z" fill="#D6D2D2"/>
<path d="M88.8518 60.8679H63.3046V67.1443H88.8518V60.8679Z" fill="white"/>
<path d="M89.0173 67.2915H63.1572V60.7023H89.0173V67.2915ZM63.4701 66.9786H88.7044V61.0152H63.4701V66.9786Z" fill="#D6D2D2"/>
<path d="M50.8067 42.0573H25.2595V48.3336H50.8067V42.0573Z" fill="white"/>
<path d="M50.9727 48.4809H25.1126V41.8916H50.9727V48.4809ZM25.4255 48.168H50.6598V42.2045H25.4255V48.168Z" fill="#D6D2D2"/>
<path d="M63.3228 48.3152H38.3094V54.5916H63.3228V48.3152Z" fill="white"/>
<path d="M63.47 54.7388H38.1436V48.1495H63.47V54.7388ZM38.4565 54.4259H63.1571V48.4624H38.4565V54.4259Z" fill="#D6D2D2"/>
<path d="M25.2598 42.0573H0.246399V48.3336H25.2598V42.0573Z" fill="white"/>
<path d="M25.4069 48.4809H0.0805664V41.8916H25.4069V48.4809ZM0.393461 48.168H25.094V42.2045H0.393461V48.168Z" fill="#D6D2D2"/>
<path d="M38.2907 48.3152H12.7435V54.5916H38.2907V48.3152Z" fill="white"/>
<path d="M38.4567 54.7388H12.5966V48.1495H38.4567V54.7388ZM12.9095 54.4259H38.1438V48.4624H12.9095V54.4259Z" fill="#D6D2D2"/>
<path d="M101.367 42.0573H75.8202V48.3336H101.367V42.0573Z" fill="white"/>
<path d="M101.533 48.4809H75.6732V41.8916H101.533V48.4809ZM75.9861 48.168H101.22V42.2045H75.9861V48.168Z" fill="#D6D2D2"/>
<path d="M113.883 48.3152H88.87V54.5916H113.883V48.3152Z" fill="white"/>
<path d="M114.031 54.7388H88.7042V48.1495H114.031V54.7388ZM89.0171 54.4259H113.718V48.4624H89.0171V54.4259Z" fill="#D6D2D2"/>
<path d="M75.8205 42.0573H50.807V48.3336H75.8205V42.0573Z" fill="white"/>
<path d="M75.9675 48.4809H50.6412V41.8916H75.9675V48.4809ZM50.9541 48.168H75.6546V42.2045H50.9541V48.168Z" fill="#D6D2D2"/>
<path d="M88.8518 48.3152H63.3046V54.5916H88.8518V48.3152Z" fill="white"/>
<path d="M89.0173 54.7388H63.1572V48.1495H89.0173V54.7388ZM63.4701 54.4259H88.7044V48.4624H63.4701V54.4259Z" fill="#D6D2D2"/>
<path d="M50.8067 79.6786H25.2595V85.955H50.8067V79.6786Z" fill="white"/>
<path d="M50.9727 86.1022H25.1126V79.5129H50.9727V86.1022ZM25.4255 85.7893H50.6598V79.8258H25.4255V85.7893Z" fill="#D6D2D2"/>
<path d="M63.3228 85.955H38.3094V92.2313H63.3228V85.955Z" fill="white"/>
<path d="M63.47 92.3786H38.1436V85.7893H63.47V92.3786ZM38.4565 92.0657H63.1571V86.1022H38.4565V92.0657Z" fill="#D6D2D2"/>
<path d="M25.2598 79.6786H0.246399V85.955H25.2598V79.6786Z" fill="white"/>
<path d="M25.4069 86.1022H0.0805664V79.5129H25.4069V86.1022ZM0.393461 85.7893H25.094V79.8258H0.393461V85.7893Z" fill="#D6D2D2"/>
<path d="M38.2907 85.955H12.7435V92.2313H38.2907V85.955Z" fill="white"/>
<path d="M38.4567 92.3786H12.5966V85.7893H38.4567V92.3786ZM12.9095 92.0657H38.1438V86.1022H12.9095V92.0657Z" fill="#D6D2D2"/>
<path d="M101.367 79.6786H75.8202V85.955H101.367V79.6786Z" fill="white"/>
<path d="M101.533 86.1022H75.6732V79.5129H101.533V86.1022ZM75.9861 85.7893H101.22V79.8258H75.9861V85.7893Z" fill="#D6D2D2"/>
<path d="M113.883 85.955H88.87V92.2313H113.883V85.955Z" fill="white"/>
<path d="M114.031 92.3786H88.7042V85.7893H114.031V92.3786ZM89.0171 92.0657H113.718V86.1022H89.0171V92.0657Z" fill="#D6D2D2"/>
<path d="M75.8205 79.6786H50.807V85.955H75.8205V79.6786Z" fill="white"/>
<path d="M75.9675 86.1022H50.6412V79.5129H75.9675V86.1022ZM50.9541 85.7893H75.6546V79.8258H50.9541V85.7893Z" fill="#D6D2D2"/>
<path d="M88.8702 85.955H63.323V92.2313H88.8702V85.955Z" fill="white"/>
<path d="M89.0173 92.3786H63.1572V85.7893H89.0173V92.3786ZM63.4701 92.0657H88.7044V86.1022H63.4701V92.0657Z" fill="#D6D2D2"/>
<path d="M50.8067 67.1443H25.2595V73.4207H50.8067V67.1443Z" fill="white"/>
<path d="M50.9727 73.5679H25.1126V66.9786H50.9727V73.5679ZM25.4255 73.255H50.6598V67.2915H25.4255V73.255Z" fill="#D6D2D2"/>
<path d="M63.3228 73.4022H38.3094V79.6786H63.3228V73.4022Z" fill="white"/>
<path d="M63.47 79.8258H38.1436V73.2366H63.47V79.8258ZM38.4565 79.5129H63.1571V73.5495H38.4565V79.5129Z" fill="#D6D2D2"/>
<path d="M25.2598 67.1259H0.246399V73.4022H25.2598V67.1259Z" fill="white"/>
<path d="M25.4069 73.5679H0.0805664V66.9786H25.4069V73.5679ZM0.393461 73.255H25.094V67.2915H0.393461V73.255Z" fill="#D6D2D2"/>
<path d="M38.2907 73.4022H12.7435V79.6786H38.2907V73.4022Z" fill="white"/>
<path d="M38.4567 79.8258H12.5966V73.2366H38.4567V79.8258ZM12.9095 79.5129H38.1438V73.5495H12.9095V79.5129Z" fill="#D6D2D2"/>
<path d="M101.367 67.1443H75.8202V73.4207H101.367V67.1443Z" fill="white"/>
<path d="M101.533 73.5679H75.6732V66.9786H101.533V73.5679ZM75.9861 73.255H101.22V67.2915H75.9861V73.255Z" fill="#D6D2D2"/>
<path d="M113.883 73.4022H88.87V79.6786H113.883V73.4022Z" fill="white"/>
<path d="M114.031 79.8258H88.7042V73.2366H114.031V79.8258ZM89.0171 79.5129H113.718V73.5495H89.0171V79.5129Z" fill="#D6D2D2"/>
<path d="M75.8205 67.1443H50.807V73.4207H75.8205V67.1443Z" fill="white"/>
<path d="M75.9675 73.5679H50.6412V66.9786H75.9675V73.5679ZM50.9541 73.255H75.6546V67.2915H50.9541V73.255Z" fill="#D6D2D2"/>
<path d="M88.8702 73.4022H63.323V79.6786H88.8702V73.4022Z" fill="white"/>
<path d="M89.0173 79.8258H63.1572V73.2366H89.0173V79.8258ZM63.4701 79.5129H88.7044V73.5495H63.4701V79.5129Z" fill="#D6D2D2"/>
<path d="M151.928 54.5916H126.381V60.8679H151.928V54.5916Z" fill="white"/>
<path d="M152.094 61.0152H126.234V54.4259H152.094V61.0152ZM126.547 60.7023H151.781V54.7388H126.547V60.7023Z" fill="#D6D2D2"/>
<path d="M164.444 60.8679H139.431V67.1443H164.444V60.8679Z" fill="white"/>
<path d="M164.592 67.2915H139.265V60.7023H164.592V67.2915ZM139.578 66.9786H164.279V61.0152H139.578V66.9786Z" fill="#D6D2D2"/>
<path d="M126.381 54.5916H101.368V60.8679H126.381V54.5916Z" fill="white"/>
<path d="M126.547 61.0152H101.22V54.4259H126.547V61.0152ZM101.533 60.7023H126.234V54.7388H101.533V60.7023Z" fill="#D6D2D2"/>
<path d="M139.431 60.8679H113.884V67.1443H139.431V60.8679Z" fill="white"/>
<path d="M139.596 67.2915H113.736V60.7023H139.596V67.2915ZM114.049 66.9786H139.283V61.0152H114.049V66.9786Z" fill="#D6D2D2"/>
<path d="M202.489 54.5916H176.942V60.8679H202.489V54.5916Z" fill="white"/>
<path d="M202.655 61.0152H176.794V54.4259H202.655V61.0152ZM177.107 60.7023H202.342V54.7388H177.107V60.7023Z" fill="#D6D2D2"/>
<path d="M176.96 54.5916H151.947V60.8679H176.96V54.5916Z" fill="white"/>
<path d="M177.107 61.0152H151.781V54.4259H177.107V61.0152ZM152.094 60.7023H176.794V54.7388H152.094V60.7023Z" fill="#D6D2D2"/>
<path d="M189.991 60.8679H164.444V67.1443H189.991V60.8679Z" fill="white"/>
<path d="M190.157 67.2915H164.297V60.7023H190.157V67.2915ZM164.61 66.9786H189.844V61.0152H164.61V66.9786Z" fill="#D6D2D2"/>
<path d="M151.928 42.0573H126.381V48.3336H151.928V42.0573Z" fill="white"/>
<path d="M152.094 48.4809H126.234V41.8916H152.094V48.4809ZM126.547 48.168H151.781V42.2045H126.547V48.168Z" fill="#D6D2D2"/>
<path d="M164.444 48.3152H139.431V54.5916H164.444V48.3152Z" fill="white"/>
<path d="M164.592 54.7388H139.265V48.1495H164.592V54.7388ZM139.578 54.4259H164.279V48.4624H139.578V54.4259Z" fill="#D6D2D2"/>
<path d="M126.381 42.0573H101.368V48.3336H126.381V42.0573Z" fill="white"/>
<path d="M126.547 48.4809H101.22V41.8916H126.547V48.4809ZM101.533 48.168H126.234V42.2045H101.533V48.168Z" fill="#D6D2D2"/>
<path d="M139.431 48.3152H113.884V54.5916H139.431V48.3152Z" fill="white"/>
<path d="M139.596 54.7388H113.736V48.1495H139.596V54.7388ZM114.049 54.4259H139.283V48.4624H114.049V54.4259Z" fill="#D6D2D2"/>
<path d="M202.489 42.0573H176.942V48.3336H202.489V42.0573Z" fill="white"/>
<path d="M202.655 48.4809H176.794V41.8916H202.655V48.4809ZM177.107 48.168H202.342V42.2045H177.107V48.168Z" fill="#D6D2D2"/>
<path d="M215.005 48.3152H189.991V54.5916H215.005V48.3152Z" fill="white"/>
<path d="M215.171 54.7388H189.844V48.1495H215.171V54.7388ZM190.157 54.4259H214.858V48.4624H190.157V54.4259Z" fill="#D6D2D2"/>
<path d="M176.96 42.0573H151.947V48.3336H176.96V42.0573Z" fill="white"/>
<path d="M177.107 48.4809H151.781V41.8916H177.107V48.4809ZM152.094 48.168H176.794V42.2045H152.094V48.168Z" fill="#D6D2D2"/>
<path d="M189.991 48.3152H164.444V54.5916H189.991V48.3152Z" fill="white"/>
<path d="M190.157 54.7388H164.297V48.1495H190.157V54.7388ZM164.61 54.4259H189.844V48.4624H164.61V54.4259Z" fill="#D6D2D2"/>
<path d="M151.928 79.6786H126.381V85.955H151.928V79.6786Z" fill="white"/>
<path d="M152.094 86.1022H126.234V79.5129H152.094V86.1022ZM126.547 85.7893H151.781V79.8258H126.547V85.7893Z" fill="#D6D2D2"/>
<path d="M164.444 85.955H139.431V92.2313H164.444V85.955Z" fill="white"/>
<path d="M164.592 92.3786H139.265V85.7893H164.592V92.3786ZM139.578 92.0657H164.279V86.1022H139.578V92.0657Z" fill="#D6D2D2"/>
<path d="M126.381 79.6786H101.368V85.955H126.381V79.6786Z" fill="white"/>
<path d="M126.547 86.1022H101.22V79.5129H126.547V86.1022ZM101.533 85.7893H126.234V79.8258H101.533V85.7893Z" fill="#D6D2D2"/>
<path d="M139.431 85.955H113.884V92.2313H139.431V85.955Z" fill="white"/>
<path d="M139.596 92.3786H113.736V85.7893H139.596V92.3786ZM114.049 92.0657H139.283V86.1022H114.049V92.0657Z" fill="#D6D2D2"/>
<path d="M202.489 79.6786H176.942V85.955H202.489V79.6786Z" fill="white"/>
<path d="M202.655 86.1022H176.794V79.5129H202.655V86.1022ZM177.107 85.7893H202.342V79.8258H177.107V85.7893Z" fill="#D6D2D2"/>
<path d="M176.96 79.6786H151.947V85.955H176.96V79.6786Z" fill="white"/>
<path d="M177.107 86.1022H151.781V79.5129H177.107V86.1022ZM152.094 85.7893H176.794V79.8258H152.094V85.7893Z" fill="#D6D2D2"/>
<path d="M189.991 85.955H164.444V92.2313H189.991V85.955Z" fill="white"/>
<path d="M190.157 92.3786H164.297V85.7893H190.157V92.3786ZM164.61 92.0657H189.844V86.1022H164.61V92.0657Z" fill="#D6D2D2"/>
<path d="M151.928 67.1443H126.381V73.4207H151.928V67.1443Z" fill="white"/>
<path d="M152.094 73.5679H126.234V66.9786H152.094V73.5679ZM126.547 73.255H151.781V67.2915H126.547V73.255Z" fill="#D6D2D2"/>
<path d="M164.444 73.4022H139.431V79.6786H164.444V73.4022Z" fill="white"/>
<path d="M164.592 79.8258H139.265V73.2366H164.592V79.8258ZM139.578 79.5129H164.279V73.5495H139.578V79.5129Z" fill="#D6D2D2"/>
<path d="M126.381 67.1259H101.368V73.4022H126.381V67.1259Z" fill="white"/>
<path d="M126.547 73.5679H101.22V66.9786H126.547V73.5679ZM101.533 73.255H126.234V67.2915H101.533V73.255Z" fill="#D6D2D2"/>
<path d="M139.431 73.4022H113.884V79.6786H139.431V73.4022Z" fill="white"/>
<path d="M139.596 79.8258H113.736V73.2366H139.596V79.8258ZM114.049 79.5129H139.283V73.5495H114.049V79.5129Z" fill="#D6D2D2"/>
<path d="M202.489 67.1443H176.942V73.4207H202.489V67.1443Z" fill="white"/>
<path d="M202.655 73.5679H176.794V66.9786H202.655V73.5679ZM177.107 73.255H202.342V67.2915H177.107V73.255Z" fill="#D6D2D2"/>
<path d="M215.005 73.4022H189.991V79.6786H215.005V73.4022Z" fill="white"/>
<path d="M215.171 79.8258H189.844V73.2366H215.171V79.8258ZM190.157 79.5129H214.858V73.5495H190.157V79.5129Z" fill="#D6D2D2"/>
<path d="M176.96 67.1443H151.947V73.4207H176.96V67.1443Z" fill="white"/>
<path d="M177.107 73.5679H151.781V66.9786H177.107V73.5679ZM152.094 73.255H176.794V67.2915H152.094V73.255Z" fill="#D6D2D2"/>
<path d="M189.991 73.4022H164.444V79.6786H189.991V73.4022Z" fill="white"/>
<path d="M190.157 79.8258H164.297V73.2366H190.157V79.8258ZM164.61 79.5129H189.844V73.5495H164.61V79.5129Z" fill="#D6D2D2"/>
<path d="M50.8067 104.766H25.2595V111.042H50.8067V104.766Z" fill="white"/>
<path d="M50.9727 111.189H25.1126V104.6H50.9727V111.189ZM25.4255 110.876H50.6598V104.913H25.4255V110.876Z" fill="#D6D2D2"/>
<path d="M63.3228 111.042H38.3094V117.318H63.3228V111.042Z" fill="white"/>
<path d="M63.47 117.466H38.1436V110.876H63.47V117.466ZM38.4565 117.153H63.1571V111.189H38.4565V117.153Z" fill="#D6D2D2"/>
<path d="M25.2598 104.766H0.246399V111.042H25.2598V104.766Z" fill="white"/>
<path d="M25.4069 111.189H0.0805664V104.6H25.4069V111.189ZM0.393461 110.876H25.094V104.913H0.393461V110.876Z" fill="#D6D2D2"/>
<path d="M38.2907 111.042H12.7435V117.318H38.2907V111.042Z" fill="white"/>
<path d="M38.4567 117.466H12.5966V110.876H38.4567V117.466ZM12.9095 117.153H38.1438V111.189H12.9095V117.153Z" fill="#D6D2D2"/>
<path d="M101.367 104.766H75.8202V111.042H101.367V104.766Z" fill="white"/>
<path d="M101.533 111.189H75.6732V104.6H101.533V111.189ZM75.9861 110.876H101.22V104.913H75.9861V110.876Z" fill="#D6D2D2"/>
<path d="M113.883 111.042H88.87V117.318H113.883V111.042Z" fill="white"/>
<path d="M114.031 117.466H88.7042V110.876H114.031V117.466ZM89.0171 117.153H113.718V111.189H89.0171V117.153Z" fill="#D6D2D2"/>
<path d="M75.8205 104.766H50.807V111.042H75.8205V104.766Z" fill="white"/>
<path d="M75.9675 111.189H50.6412V104.6H75.9675V111.189ZM50.9541 110.876H75.6546V104.913H50.9541V110.876Z" fill="#D6D2D2"/>
<path d="M88.8702 111.042H63.323V117.318H88.8702V111.042Z" fill="white"/>
<path d="M89.0173 117.466H63.1572V110.876H89.0173V117.466ZM63.4701 117.153H88.7044V111.189H63.4701V117.153Z" fill="#D6D2D2"/>
<path d="M50.8067 92.213H25.2595V98.4894H50.8067V92.213Z" fill="white"/>
<path d="M50.9727 98.6549H25.1126V92.0657H50.9727V98.6549ZM25.4255 98.342H50.6598V92.3786H25.4255V98.342Z" fill="#D6D2D2"/>
<path d="M63.3228 98.4894H38.3094V104.766H63.3228V98.4894Z" fill="white"/>
<path d="M63.47 104.913H38.1436V98.3236H63.47V104.913ZM38.4565 104.6H63.1571V98.6365H38.4565V104.6Z" fill="#D6D2D2"/>
<path d="M38.2907 98.4894H12.7435V104.766H38.2907V98.4894Z" fill="white"/>
<path d="M38.4567 104.913H12.5966V98.3236H38.4567V104.913ZM12.9095 104.6H38.1438V98.6365H12.9095V104.6Z" fill="#D6D2D2"/>
<path d="M101.367 92.213H75.8202V98.4894H101.367V92.213Z" fill="white"/>
<path d="M101.533 98.6549H75.6732V92.0657H101.533V98.6549ZM75.9861 98.342H101.22V92.3786H75.9861V98.342Z" fill="#D6D2D2"/>
<path d="M113.883 98.4894H88.87V104.766H113.883V98.4894Z" fill="white"/>
<path d="M114.031 104.913H88.7042V98.3236H114.031V104.913ZM89.0171 104.6H113.718V98.6365H89.0171V104.6Z" fill="#D6D2D2"/>
<path d="M75.8205 92.213H50.807V98.4894H75.8205V92.213Z" fill="white"/>
<path d="M75.9675 98.6549H50.6412V92.0657H75.9675V98.6549ZM50.9541 98.342H75.6546V92.3786H50.9541V98.342Z" fill="#D6D2D2"/>
<path d="M88.8702 98.4894H63.323V104.766H88.8702V98.4894Z" fill="white"/>
<path d="M89.0173 104.913H63.1572V98.3236H89.0173V104.913ZM63.4701 104.6H88.7044V98.6365H63.4701V104.6Z" fill="#D6D2D2"/>
<path d="M50.8067 117.3H25.2595V123.576H50.8067V117.3Z" fill="white"/>
<path d="M50.9727 123.742H25.1126V117.153H50.9727V123.742ZM25.4255 123.429H50.6598V117.466H25.4255V123.429Z" fill="#D6D2D2"/>
<path d="M63.3228 123.576H38.3094V129.853H63.3228V123.576Z" fill="white"/>
<path d="M63.47 130H38.1436V123.411H63.47V130ZM38.4565 129.687H63.1571V123.724H38.4565V129.687Z" fill="#D6D2D2"/>
<path d="M101.367 117.3H75.8202V123.576H101.367V117.3Z" fill="white"/>
<path d="M101.533 123.742H75.6732V117.153H101.533V123.742ZM75.9861 123.429H101.22V117.466H75.9861V123.429Z" fill="#D6D2D2"/>
<path d="M113.883 123.576H88.87V129.853H113.883V123.576Z" fill="white"/>
<path d="M114.031 130H88.7042V123.411H114.031V130ZM89.0171 129.687H113.718V123.724H89.0171V129.687Z" fill="#D6D2D2"/>
<path d="M75.8205 117.3H50.807V123.576H75.8205V117.3Z" fill="white"/>
<path d="M75.9675 123.742H50.6412V117.153H75.9675V123.742ZM50.9541 123.429H75.6546V117.466H50.9541V123.429Z" fill="#D6D2D2"/>
<path d="M88.8702 123.576H63.323V129.853H88.8702V123.576Z" fill="white"/>
<path d="M89.0173 130H63.1572V123.411H89.0173V130ZM63.4701 129.687H88.7044V123.724H63.4701V129.687Z" fill="#D6D2D2"/>
<path d="M151.928 104.766H126.381V111.042H151.928V104.766Z" fill="white"/>
<path d="M152.094 111.189H126.234V104.6H152.094V111.189ZM126.547 110.876H151.781V104.913H126.547V110.876Z" fill="#D6D2D2"/>
<path d="M164.444 111.042H139.431V117.318H164.444V111.042Z" fill="white"/>
<path d="M164.592 117.466H139.265V110.876H164.592V117.466ZM139.578 117.153H164.279V111.189H139.578V117.153Z" fill="#D6D2D2"/>
<path d="M126.381 104.766H101.368V111.042H126.381V104.766Z" fill="white"/>
<path d="M126.547 111.189H101.22V104.6H126.547V111.189ZM101.533 110.876H126.234V104.913H101.533V110.876Z" fill="#D6D2D2"/>
<path d="M139.431 111.042H113.884V117.318H139.431V111.042Z" fill="white"/>
<path d="M139.596 117.466H113.736V110.876H139.596V117.466ZM114.049 117.153H139.283V111.189H114.049V117.153Z" fill="#D6D2D2"/>
<path d="M202.489 104.766H176.942V111.042H202.489V104.766Z" fill="white"/>
<path d="M202.655 111.189H176.794V104.6H202.655V111.189ZM177.107 110.876H202.342V104.913H177.107V110.876Z" fill="#D6D2D2"/>
<path d="M176.96 104.766H151.947V111.042H176.96V104.766Z" fill="white"/>
<path d="M177.107 111.189H151.781V104.6H177.107V111.189ZM152.094 110.876H176.794V104.913H152.094V110.876Z" fill="#D6D2D2"/>
<path d="M189.991 111.042H164.444V117.318H189.991V111.042Z" fill="white"/>
<path d="M190.157 117.466H164.297V110.876H190.157V117.466ZM164.61 117.153H189.844V111.189H164.61V117.153Z" fill="#D6D2D2"/>
<path d="M151.928 92.213H126.381V98.4894H151.928V92.213Z" fill="white"/>
<path d="M152.094 98.6549H126.234V92.0657H152.094V98.6549ZM126.547 98.342H151.781V92.3786H126.547V98.342Z" fill="#D6D2D2"/>
<path d="M164.444 98.4894H139.431V104.766H164.444V98.4894Z" fill="white"/>
<path d="M164.592 104.913H139.265V98.3236H164.592V104.913ZM139.578 104.6H164.279V98.6365H139.578V104.6Z" fill="#D6D2D2"/>
<path d="M126.381 92.213H101.368V98.4894H126.381V92.213Z" fill="white"/>
<path d="M126.547 98.6549H101.22V92.0657H126.547V98.6549ZM101.533 98.342H126.234V92.3786H101.533V98.342Z" fill="#D6D2D2"/>
<path d="M139.431 98.4894H113.884V104.766H139.431V98.4894Z" fill="white"/>
<path d="M139.596 104.913H113.736V98.3236H139.596V104.913ZM114.049 104.6H139.283V98.6365H114.049V104.6Z" fill="#D6D2D2"/>
<path d="M202.489 92.213H176.942V98.4894H202.489V92.213Z" fill="white"/>
<path d="M202.655 98.6549H176.794V92.0657H202.655V98.6549ZM177.107 98.342H202.342V92.3786H177.107V98.342Z" fill="#D6D2D2"/>
<path d="M215.005 98.4894H189.991V104.766H215.005V98.4894Z" fill="white"/>
<path d="M215.171 104.913H189.844V98.3236H215.171V104.913ZM190.157 104.6H214.858V98.6365H190.157V104.6Z" fill="#D6D2D2"/>
<path d="M176.96 92.213H151.947V98.4894H176.96V92.213Z" fill="white"/>
<path d="M177.107 98.6549H151.781V92.0657H177.107V98.6549ZM152.094 98.342H176.794V92.3786H152.094V98.342Z" fill="#D6D2D2"/>
<path d="M189.991 98.4894H164.444V104.766H189.991V98.4894Z" fill="white"/>
<path d="M190.157 104.913H164.297V98.3236H190.157V104.913ZM164.61 104.6H189.844V98.6365H164.61V104.6Z" fill="#D6D2D2"/>
<path d="M151.928 117.3H126.381V123.576H151.928V117.3Z" fill="white"/>
<path d="M152.094 123.742H126.234V117.153H152.094V123.742ZM126.547 123.429H151.781V117.466H126.547V123.429Z" fill="#D6D2D2"/>
<path d="M164.444 123.576H139.431V129.853H164.444V123.576Z" fill="white"/>
<path d="M164.592 130H139.265V123.411H164.592V130ZM139.578 129.687H164.279V123.724H139.578V129.687Z" fill="#D6D2D2"/>
<path d="M126.381 117.3H101.368V123.576H126.381V117.3Z" fill="white"/>
<path d="M126.547 123.742H101.22V117.153H126.547V123.742ZM101.533 123.429H126.234V117.466H101.533V123.429Z" fill="#D6D2D2"/>
<path d="M139.431 123.576H113.884V129.853H139.431V123.576Z" fill="white"/>
<path d="M139.596 130H113.736V123.411H139.596V130ZM114.049 129.687H139.283V123.724H114.049V129.687Z" fill="#D6D2D2"/>
<path d="M176.96 117.3H151.947V123.576H176.96V117.3Z" fill="white"/>
<path d="M177.107 123.742H151.781V117.153H177.107V123.742ZM152.094 123.429H176.794V117.466H152.094V123.429Z" fill="#D6D2D2"/>
<path d="M189.991 123.576H164.444V129.853H189.991V123.576Z" fill="white"/>
<path d="M190.157 130H164.297V123.411H190.157V130ZM164.61 129.687H189.844V123.724H164.61V129.687Z" fill="#D6D2D2"/>
<path d="M158.039 115.607H57.1937V125.104H158.039V115.607Z" fill="#D3D3D3"/>
<path d="M107.626 125.104C121.559 125.104 134.811 124.846 146.885 124.368C149.904 124.239 152.849 124.11 155.701 123.963C157.137 123.889 158.536 123.816 159.935 123.742H158.683V114.999H56.5863V123.742H55.3347C56.7152 123.816 58.1324 123.889 59.5496 123.963C62.4025 124.11 65.3475 124.239 68.366 124.368C80.4402 124.846 93.6923 125.104 107.626 125.104Z" fill="#D3D3D3"/>
<path d="M107.626 124.478C120.62 124.478 133.007 124.239 144.272 123.779C149.904 123.558 155.26 123.282 160.266 122.969H158.683V114.999H56.5864V122.969H55.0035C60.0099 123.282 65.366 123.558 70.9982 123.779C82.2625 124.221 94.6496 124.478 107.644 124.478" fill="#D2D2D2"/>
<path d="M107.626 123.834C119.7 123.834 131.185 123.613 141.658 123.19C146.885 122.987 151.855 122.73 156.511 122.435C157.671 122.362 158.812 122.288 159.935 122.214H158.683V114.999H56.5863V122.214H55.3347C56.4575 122.288 57.5986 122.38 58.7582 122.435C63.4149 122.73 68.366 122.987 73.6116 123.19C84.0661 123.613 95.5697 123.834 107.644 123.834" fill="#D1D1D1"/>
<path d="M107.626 123.208C118.761 123.208 129.381 122.987 139.026 122.619C143.848 122.435 148.431 122.196 152.738 121.92C154.892 121.791 156.953 121.644 158.959 121.478H158.683V114.999H56.5864V121.478H56.3103C58.2981 121.625 60.378 121.773 62.5314 121.92C66.82 122.196 71.403 122.435 76.2438 122.619C85.9068 123.006 96.5085 123.208 107.644 123.208" fill="#D0D0D0"/>
<path d="M107.626 122.564C128.056 122.564 146.535 121.791 159.916 120.521H158.665V114.981H56.568V120.521H55.3163C68.6973 121.773 87.1952 122.564 107.607 122.564" fill="#CFCFCF"/>
<path d="M107.626 121.938C126.197 121.938 143.001 121.239 155.168 120.079C156.695 119.932 158.131 119.785 159.511 119.638H158.683V114.981H56.5863V119.638H55.7581C57.1201 119.803 58.5741 119.951 60.1018 120.079C72.268 121.221 89.0725 121.938 107.644 121.938" fill="#CECECE"/>
<path d="M107.626 121.313C124.338 121.313 139.468 120.668 150.419 119.638C153.161 119.38 155.628 119.104 157.8 118.791C158.886 118.644 159.898 118.478 160.837 118.312H158.683V114.963H56.5863V118.312H54.4329C55.3716 118.478 56.3839 118.625 57.4698 118.791C59.6417 119.085 62.1265 119.38 64.8505 119.638C75.802 120.668 90.9315 121.313 107.644 121.313" fill="#CDCDCD"/>
<path d="M107.625 120.668C137.332 120.668 161.407 118.404 161.407 115.607C161.407 114.208 155.388 112.938 145.652 112.018V114.981H69.5807V112.018C59.844 112.938 53.8253 114.208 53.8253 115.607C53.8253 118.404 77.9001 120.668 107.607 120.668" fill="#CCCCCC"/>
<path d="M107.626 120.042C133.615 120.042 154.689 118.055 154.689 115.607C154.689 113.159 133.615 111.171 107.626 111.171C81.6367 111.171 60.5621 113.159 60.5621 115.607C60.5621 118.055 81.6367 120.042 107.626 120.042Z" fill="#CBCBCB"/>
<path d="M107.626 119.417C129.915 119.417 147.971 117.723 147.971 115.625C147.971 113.527 129.915 111.833 107.626 111.833C85.3362 111.833 67.2801 113.527 67.2801 115.625C67.2801 117.723 85.3362 119.417 107.626 119.417Z" fill="#CACACA"/>
<path d="M107.625 118.773C126.197 118.773 141.234 117.355 141.234 115.607C141.234 113.858 126.178 112.441 107.625 112.441C89.0723 112.441 74.0164 113.858 74.0164 115.607C74.0164 117.355 89.0723 118.773 107.625 118.773Z" fill="#C9C9C9"/>
<path d="M107.626 118.147C122.479 118.147 134.516 117.005 134.516 115.607C134.516 114.208 122.479 113.067 107.626 113.067C92.7722 113.067 80.7348 114.208 80.7348 115.607C80.7348 117.005 92.7722 118.147 107.626 118.147Z" fill="#C8C8C8"/>
<path d="M107.625 117.503C118.761 117.503 127.798 116.656 127.798 115.607C127.798 114.558 118.761 113.711 107.625 113.711C96.49 113.711 87.4528 114.558 87.4528 115.607C87.4528 116.656 96.49 117.503 107.625 117.503Z" fill="#C7C7C7"/>
<path d="M107.626 116.877C115.062 116.877 121.08 116.306 121.08 115.607C121.08 114.907 115.062 114.337 107.626 114.337C100.19 114.337 94.1711 114.907 94.1711 115.607C94.1711 116.306 100.19 116.877 107.626 116.877Z" fill="#C6C6C6"/>
<path d="M107.626 116.251C111.344 116.251 114.344 115.975 114.344 115.625C114.344 115.275 111.344 114.999 107.626 114.999C103.908 114.999 100.907 115.275 100.907 115.625C100.907 115.975 103.908 116.251 107.626 116.251Z" fill="#C5C5C4"/>
<path d="M204.127 0.515381H12.118V42.5542H204.127V0.515381Z" fill="white"/>
<path d="M158.462 72.8317H57.7644V114.87H158.462V72.8317Z" fill="white"/>
<path d="M53.6413 43.548C53.4756 43.548 53.3284 43.4008 53.3284 43.2351V1.7117C53.3284 1.54605 53.4756 1.3988 53.6413 1.3988C53.8069 1.3988 53.9542 1.54605 53.9542 1.7117V43.2351C53.9542 43.4008 53.8069 43.548 53.6413 43.548Z" fill="#BBBBBB"/>
<path d="M86.8638 43.548C86.6981 43.548 86.5509 43.4008 86.5509 43.2351V1.7117C86.5509 1.54605 86.6981 1.3988 86.8638 1.3988C87.0295 1.3988 87.1767 1.54605 87.1767 1.7117V43.2351C87.1767 43.4008 87.0295 43.548 86.8638 43.548Z" fill="#BBBBBB"/>
<path d="M69.4886 31.9525C66.8749 31.9525 64.7399 29.8358 64.7399 27.2038C64.7399 24.5717 66.8565 22.4551 69.4886 22.4551C72.1206 22.4551 74.2372 24.5717 74.2372 27.2038C74.2372 29.8358 72.1206 31.9525 69.4886 31.9525Z" fill="white"/>
<path d="M69.4887 32.2653C66.7094 32.2653 64.4271 30.0014 64.4271 27.2037C64.4271 24.406 66.691 22.1421 69.4887 22.1421C72.2864 22.1421 74.5503 24.406 74.5503 27.2037C74.5503 30.0014 72.2864 32.2653 69.4887 32.2653ZM69.4887 22.7679C67.0407 22.7679 65.0529 24.7557 65.0529 27.2037C65.0529 29.6516 67.0407 31.6395 69.4887 31.6395C71.9367 31.6395 73.9245 29.6516 73.9245 27.2037C73.9245 24.7557 71.9367 22.7679 69.4887 22.7679Z" fill="#BBBBBB"/>
<path d="M68.337 18.0113L68.2889 18.6353L75.9964 19.2297L76.0445 18.6057L68.337 18.0113Z" fill="#BBBBBB"/>
<path d="M71.5503 12.1294C71.5503 12.1294 71.4582 12.1294 71.4214 12.1294L60.7093 10.5465C60.2307 10.4728 59.9178 10.0311 59.973 9.55255L60.2675 7.60154C60.3412 7.12299 60.7829 6.81009 61.2615 6.86531L71.9736 8.44821C72.1945 8.48502 72.3969 8.59545 72.5442 8.77951C72.673 8.96357 72.7467 9.18444 72.7099 9.42371L72.4154 11.3747C72.3785 11.5956 72.2497 11.7981 72.0656 11.9453C71.9184 12.0557 71.7343 12.111 71.5503 12.111M61.1326 7.45429C61.0222 7.45429 60.9117 7.54632 60.8933 7.65676L60.5989 9.60777C60.5989 9.60777 60.5988 9.73661 60.6356 9.79183C60.6725 9.84704 60.7277 9.88386 60.8013 9.88386L71.5135 11.4668C71.5135 11.4668 71.6423 11.4668 71.6975 11.4299C71.7528 11.3931 71.7896 11.3379 71.7896 11.2643L72.084 9.31328C72.084 9.31328 72.0841 9.18444 72.0472 9.12922C72.0104 9.074 71.9552 9.03719 71.8816 9.03719L61.1694 7.45429C61.1694 7.45429 61.151 7.45429 61.1326 7.45429Z" fill="#BBBBBB"/>
<path d="M62.0161 30.977L61.8689 30.3696L69.4152 28.6578L69.5625 29.2652L62.0161 30.977Z" fill="#BBBBBB"/>
<path d="M80.1643 25.7865C78.9863 25.7865 78.0292 24.8294 78.0292 23.6514C78.0292 22.4735 78.9863 21.5164 80.1643 21.5164C81.3423 21.5164 82.2994 22.4735 82.2994 23.6514C82.2994 24.8294 81.3423 25.7865 80.1643 25.7865ZM80.1643 22.1422C79.336 22.1422 78.655 22.8232 78.655 23.6514C78.655 24.4797 79.336 25.1607 80.1643 25.1607C80.9925 25.1607 81.6736 24.4797 81.6736 23.6514C81.6736 22.8232 80.9925 22.1422 80.1643 22.1422Z" fill="#BBBBBB"/>
<path d="M131.35 43.548C131.185 43.548 131.037 43.4008 131.037 43.2351V1.7117C131.037 1.54605 131.185 1.3988 131.35 1.3988C131.516 1.3988 131.663 1.54605 131.663 1.7117V43.2351C131.663 43.4008 131.516 43.548 131.35 43.548Z" fill="#BBBBBB"/>
<path d="M118.743 21.9581C114.767 21.9581 111.509 18.7187 111.509 14.743C111.509 10.7674 114.749 7.52795 118.743 7.52795C122.737 7.52795 125.958 10.7674 125.958 14.743C125.958 18.7187 122.718 21.9581 118.743 21.9581ZM118.743 8.15375C115.098 8.15375 112.135 11.1171 112.135 14.743C112.135 18.369 115.098 21.3323 118.743 21.3323C122.387 21.3323 125.35 18.369 125.35 14.743C125.35 11.1171 122.387 8.15375 118.743 8.15375Z" fill="#BBBBBB"/>
<path d="M118.743 37.327C115.982 37.327 113.736 35.0814 113.736 32.3206C113.736 29.5597 115.982 27.3142 118.743 27.3142C121.504 27.3142 123.749 29.5597 123.749 32.3206C123.749 35.0814 121.504 37.327 118.743 37.327ZM118.743 27.94C116.313 27.94 114.362 29.9094 114.362 32.3206C114.362 34.7317 116.331 36.7012 118.743 36.7012C121.154 36.7012 123.123 34.7317 123.123 32.3206C123.123 29.9094 121.154 27.94 118.743 27.94Z" fill="#BBBBBB"/>
<path d="M98.6253 37.327C94.6497 37.327 91.3918 34.0876 91.3918 30.1119C91.3918 26.1363 94.6312 22.8969 98.6253 22.8969C102.619 22.8969 105.859 26.1363 105.859 30.1119C105.859 34.0876 102.619 37.327 98.6253 37.327ZM98.6253 23.5226C94.981 23.5226 92.0176 26.486 92.0176 30.1119C92.0176 33.7379 94.981 36.7012 98.6253 36.7012C102.27 36.7012 105.233 33.7379 105.233 30.1119C105.233 26.486 102.27 23.5226 98.6253 23.5226Z" fill="#BBBBBB"/>
<path d="M98.6252 17.5407C95.8643 17.5407 93.6188 15.2952 93.6188 12.5343C93.6188 9.77346 95.8643 7.52795 98.6252 7.52795C101.386 7.52795 103.632 9.77346 103.632 12.5343C103.632 15.2952 101.386 17.5407 98.6252 17.5407ZM98.6252 8.15375C96.1956 8.15375 94.2446 10.1232 94.2446 12.5343C94.2446 14.9455 96.214 16.9149 98.6252 16.9149C101.036 16.9149 103.006 14.9455 103.006 12.5343C103.006 10.1232 101.036 8.15375 98.6252 8.15375Z" fill="#BBBBBB"/>
<path d="M46.2239 13.1601C44.6595 13.1601 43.4078 11.8901 43.4078 10.344C43.4078 8.79795 44.6779 7.52795 46.2239 7.52795C47.77 7.52795 49.04 8.79795 49.04 10.344C49.04 11.8901 47.77 13.1601 46.2239 13.1601ZM46.2239 8.15375C45.0092 8.15375 44.0337 9.14766 44.0337 10.344C44.0337 11.5404 45.0276 12.5343 46.2239 12.5343C47.4203 12.5343 48.4142 11.5588 48.4142 10.344C48.4142 9.12926 47.4203 8.15375 46.2239 8.15375Z" fill="#BBBBBB"/>
<path d="M161.72 42.9775C161.554 42.9775 161.407 42.8302 161.407 42.6646V0.625764C161.407 0.460112 161.554 0.312866 161.72 0.312866C161.886 0.312866 162.033 0.460112 162.033 0.625764V42.6646C162.033 42.8302 161.886 42.9775 161.72 42.9775Z" fill="#BBBBBB"/>
<path d="M194.041 21.9581H171.53C171.365 21.9581 171.217 21.8108 171.217 21.6452C171.217 21.4795 171.365 21.3323 171.53 21.3323H194.041C194.206 21.3323 194.354 21.4795 194.354 21.6452C194.354 21.8108 194.206 21.9581 194.041 21.9581Z" fill="#BBBBBB"/>
<path d="M182.795 33.1857C182.629 33.1857 182.482 33.0384 182.482 32.8728V10.3993C182.482 10.2337 182.629 10.0864 182.795 10.0864C182.961 10.0864 183.108 10.2337 183.108 10.3993V32.8728C183.108 33.0384 182.961 33.1857 182.795 33.1857Z" fill="#BBBBBB"/>
<path d="M190.746 29.8909C190.746 29.8909 190.581 29.8541 190.525 29.7989L174.604 13.9147C174.475 13.7859 174.475 13.6018 174.604 13.473C174.733 13.3441 174.917 13.3441 175.046 13.473L190.949 29.3572C191.078 29.486 191.078 29.6701 190.949 29.7989C190.893 29.8541 190.801 29.8909 190.728 29.8909" fill="#BBBBBB"/>
<path d="M174.844 29.8909C174.844 29.8909 174.678 29.8541 174.623 29.7989C174.494 29.6701 174.494 29.486 174.623 29.3572L190.525 13.473C190.654 13.3441 190.838 13.3441 190.967 13.473C191.096 13.6018 191.096 13.7859 190.967 13.9147L175.046 29.7989C175.046 29.7989 174.899 29.8909 174.825 29.8909" fill="#BBBBBB"/>
<path d="M204.219 43.2904H12.21C11.8602 43.2904 11.5842 43.0143 11.5842 42.6646V0.625796C11.5842 0.276087 11.8602 0 12.21 0H204.219C204.569 0 204.845 0.276087 204.845 0.625796V42.6646C204.845 43.0143 204.569 43.2904 204.219 43.2904ZM12.8357 42.0388H203.593V1.25159H12.8357V42.0388Z" fill="#595A5C"/>
<path d="M83.4405 115.331C83.2749 115.331 83.1276 115.183 83.1276 115.018V72.9789C83.1276 72.8133 83.2749 72.666 83.4405 72.666C83.6062 72.666 83.7534 72.8133 83.7534 72.9789V115.018C83.7534 115.183 83.6062 115.331 83.4405 115.331Z" fill="#BBBBBB"/>
<path d="M132.989 115.239C132.823 115.239 132.676 115.091 132.676 114.926V72.8869C132.676 72.7212 132.823 72.574 132.989 72.574C133.154 72.574 133.302 72.7212 133.302 72.8869V114.926C133.302 115.091 133.154 115.239 132.989 115.239Z" fill="#BBBBBB"/>
<path d="M122.626 76.9362H93.5268C91.5039 76.9362 89.864 78.576 89.864 80.5989V107.379C89.864 109.402 91.5039 111.042 93.5268 111.042H122.626C124.649 111.042 126.289 109.402 126.289 107.379V80.5989C126.289 78.576 124.649 76.9362 122.626 76.9362Z" fill="white"/>
<path d="M122.608 111.355H93.5269C91.3366 111.355 89.5513 109.57 89.5513 107.379V80.5989C89.5513 78.4087 91.3366 76.6233 93.5269 76.6233H122.608C124.798 76.6233 126.584 78.4087 126.584 80.5989V107.379C126.584 109.57 124.798 111.355 122.608 111.355ZM93.5269 77.2491C91.6679 77.2491 90.1771 78.7584 90.1771 80.5989V107.379C90.1771 109.238 91.6863 110.729 93.5269 110.729H122.608C124.467 110.729 125.958 109.22 125.958 107.379V80.5989C125.958 78.74 124.449 77.2491 122.608 77.2491H93.5269Z" fill="#BBBBBB"/>
<path d="M120.473 105.465H95.6618C93.766 105.465 92.22 104.103 92.22 102.447V82.7156C92.22 81.059 93.766 79.697 95.6618 79.697H120.473C122.369 79.697 123.915 81.0406 123.915 82.7156V102.447C123.915 104.103 122.369 105.465 120.473 105.465ZM95.6618 80.3228C94.0974 80.3228 92.8458 81.3904 92.8458 82.7156V102.447C92.8458 103.753 94.1158 104.839 95.6618 104.839H120.473C122.037 104.839 123.289 103.772 123.289 102.447V82.7156C123.289 81.3904 122.019 80.3228 120.473 80.3228H95.6618Z" fill="#BBBBBB"/>
<path d="M110.589 94.256H107.037V109.68H110.589V94.256Z" fill="white"/>
<path d="M110.589 109.993H107.036C106.871 109.993 106.724 109.846 106.724 109.68V94.256C106.724 94.0904 106.871 93.9431 107.036 93.9431H110.589C110.754 93.9431 110.902 94.0904 110.902 94.256V109.68C110.902 109.846 110.754 109.993 110.589 109.993ZM107.349 109.367H110.276V94.5689H107.349V109.367Z" fill="#BBBBBB"/>
<path d="M158.573 115.588H57.8748C57.5251 115.588 57.249 115.312 57.249 114.962V72.9236C57.249 72.5739 57.5251 72.2979 57.8748 72.2979H158.573C158.923 72.2979 159.199 72.5739 159.199 72.9236V114.962C159.199 115.312 158.923 115.588 158.573 115.588ZM58.5006 114.337H157.947V73.5494H58.5006V114.337Z" fill="#595A5C"/>
<path d="M201.955 43.2351H12.118V52.7325H201.955V43.2351Z" fill="#D3D3D3"/>
<path d="M107.036 52.7326C133.246 52.7326 158.223 52.4749 180.936 51.9963C186.605 51.8675 192.145 51.7387 197.538 51.5914C200.225 51.5178 202.875 51.4442 205.489 51.3706H202.599V42.6278H11.5104V51.3706H8.62067C11.2343 51.4442 13.8847 51.5362 16.572 51.5914C21.9465 51.7387 27.4866 51.8675 33.174 51.9963C55.8867 52.4749 80.8633 52.7326 107.073 52.7326" fill="#D3D3D3"/>
<path d="M107.037 52.0883C131.498 52.0883 154.818 51.8307 176.003 51.3889C186.605 51.1681 196.673 50.892 206.097 50.5791H202.581V42.6094H11.4923V50.5791H7.97675C17.4005 50.892 27.4685 51.1681 38.0702 51.3889C59.2737 51.8307 82.5754 52.0883 107.037 52.0883Z" fill="#D2D2D2"/>
<path d="M107.036 51.4626C129.749 51.4626 151.394 51.2417 171.07 50.8184C180.917 50.6159 190.267 50.3582 199.01 50.0637C201.2 49.9901 203.354 49.9165 205.47 49.8429H202.581V42.6278H11.4919V49.8429H8.60223C10.7189 49.9165 12.8724 49.9901 15.0443 50.0637C23.8054 50.3582 33.1555 50.6159 42.9842 50.8184C62.66 51.2417 84.3052 51.4626 107.018 51.4626" fill="#D1D1D1"/>
<path d="M107.037 50.8368C128.001 50.8368 147.99 50.6343 166.156 50.2478C175.249 50.0637 183.881 49.8245 191.961 49.5484C196.01 49.4195 199.912 49.2723 203.649 49.1066H202.581V42.6278H11.4923V49.1066H10.4248C14.1796 49.2539 18.0816 49.4011 22.1125 49.5484C30.1926 49.8245 38.8249 50.0637 47.9174 50.2478C66.0839 50.6343 86.0726 50.8368 107.037 50.8368Z" fill="#D0D0D0"/>
<path d="M107.036 50.1926C145.486 50.1926 180.291 49.4195 205.489 48.1495H202.599V42.6094H11.5104V48.1495H8.62067C33.8182 49.4011 68.6235 50.1926 107.055 50.1926" fill="#CFCFCF"/>
<path d="M107.037 49.5668C141.989 49.5668 173.629 48.8489 196.526 47.7078C199.378 47.5605 202.121 47.4133 204.698 47.266H202.581V42.6094H11.4922V47.266H9.37555C11.9524 47.4317 14.6764 47.5789 17.5477 47.7078C40.4445 48.8489 72.084 49.5668 107.037 49.5668Z" fill="#CECECE"/>
<path d="M107.036 48.9225C138.492 48.9225 166.966 48.2783 187.58 47.2476C192.734 46.9899 197.39 46.7138 201.495 46.4009C202.526 46.3273 203.501 46.2537 204.458 46.1617H202.581V42.5909H11.492V46.1617H9.61462C10.5717 46.2353 11.5472 46.3089 12.578 46.4009C16.664 46.6954 21.3391 46.9899 26.4927 47.2476C47.1072 48.2783 75.5809 48.9225 107.036 48.9225Z" fill="#CDCDCD"/>
<path d="M107.036 48.2968C134.995 48.2968 160.303 47.7262 178.635 46.8059C187.801 46.3457 195.219 45.7936 200.335 45.2046C202.894 44.9101 204.882 44.5788 206.244 44.2475H202.599V42.6094H11.5105V44.2475H7.86615C9.20977 44.5788 11.1976 44.8917 13.7744 45.2046C18.8912 45.812 26.3087 46.3642 35.4748 46.8059C53.7886 47.7262 79.1149 48.2968 107.073 48.2968" fill="#CCCCCC"/>
<path d="M107.037 47.6709C155.959 47.6709 195.624 45.6831 195.624 43.2351C195.624 40.7871 155.959 38.7993 107.037 38.7993C58.114 38.7993 18.4495 40.7871 18.4495 43.2351C18.4495 45.6831 58.114 47.6709 107.037 47.6709Z" fill="#CBCBCB"/>
<path d="M107.037 47.0268C148.983 47.0268 182.979 45.3335 182.979 43.2352C182.979 41.1369 148.983 39.4436 107.037 39.4436C65.0899 39.4436 31.0945 41.1369 31.0945 43.2352C31.0945 45.3335 65.0899 47.0268 107.037 47.0268Z" fill="#CACACA"/>
<path d="M107.037 46.4009C141.989 46.4009 170.316 44.9837 170.316 43.2351C170.316 41.4866 141.989 40.0693 107.037 40.0693C72.0839 40.0693 43.7574 41.4866 43.7574 43.2351C43.7574 44.9837 72.0839 46.4009 107.037 46.4009Z" fill="#C9C9C9"/>
<path d="M107.037 45.7568C134.995 45.7568 157.653 44.6156 157.653 43.2168C157.653 41.8179 134.977 40.6768 107.037 40.6768C79.0967 40.6768 56.4024 41.7995 56.4024 43.2168C56.4024 44.634 79.0783 45.7568 107.037 45.7568Z" fill="#C8C8C8"/>
<path d="M107.036 45.1309C128.001 45.1309 145.008 44.2843 145.008 43.2352C145.008 42.186 128.001 41.3394 107.036 41.3394C86.0723 41.3394 69.0654 42.186 69.0654 43.2352C69.0654 44.2843 86.0723 45.1309 107.036 45.1309Z" fill="#C7C7C7"/>
<path d="M107.037 44.5051C121.025 44.5051 132.345 43.9345 132.345 43.2351C132.345 42.5357 121.007 41.9651 107.037 41.9651C93.0667 41.9651 81.7288 42.5357 81.7288 43.2351C81.7288 43.9345 93.0667 44.5051 107.037 44.5051Z" fill="#C6C6C6"/>
<path d="M107.037 43.861C114.031 43.861 119.7 43.5849 119.7 43.2352C119.7 42.8855 114.031 42.6094 107.037 42.6094C100.042 42.6094 94.3734 42.8855 94.3734 43.2352C94.3734 43.5849 100.042 43.861 107.037 43.861Z" fill="#C5C5C4"/>
<path d="M57.065 51.7019C56.8073 51.7019 55.8133 50.8368 54.8562 49.8061C53.0893 47.9103 52.758 47.3029 53.5126 47.3397C53.7335 47.3397 53.9544 46.99 53.9728 46.5299C53.9912 46.0697 54.1936 45.7016 54.4329 45.72C54.6538 45.72 54.8746 45.223 54.9115 44.5788C54.9483 43.8978 55.3348 43.1984 55.8317 42.8671C56.3103 42.5542 56.7152 42.0204 56.7336 41.6707C56.752 41.321 57.157 40.7688 57.6355 40.4743C58.1141 40.1615 58.519 39.6645 58.5374 39.37C58.5374 39.0571 59.9362 37.603 61.6296 36.0938C63.3045 34.6029 64.7033 33.1673 64.7217 32.928C64.7585 32.247 68.587 28.9523 69.3048 28.9891C69.6545 29.0076 69.949 28.8419 69.9674 28.6026C69.9674 28.3818 70.1699 28.1977 70.4091 28.2161C71.1454 28.2529 70.7772 29.707 69.8754 30.2776C69.3968 30.5904 69.0103 30.977 68.9919 31.161C68.9919 31.3451 69.3416 31.5107 69.8017 31.5291C70.2619 31.5475 70.63 31.6764 70.63 31.8052C70.6116 32.2286 69.3784 33.1673 68.8999 33.1489C68.2004 33.112 65.4028 35.7625 65.3659 36.4987C65.3659 36.8484 65.1451 37.1245 64.9242 37.1061C64.7033 37.1061 64.4825 37.4558 64.4641 37.9159C64.4456 38.3761 64.2248 38.7442 64.0039 38.7258C63.783 38.7258 63.5622 39.0755 63.5438 39.5357C63.5254 39.9958 63.3229 40.3639 63.0836 40.3455C62.8628 40.3455 62.6419 40.6952 62.6235 41.1554C62.6051 41.6155 62.3842 41.9836 62.1633 41.9652C61.9425 41.9652 61.7216 42.3149 61.7032 42.7751C61.6848 43.2352 61.4823 43.6033 61.243 43.5849C61.0222 43.5849 60.8013 43.9346 60.7829 44.3948C60.7645 44.8549 60.5436 45.223 60.3228 45.2046C60.1019 45.2046 59.881 45.5543 59.8626 46.0145C59.8258 46.5667 60.1019 46.8612 60.6541 46.898C61.1142 46.9164 61.4823 47.1372 61.4639 47.3581C61.4639 47.579 61.8136 47.7998 62.2738 47.8183C62.7339 47.8367 63.102 48.0391 63.0836 48.2784C63.0836 48.4993 63.4333 48.7201 63.8935 48.7385C64.3536 48.7569 64.7217 48.9778 64.7033 49.1987C64.7033 49.4196 65.2371 49.6404 65.9365 49.6772C66.7832 49.7141 67.1881 49.53 67.2249 49.1067C67.2617 48.2784 69.2128 46.5114 70.0594 46.5667C70.4091 46.5667 70.7036 46.4194 70.722 46.1801C70.7588 45.5728 72.3049 45.7568 72.489 46.3826C72.5994 46.7507 72.9307 46.6219 73.5381 46.0145C74.0167 45.5175 74.7345 45.131 75.1026 45.1494C75.4707 45.1678 75.802 45.0022 75.802 44.7629C75.802 44.542 76.391 44.3764 77.072 44.4132C77.753 44.45 78.3052 44.6709 78.3052 44.8917C78.3052 45.1126 78.5813 45.3335 78.9678 45.3519C79.3359 45.3703 79.9985 45.8304 80.4219 46.3642C80.9556 47.0268 81.2685 47.1741 81.4158 46.8428C81.6735 46.2354 83.238 46.2354 83.2011 46.8428C83.1643 47.4685 84.3975 47.4133 85.1153 46.7691C85.8332 46.1249 86.0725 44.0819 85.4467 44.0451C85.2258 44.0451 85.0785 43.272 85.1153 42.3517C85.1706 41.4314 85.0233 40.6768 84.784 40.6584C84.5448 40.6584 84.4343 39.5172 84.5079 38.1368C84.5816 36.7564 84.4527 35.6336 84.2319 35.6152C83.9926 35.6152 83.8822 34.3452 83.9742 32.6887C84.0662 31.0322 83.9558 29.7622 83.7165 29.7622C83.4956 29.7622 83.3116 29.4493 83.33 29.0812C83.33 28.7131 82.833 27.8664 82.1704 27.1854C80.7716 25.7313 80.7164 25.4368 81.8391 25.492C82.3913 25.5289 82.6858 25.2528 82.7226 24.7006C82.741 24.2405 82.5753 23.8539 82.3545 23.8539C82.1336 23.8539 81.9495 23.449 81.9864 23.0073C82.0048 22.5287 82.2992 22.1974 82.6674 22.2158C83.4956 22.2526 85.2626 24.2036 85.2074 25.0503C85.2074 25.4 85.3546 25.6945 85.5939 25.7129C85.8148 25.7129 85.9804 26.3019 85.9436 26.9829C85.9068 27.6639 86.0724 28.2345 86.2933 28.2529C86.5142 28.2529 86.6798 29.026 86.6246 29.9462C86.5694 30.8665 86.7166 31.6212 86.9559 31.6396C87.1768 31.6396 87.3424 32.0261 87.324 32.4862C87.3056 32.9464 87.4713 33.3329 87.6922 33.3329C87.913 33.3329 88.0787 33.9219 88.0418 34.6029C88.005 35.2839 88.1707 35.8545 88.3916 35.8729C88.6124 35.8729 88.7781 36.4619 88.7413 37.1429C88.7045 37.8239 88.8701 38.3945 89.091 38.4129C89.3119 38.4129 89.4775 39.0019 89.4407 39.6829C89.4039 40.3639 89.5695 40.9345 89.7904 40.9529C90.0481 40.9529 90.0481 43.8794 89.7904 48.8858C89.5327 53.8738 89.2198 56.7819 88.9621 56.7635C88.7413 56.7635 88.5388 57.0211 88.5204 57.3709C88.5204 57.7206 87.8026 58.6224 86.9743 59.3771C85.8148 60.4262 85.1153 60.7207 83.9926 60.6655C83.1827 60.6287 82.5201 60.7759 82.5017 60.9968C82.5017 61.2177 81.9127 61.3833 81.2317 61.3465C80.5507 61.3097 79.9801 61.4753 79.9617 61.6962C79.9617 61.9355 78.5629 62.0459 76.6119 61.9355C74.6793 61.8251 73.2988 61.5858 73.2988 61.3465C73.2988 61.1256 72.9491 60.9048 72.489 60.8864C72.0288 60.868 71.6607 60.6655 71.6791 60.4262C71.7159 59.8188 70.1514 59.8372 69.8385 60.4262C69.6177 60.8311 69.5256 60.8311 69.36 60.4078C69.2312 60.1133 68.7894 59.8556 68.3477 59.8372C67.9059 59.8188 67.5562 59.6164 67.5746 59.3771C67.5746 59.1562 67.2249 58.9353 66.7648 58.9169C66.3046 58.8985 65.9365 58.6961 65.9549 58.4568C65.9549 58.2359 65.642 58.0335 65.2371 57.9967C64.8322 57.9782 64.2432 57.5733 63.9487 57.0948C63.6542 56.6162 63.102 56.2113 62.7523 56.1929C62.4026 56.1929 61.8504 55.7696 61.5559 55.291C61.243 54.8125 60.7461 54.4075 60.4332 54.3891C60.1203 54.3891 59.3657 53.7633 58.7583 53.0455C58.1509 52.3277 57.4515 51.7203 57.1938 51.7019" fill="#010101"/>
</svg>
