<svg width="175" height="130" viewBox="0 0 175 130" fill="none" xmlns="http://www.w3.org/2000/svg">
<path d="M56.2825 54.7603H43.4045V41.8823H56.2825V54.7603ZM43.6849 54.48H56.0022V42.1626H43.6849V54.48Z" fill="#D6D2D2"/>
<path d="M71.799 54.7603H58.921V41.8823H71.799V54.7603ZM59.2013 54.48H71.5186V42.1626H59.2013V54.48Z" fill="#D6D2D2"/>
<path d="M56.2825 69.3036H43.4045V56.4257H56.2825V69.3036ZM43.6849 69.0233H56.0022V56.706H43.6849V69.0233Z" fill="#D6D2D2"/>
<path d="M71.799 69.3036H58.921V56.4257H71.799V69.3036ZM59.2013 69.0233H71.5186V56.706H59.2013V69.0233Z" fill="#D6D2D2"/>
<path d="M86.3425 54.7603H73.4645V41.8823H86.3425V54.7603ZM73.7448 54.48H86.0621V42.1626H73.7448V54.48Z" fill="#D6D2D2"/>
<path d="M101.842 54.7603H88.9641V41.8823H101.842V54.7603ZM89.2444 54.48H101.562V42.1626H89.2444V54.48Z" fill="#D6D2D2"/>
<path d="M86.3425 69.3036H73.4645V56.4257H86.3425V69.3036ZM73.7448 69.0233H86.0621V56.706H73.7448V69.0233Z" fill="#D6D2D2"/>
<path d="M101.842 69.3036H88.9641V56.4257H101.842V69.3036ZM89.2444 69.0233H101.562V56.706H89.2444V69.0233Z" fill="#D6D2D2"/>
<path d="M116.402 54.7603H103.524V41.8823H116.402V54.7603ZM103.804 54.48H116.122V42.1626H103.804V54.48Z" fill="#D6D2D2"/>
<path d="M131.902 54.7603H119.024V41.8823H131.902V54.7603ZM119.304 54.48H131.621V42.1626H119.304V54.48Z" fill="#D6D2D2"/>
<path d="M116.402 69.3036H103.524V56.4257H116.402V69.3036ZM103.804 69.0233H116.122V56.706H103.804V69.0233Z" fill="#D6D2D2"/>
<path d="M131.902 69.3036H119.024V56.4257H131.902V69.3036ZM119.304 69.0233H131.621V56.706H119.304V69.0233Z" fill="#D6D2D2"/>
<path d="M56.2825 83.8471H43.4045V70.9691H56.2825V83.8471ZM43.6849 83.5668H56.0022V71.2494H43.6849V83.5668Z" fill="#D6D2D2"/>
<path d="M71.799 83.8471H58.921V70.9691H71.799V83.8471ZM59.2013 83.5668H71.5186V71.2494H59.2013V83.5668Z" fill="#D6D2D2"/>
<path d="M56.2825 98.3904H43.4045V85.5125H56.2825V98.3904ZM43.6849 98.1101H56.0022V85.7928H43.6849V98.1101Z" fill="#D6D2D2"/>
<path d="M71.799 98.3904H58.921V85.5125H71.799V98.3904ZM59.2013 98.1101H71.5186V85.7928H59.2013V98.1101Z" fill="#D6D2D2"/>
<path d="M86.3425 83.8471H73.4645V70.9691H86.3425V83.8471ZM73.7448 83.5668H86.0621V71.2494H73.7448V83.5668Z" fill="#D6D2D2"/>
<path d="M101.842 83.8471H88.9641V70.9691H101.842V83.8471ZM89.2444 83.5668H101.562V71.2494H89.2444V83.5668Z" fill="#D6D2D2"/>
<path d="M86.3425 98.3904H73.4645V85.5125H86.3425V98.3904ZM73.7448 98.1101H86.0621V85.7928H73.7448V98.1101Z" fill="#D6D2D2"/>
<path d="M101.842 98.3904H88.9641V85.5125H101.842V98.3904ZM89.2444 98.1101H101.562V85.7928H89.2444V98.1101Z" fill="#D6D2D2"/>
<path d="M116.402 83.8471H103.524V70.9691H116.402V83.8471ZM103.804 83.5668H116.122V71.2494H103.804V83.5668Z" fill="#D6D2D2"/>
<path d="M131.902 83.8471H119.024V70.9691H131.902V83.8471ZM119.304 83.5668H131.621V71.2494H119.304V83.5668Z" fill="#D6D2D2"/>
<path d="M116.402 98.3904H103.524V85.5125H116.402V98.3904ZM103.804 98.1101H116.122V85.7928H103.804V98.1101Z" fill="#D6D2D2"/>
<path d="M131.902 98.3904H119.024V85.5125H131.902V98.3904ZM119.304 98.1101H131.621V85.7928H119.304V98.1101Z" fill="#D6D2D2"/>
<path d="M56.2825 113.115H43.4045V100.237H56.2825V113.115ZM43.6849 112.835H56.0022V100.518H43.6849V112.835Z" fill="#D6D2D2"/>
<path d="M71.799 113.115H58.921V100.237H71.799V113.115ZM59.2013 112.835H71.5186V100.518H59.2013V112.835Z" fill="#D6D2D2"/>
<path d="M56.2825 127.658H43.4045V114.781H56.2825V127.658ZM43.6849 127.378H56.0022V115.061H43.6849V127.378Z" fill="#D6D2D2"/>
<path d="M71.799 127.658H58.921V114.781H71.799V127.658ZM59.2013 127.378H71.5186V115.061H59.2013V127.378Z" fill="#D6D2D2"/>
<path d="M86.3425 113.115H73.4645V100.237H86.3425V113.115ZM73.7448 112.835H86.0621V100.518H73.7448V112.835Z" fill="#D6D2D2"/>
<path d="M101.842 113.115H88.9641V100.237H101.842V113.115ZM89.2444 112.835H101.562V100.518H89.2444V112.835Z" fill="#D6D2D2"/>
<path d="M86.3425 127.658H73.4645V114.781H86.3425V127.658ZM73.7448 127.378H86.0621V115.061H73.7448V127.378Z" fill="#D6D2D2"/>
<path d="M101.842 127.658H88.9641V114.781H101.842V127.658ZM89.2444 127.378H101.562V115.061H89.2444V127.378Z" fill="#D6D2D2"/>
<path d="M116.402 113.115H103.524V100.237H116.402V113.115ZM103.804 112.835H116.122V100.518H103.804V112.835Z" fill="#D6D2D2"/>
<path d="M131.902 113.115H119.024V100.237H131.902V113.115ZM119.304 112.835H131.621V100.518H119.304V112.835Z" fill="#D6D2D2"/>
<path d="M116.402 127.658H103.524V114.781H116.402V127.658ZM103.804 127.378H116.122V115.061H103.804V127.378Z" fill="#D6D2D2"/>
<path d="M131.902 127.658H119.024V114.781H131.902V127.658ZM119.304 127.378H131.621V115.061H119.304V127.378Z" fill="#D6D2D2"/>
<g opacity="0.8">
<mask id="mask0_1_2119" style="mask-type:luminance" maskUnits="userSpaceOnUse" x="35" y="34" width="105" height="96">
<path d="M139.998 34.8579H35.325V130H139.998V34.8579Z" fill="white"/>
</mask>
<g mask="url(#mask0_1_2119)">
<mask id="mask1_1_2119" style="mask-type:luminance" maskUnits="userSpaceOnUse" x="39" y="38" width="98" height="10">
<path d="M136.007 38.8318H39.2823V47.3402H136.007V38.8318Z" fill="white"/>
</mask>
<g mask="url(#mask1_1_2119)">
<path d="M136.008 38.8317H39.2825V47.34H136.008V38.8317Z" fill="#D3D3D3"/>
<path d="M87.6453 47.34C101.001 47.34 113.731 47.1091 125.29 46.6804C128.175 46.565 131.012 46.4496 133.749 46.3177C135.117 46.2517 136.469 46.1858 137.805 46.1198H136.568V38.2875H38.7221V46.1198H37.4854C38.821 46.1858 40.1732 46.2682 41.5418 46.3177C44.279 46.4496 47.0985 46.565 50.0006 46.6804C61.576 47.1091 74.2891 47.34 87.6453 47.34Z" fill="#D3D3D3"/>
<path d="M87.645 46.763C100.111 46.763 111.983 46.5322 122.783 46.1364C128.175 45.9385 133.32 45.6912 138.118 45.4109H136.568V38.2711H38.7218V45.4109H37.1718C41.9701 45.6912 47.1148 45.9385 52.5067 46.1364C63.3071 46.5322 75.1792 46.763 87.645 46.763Z" fill="#D2D2D2"/>
<path d="M87.6453 46.2022C99.2206 46.2022 110.252 46.0044 120.277 45.6251C125.29 45.4437 130.055 45.2129 134.524 44.9491C135.645 44.8831 136.733 44.8172 137.805 44.7512H136.568V38.2875H38.7221V44.7512H37.4854C38.5572 44.8172 39.662 44.8831 40.7668 44.9491C45.2353 45.2129 50.0006 45.4437 55.0133 45.6251C65.0387 46.0044 76.0699 46.2022 87.6453 46.2022Z" fill="#D1D1D1"/>
<path d="M87.6449 45.6416C98.3299 45.6416 108.504 45.4602 117.771 45.114C122.404 44.9491 126.79 44.7347 130.912 44.4874C132.973 44.372 134.952 44.24 136.865 44.0916H136.568V38.2875H38.7218V44.0916H38.425C40.3377 44.2235 42.3164 44.3555 44.3776 44.4874C48.4998 44.7347 52.8859 44.9491 57.5193 45.114C66.7697 45.4602 76.96 45.6416 87.6449 45.6416Z" fill="#D0D0D0"/>
<path d="M87.6453 45.0646C107.234 45.0646 124.96 44.3721 137.805 43.2343H136.568V38.2711H38.7221V43.2343H37.4854C50.3139 44.3556 68.0562 45.0646 87.6453 45.0646Z" fill="#CFCFCF"/>
<path d="M87.6452 44.504C105.453 44.504 121.58 43.8609 133.238 42.8386C134.705 42.7067 136.09 42.5748 137.393 42.4429H136.552V38.2711H38.7056V42.4429H37.8646C39.1838 42.5913 40.5688 42.7232 42.0199 42.8386C53.6941 43.8609 69.804 44.504 87.6122 44.504" fill="#CECECE"/>
<path d="M87.6452 43.9268C103.673 43.9268 118.183 43.3496 128.687 42.4263C131.308 42.1954 133.683 41.9481 135.777 41.6678C136.816 41.5358 137.789 41.3874 138.679 41.2555H136.568V38.2545H38.7221V41.2555H36.6115C37.5019 41.4039 38.4747 41.5358 39.5135 41.6678C41.6077 41.9481 43.9821 42.1954 46.6038 42.4263C57.1074 43.3496 71.6178 43.9268 87.6452 43.9268Z" fill="#CDCDCD"/>
<path d="M87.645 43.3662C116.138 43.3662 139.239 41.338 139.239 38.8317C139.239 37.5785 133.468 36.4408 124.135 35.6163V38.2711H51.1712V35.6163C41.8384 36.4408 36.0672 37.562 36.0672 38.8317C36.0672 41.338 59.1684 43.3662 87.6616 43.3662" fill="#CCCCCC"/>
<path d="M87.6449 42.8055C112.576 42.8055 132.792 41.0247 132.792 38.8317C132.792 36.6386 112.576 34.8578 87.6449 34.8578C62.7134 34.8578 42.4977 36.6386 42.4977 38.8317C42.4977 41.0247 62.7134 42.8055 87.6449 42.8055Z" fill="#CBCBCB"/>
<path d="M87.6452 42.2284C109.015 42.2284 126.345 40.7114 126.345 38.8317C126.345 36.9519 109.015 35.4349 87.6452 35.4349C66.2753 35.4349 48.9453 36.9519 48.9453 38.8317C48.9453 40.7114 66.2753 42.2284 87.6452 42.2284Z" fill="#CACACA"/>
<path d="M87.6451 41.6679C105.453 41.6679 119.881 40.3982 119.881 38.8317C119.881 37.2653 105.437 35.9956 87.6451 35.9956C69.8533 35.9956 55.4088 37.2653 55.4088 38.8317C55.4088 40.3982 69.8533 41.6679 87.6451 41.6679Z" fill="#C9C9C9"/>
<path d="M87.6449 41.1071C101.891 41.1071 113.434 40.0848 113.434 38.8316C113.434 37.5785 101.891 36.5562 87.6449 36.5562C73.3983 36.5562 61.8559 37.562 61.8559 38.8316C61.8559 40.1013 73.3983 41.1071 87.6449 41.1071Z" fill="#C8C8C8"/>
<path d="M87.6451 40.5301C98.33 40.5301 106.987 39.7716 106.987 38.8317C106.987 37.8918 98.33 37.1333 87.6451 37.1333C76.9602 37.1333 68.3034 37.8918 68.3034 38.8317C68.3034 39.7716 76.9602 40.5301 87.6451 40.5301Z" fill="#C7C7C7"/>
<path d="M87.645 39.9695C94.7683 39.9695 100.539 39.4583 100.539 38.8317C100.539 38.2051 94.7683 37.694 87.645 37.694C80.5217 37.694 74.7505 38.2051 74.7505 38.8317C74.7505 39.4583 80.5217 39.9695 87.645 39.9695Z" fill="#C6C6C6"/>
<path d="M87.6449 39.3924C91.2065 39.3924 94.0921 39.145 94.0921 38.8317C94.0921 38.5185 91.2065 38.2711 87.6449 38.2711C84.0832 38.2711 81.1976 38.5185 81.1976 38.8317C81.1976 39.145 84.0832 39.3924 87.6449 39.3924Z" fill="#C5C5C4"/>
</g>
<mask id="mask2_1_2119" style="mask-type:luminance" maskUnits="userSpaceOnUse" x="39" y="38" width="9" height="90">
<path d="M47.7907 38.8318H39.2823V127.065H47.7907V38.8318Z" fill="white"/>
</mask>
<g mask="url(#mask2_1_2119)">
<path d="M47.7907 38.8317H39.2823V127.065H47.7907V38.8317Z" fill="#D3D3D3"/>
<path d="M47.791 82.94C47.791 70.7545 47.5436 59.1462 47.1149 48.5932C46.9995 45.9549 46.884 43.3826 46.7521 40.8763C46.6862 39.6231 46.6202 38.4029 46.5543 37.1827V38.2545H38.722V127.592H46.5543V128.664C46.6202 127.444 46.7027 126.224 46.7521 124.971C46.884 122.464 46.9995 119.892 47.1149 117.254C47.5436 106.701 47.791 95.0924 47.791 82.907" fill="#D3D3D3"/>
<path d="M47.2303 82.94C47.2303 71.5625 47.016 60.7457 46.6037 50.8852C46.4059 45.955 46.1585 41.2721 45.8782 36.9025V38.2711H38.7385V127.609H45.8782V128.978C46.1585 124.591 46.4059 119.909 46.6037 114.995C46.9995 105.151 47.2303 94.3175 47.2303 82.94Z" fill="#D2D2D2"/>
<path d="M46.6532 82.94C46.6532 72.387 46.4554 62.3286 46.0761 53.1772C45.8948 48.6097 45.6639 44.2566 45.4001 40.1838C45.3341 39.1614 45.2682 38.1721 45.2022 37.1827V38.2545H38.7385V127.592H45.2022V128.664C45.2682 127.675 45.3506 126.686 45.4001 125.663C45.6639 121.59 45.8948 117.254 46.0761 112.67C46.4554 103.518 46.6532 93.46 46.6532 82.907" fill="#D1D1D1"/>
<path d="M46.0926 82.94C46.0926 73.1949 45.9112 63.9116 45.5649 55.4691C45.3835 51.2479 45.1857 47.2411 44.9384 43.4816C44.823 41.6018 44.691 39.788 44.5426 38.0402V38.271H38.7385V127.609H44.5426V127.84C44.6745 126.092 44.8065 124.278 44.9384 122.398C45.1857 118.639 45.4 114.632 45.5649 110.411C45.9112 101.968 46.0926 92.685 46.0926 82.94Z" fill="#D0D0D0"/>
<path d="M45.532 82.94C45.532 65.0658 44.8394 48.89 43.7017 37.1827V38.2545H38.7385V127.592H43.7017V128.664C44.823 116.957 45.532 100.781 45.532 82.9235" fill="#CFCFCF"/>
<path d="M44.9548 82.94C44.9548 66.6982 44.3118 51.99 43.2895 41.3545C43.1576 40.0189 43.0256 38.7657 42.8937 37.562V38.271H38.722V127.609H42.8937V128.318C43.0256 127.114 43.174 125.861 43.2895 124.525C44.3118 113.874 44.9548 99.1818 44.9548 82.94Z" fill="#CECECE"/>
<path d="M44.3942 82.9399C44.3942 68.3141 43.8171 55.0899 42.8937 45.5097C42.6628 43.1188 42.4155 40.9422 42.1352 39.046C42.0033 38.0896 41.8549 37.2157 41.7065 36.3912V38.271H38.722V127.609H41.7065V129.489C41.8549 128.664 41.9868 127.79 42.1352 126.834C42.399 124.938 42.6628 122.761 42.8937 120.37C43.8171 110.79 44.3942 97.5658 44.3942 82.9399Z" fill="#CDCDCD"/>
<path d="M43.8169 82.94C43.8169 56.9532 41.7887 35.8801 39.2824 35.8801C38.0292 35.8801 36.8915 41.1401 36.067 49.665H38.7053V116.215H36.067C36.8915 124.723 38.0127 130 39.2824 130C41.7887 130 43.8169 108.927 43.8169 82.94Z" fill="#CCCCCC"/>
<path d="M43.2563 82.94C43.2563 60.2015 41.4755 41.7667 39.2824 41.7667C37.0894 41.7667 35.3086 60.2015 35.3086 82.94C35.3086 105.678 37.0894 124.113 39.2824 124.113C41.4755 124.113 43.2563 105.678 43.2563 82.94Z" fill="#CBCBCB"/>
<path d="M42.6959 82.94C42.6959 63.4499 41.1789 47.6533 39.2991 47.6533C37.4194 47.6533 35.9024 63.4499 35.9024 82.94C35.9024 102.43 37.4194 118.227 39.2991 118.227C41.1789 118.227 42.6959 102.43 42.6959 82.94Z" fill="#CACACA"/>
<path d="M42.1185 82.94C42.1185 66.6982 40.8488 53.5234 39.2824 53.5234C37.7159 53.5234 36.4463 66.6982 36.4463 82.94C36.4463 99.1817 37.7159 112.357 39.2824 112.357C40.8488 112.357 42.1185 99.1817 42.1185 82.94Z" fill="#C9C9C9"/>
<path d="M41.558 82.94C41.558 69.9466 40.5356 59.41 39.2825 59.41C38.0293 59.41 37.007 69.9466 37.007 82.94C37.007 95.9334 38.0128 106.47 39.2825 106.47C40.5521 106.47 41.558 95.9334 41.558 82.94Z" fill="#C8C8C8"/>
<path d="M40.9806 82.94C40.9806 73.1949 40.2221 65.2966 39.2823 65.2966C38.3424 65.2966 37.5839 73.1949 37.5839 82.94C37.5839 92.685 38.3424 100.583 39.2823 100.583C40.2221 100.583 40.9806 92.685 40.9806 82.94Z" fill="#C7C7C7"/>
<path d="M40.4202 82.94C40.4202 76.4432 39.909 71.1832 39.2824 71.1832C38.6558 71.1832 38.1447 76.4432 38.1447 82.94C38.1447 89.4367 38.6558 94.6967 39.2824 94.6967C39.909 94.6967 40.4202 89.4367 40.4202 82.94Z" fill="#C6C6C6"/>
<path d="M39.8597 82.94C39.8597 79.6916 39.6124 77.0533 39.2991 77.0533C38.9858 77.0533 38.7385 79.6916 38.7385 82.94C38.7385 86.1883 38.9858 88.8266 39.2991 88.8266C39.6124 88.8266 39.8597 86.1883 39.8597 82.94Z" fill="#C5C5C4"/>
</g>
<mask id="mask3_1_2119" style="mask-type:luminance" maskUnits="userSpaceOnUse" x="127" y="38" width="10" height="90">
<path d="M136.024 38.8318H127.516V127.065H136.024V38.8318Z" fill="white"/>
</mask>
<g mask="url(#mask3_1_2119)">
<path d="M136.024 38.8317H127.516V127.065H136.024V38.8317Z" fill="#D3D3D3"/>
<path d="M127.516 82.94C127.516 70.7545 127.763 59.1462 128.192 48.5932C128.307 45.9549 128.423 43.3826 128.554 40.8763C128.62 39.6231 128.686 38.4029 128.752 37.1827V38.2545H136.585V127.592H128.752V128.664C128.686 127.444 128.604 126.224 128.554 124.971C128.423 122.464 128.307 119.892 128.192 117.254C127.763 106.701 127.516 95.0924 127.516 82.907" fill="#D3D3D3"/>
<path d="M128.076 82.94C128.076 71.5625 128.307 60.7457 128.703 50.8852C128.901 45.955 129.148 41.2721 129.428 36.9025V38.2711H136.568V127.609H129.428V128.978C129.148 124.591 128.901 119.909 128.703 114.995C128.307 105.151 128.076 94.3175 128.076 82.94Z" fill="#D2D2D2"/>
<path d="M128.653 82.94C128.653 72.387 128.851 62.3286 129.23 53.1772C129.412 48.6097 129.643 44.2566 129.906 40.1838C129.972 39.1614 130.038 38.1721 130.104 37.1827V38.2545H136.568V127.592H130.104V128.664C130.038 127.675 129.972 126.686 129.906 125.663C129.643 121.59 129.412 117.254 129.23 112.67C128.851 103.518 128.653 93.46 128.653 82.907" fill="#D1D1D1"/>
<path d="M129.214 82.94C129.214 73.1949 129.412 63.9116 129.742 55.4691C129.923 51.2479 130.121 47.2411 130.368 43.4816C130.484 41.6018 130.616 39.788 130.764 38.0402V38.271H136.568V127.609H130.764V127.84C130.632 126.092 130.5 124.278 130.368 122.398C130.121 118.639 129.906 114.632 129.742 110.411C129.395 101.968 129.214 92.685 129.214 82.94Z" fill="#D0D0D0"/>
<path d="M129.774 82.94C129.774 65.0658 130.467 48.89 131.605 37.1827V38.2545H136.568V127.592H131.605V128.664C130.483 116.957 129.774 100.781 129.774 82.9235" fill="#CFCFCF"/>
<path d="M130.352 82.94C130.352 66.6982 130.995 51.99 132.017 41.3545C132.149 40.0189 132.281 38.7657 132.413 37.562V38.271H136.585V127.609H132.413V128.318C132.281 127.114 132.132 125.861 132.017 124.525C130.995 113.874 130.352 99.1818 130.352 82.94Z" fill="#CECECE"/>
<path d="M130.912 82.9399C130.912 68.3141 131.49 55.0899 132.413 45.5097C132.644 43.1188 132.891 40.9422 133.171 39.046C133.303 38.0896 133.452 37.2157 133.6 36.3912V38.271H136.601V127.609H133.6V129.489C133.452 128.664 133.32 127.79 133.171 126.834C132.908 124.938 132.644 122.761 132.413 120.37C131.49 110.79 130.912 97.5658 130.912 82.9399Z" fill="#CDCDCD"/>
<path d="M131.489 82.94C131.489 56.9532 133.517 35.8801 136.024 35.8801C137.277 35.8801 138.415 41.1401 139.239 49.665H136.601V116.215H139.239C138.415 124.723 137.293 130 136.024 130C133.517 130 131.489 108.927 131.489 82.94Z" fill="#CCCCCC"/>
<path d="M132.05 82.94C132.05 60.2015 133.831 41.7667 136.024 41.7667C138.217 41.7667 139.998 60.2015 139.998 82.94C139.998 105.678 138.217 124.113 136.024 124.113C133.831 124.113 132.05 105.678 132.05 82.94Z" fill="#CBCBCB"/>
<path d="M132.611 82.94C132.611 63.4499 134.128 47.6533 136.008 47.6533C137.887 47.6533 139.404 63.4499 139.404 82.94C139.404 102.43 137.887 118.227 136.008 118.227C134.128 118.227 132.611 102.43 132.611 82.94Z" fill="#CACACA"/>
<path d="M133.188 82.94C133.188 66.6982 134.457 53.5234 136.024 53.5234C137.59 53.5234 138.86 66.6982 138.86 82.94C138.86 99.1817 137.59 112.357 136.024 112.357C134.457 112.357 133.188 99.1817 133.188 82.94Z" fill="#C9C9C9"/>
<path d="M133.749 82.94C133.749 69.9466 134.771 59.41 136.024 59.41C137.277 59.41 138.299 69.9466 138.299 82.94C138.299 95.9334 137.294 106.47 136.024 106.47C134.754 106.47 133.749 95.9334 133.749 82.94Z" fill="#C8C8C8"/>
<path d="M134.309 82.94C134.309 73.1949 135.067 65.2966 136.007 65.2966C136.947 65.2966 137.706 73.1949 137.706 82.94C137.706 92.685 136.947 100.583 136.007 100.583C135.067 100.583 134.309 92.685 134.309 82.94Z" fill="#C7C7C7"/>
<path d="M134.886 82.94C134.886 76.4432 135.397 71.1832 136.024 71.1832C136.65 71.1832 137.162 76.4432 137.162 82.94C137.162 89.4367 136.65 94.6967 136.024 94.6967C135.397 94.6967 134.886 89.4367 134.886 82.94Z" fill="#C6C6C6"/>
<path d="M135.447 82.94C135.447 79.6916 135.694 77.0533 136.008 77.0533C136.321 77.0533 136.568 79.6916 136.568 82.94C136.568 86.1883 136.321 88.8266 136.008 88.8266C135.694 88.8266 135.447 86.1883 135.447 82.94Z" fill="#C5C5C4"/>
</g>
</g>
</g>
<path d="M39.2329 0.560669H1.5224V38.2547V125.795H39.2329V38.2547H135.826V125.795H173.537V38.2547V0.560669H39.2329Z" fill="white"/>
<path d="M38.656 38.5351C38.5076 38.5351 38.3757 38.4032 38.3757 38.2548V0.56071C38.3757 0.412308 38.5076 0.280396 38.656 0.280396C38.8044 0.280396 38.9363 0.412308 38.9363 0.56071V38.2383C38.9363 38.3867 38.8044 38.5186 38.656 38.5186" fill="#BBBBBB"/>
<path d="M68.8143 38.5351C68.6659 38.5351 68.5339 38.4032 68.5339 38.2548V0.56071C68.5339 0.412308 68.6659 0.280396 68.8143 0.280396C68.9627 0.280396 69.0946 0.412308 69.0946 0.56071V38.2383C69.0946 38.3867 68.9627 38.5186 68.8143 38.5186" fill="#BBBBBB"/>
<path d="M173.603 79.4115H135.892C135.744 79.4115 135.612 79.2795 135.612 79.1311C135.612 78.9827 135.744 78.8508 135.892 78.8508H173.603C173.751 78.8508 173.883 78.9827 173.883 79.1311C173.883 79.2795 173.751 79.4115 173.603 79.4115Z" fill="#BBBBBB"/>
<path d="M173.537 38.535H135.826C135.678 38.535 135.546 38.4031 135.546 38.2547C135.546 38.1063 135.678 37.9744 135.826 37.9744H173.537C173.685 37.9744 173.817 38.1063 173.817 38.2547C173.817 38.4031 173.685 38.535 173.537 38.535Z" fill="#BBBBBB"/>
<path d="M107.003 38.5351C106.855 38.5351 106.723 38.4032 106.723 38.2548V0.56071C106.723 0.412308 106.855 0.280396 107.003 0.280396C107.152 0.280396 107.283 0.412308 107.283 0.56071V38.2383C107.283 38.3867 107.152 38.5186 107.003 38.5186" fill="#BBBBBB"/>
<path d="M135.678 38.5351C135.529 38.5351 135.397 38.4032 135.397 38.2548V0.56071C135.397 0.412308 135.529 0.280396 135.678 0.280396C135.826 0.280396 135.958 0.412308 135.958 0.56071V38.2383C135.958 38.3867 135.826 38.5186 135.678 38.5186" fill="#BBBBBB"/>
<path d="M142.735 43.1025H166.759C168.573 43.1025 170.041 44.5701 170.041 46.3839V72.4201C170.041 74.2339 168.573 75.7015 166.759 75.7015H142.735C140.921 75.7015 139.453 74.2339 139.453 72.4201V46.3839C139.453 44.5701 140.921 43.1025 142.735 43.1025Z" fill="white"/>
<path d="M166.76 75.9817H142.735C140.773 75.9817 139.173 74.3823 139.173 72.4201V46.3838C139.173 44.4216 140.773 42.8221 142.735 42.8221H166.76C168.722 42.8221 170.321 44.4216 170.321 46.3838V72.4201C170.321 74.3823 168.722 75.9817 166.743 75.9817M142.719 43.3663C141.053 43.3663 139.701 44.7184 139.701 46.3673V72.4036C139.701 74.069 141.053 75.4046 142.719 75.4046H166.743C168.408 75.4046 169.761 74.0525 169.761 72.4036V46.3673C169.761 44.7019 168.408 43.3663 166.743 43.3663H142.719Z" fill="#BBBBBB"/>
<path d="M162.324 73.5909H144.615C143.131 73.5909 141.91 72.2058 141.91 70.5074V48.2801C141.91 46.5817 143.131 45.1967 144.615 45.1967H162.324C163.808 45.1967 165.028 46.5817 165.028 48.2801V70.5074C165.028 72.2058 163.824 73.5909 162.324 73.5909ZM144.615 45.7573C143.427 45.7573 142.471 46.895 142.471 48.2801V70.5074C142.471 71.8925 143.427 73.0302 144.615 73.0302H162.324C163.511 73.0302 164.467 71.8925 164.467 70.5074V48.2801C164.467 46.895 163.511 45.7573 162.324 45.7573H144.615Z" fill="#BBBBBB"/>
<path d="M163.791 57.8767H150.237V61.0591H163.791V57.8767Z" fill="white"/>
<path d="M163.792 61.3395H150.238C150.089 61.3395 149.957 61.2076 149.957 61.0591V57.8768C149.957 57.7284 150.089 57.5964 150.238 57.5964H163.792C163.94 57.5964 164.072 57.7284 164.072 57.8768V61.0591C164.072 61.2076 163.957 61.3395 163.792 61.3395ZM150.518 60.7788H163.511V58.1406H150.518V60.7788Z" fill="#BBBBBB"/>
<path d="M96.9613 18.6162C93.3996 18.6162 90.481 15.7141 90.481 12.1524C90.481 8.5908 93.3831 5.68872 96.9613 5.68872C100.539 5.68872 103.441 8.5908 103.441 12.1524C103.441 15.7141 100.539 18.6162 96.9613 18.6162ZM96.9613 6.23286C93.6964 6.23286 91.0416 8.8876 91.0416 12.136C91.0416 15.3843 93.6964 18.0391 96.9613 18.0391C100.226 18.0391 102.881 15.3843 102.881 12.136C102.881 8.8876 100.226 6.23286 96.9613 6.23286Z" fill="#BBBBBB"/>
<path d="M96.9612 32.4011C94.4878 32.4011 92.4761 30.3894 92.4761 27.9161C92.4761 25.4427 94.4878 23.431 96.9612 23.431C99.4345 23.431 101.446 25.4427 101.446 27.9161C101.446 30.3894 99.4345 32.4011 96.9612 32.4011ZM96.9612 23.9752C94.8011 23.9752 93.0367 25.7395 93.0367 27.8996C93.0367 30.0596 94.8011 31.824 96.9612 31.824C99.1212 31.824 100.902 30.0596 100.902 27.8996C100.902 25.7395 99.1377 23.9752 96.9612 23.9752Z" fill="#BBBBBB"/>
<path d="M78.9223 32.4011C75.3607 32.4011 72.442 29.499 72.442 25.9374C72.442 22.3757 75.3442 19.4736 78.9223 19.4736C82.5005 19.4736 85.4025 22.3757 85.4025 25.9374C85.4025 29.499 82.5005 32.4011 78.9223 32.4011ZM78.9223 20.0178C75.6575 20.0178 73.0027 22.6725 73.0027 25.9209C73.0027 29.1692 75.6575 31.824 78.9223 31.824C82.1872 31.824 84.8418 29.1692 84.8418 25.9209C84.8418 22.6725 82.1872 20.0178 78.9223 20.0178Z" fill="#BBBBBB"/>
<path d="M78.9222 14.6588C76.4489 14.6588 74.4371 12.6471 74.4371 10.1738C74.4371 7.70039 76.4489 5.68872 78.9222 5.68872C81.3956 5.68872 83.4072 7.70039 83.4072 10.1738C83.4072 12.6471 81.3956 14.6588 78.9222 14.6588ZM78.9222 6.23286C76.7457 6.23286 74.9978 7.99719 74.9978 10.1573C74.9978 12.3173 76.7621 14.0817 78.9222 14.0817C81.0823 14.0817 82.863 12.3173 82.863 10.1573C82.863 7.99719 81.0988 6.23286 78.9222 6.23286Z" fill="#BBBBBB"/>
<path d="M38.7218 78.3397H1.01124C0.862842 78.3397 0.730957 78.2078 0.730957 78.0594C0.730957 77.911 0.862842 77.7791 1.01124 77.7791H38.7218C38.8702 77.7791 39.0021 77.911 39.0021 78.0594C39.0021 78.2078 38.8702 78.3397 38.7218 78.3397Z" fill="#BBBBBB"/>
<path d="M20.1388 113.379C19.9904 113.379 19.8585 113.247 19.8585 113.099V92.949C19.8585 92.8006 19.9904 92.6687 20.1388 92.6687C20.2872 92.6687 20.4191 92.8006 20.4191 92.949V113.099C20.4191 113.247 20.2872 113.379 20.1388 113.379Z" fill="#BBBBBB"/>
<path d="M30.2299 103.304H10.0637C9.91533 103.304 9.78345 103.172 9.78345 103.024C9.78345 102.875 9.91533 102.744 10.0637 102.744H30.2299C30.3783 102.744 30.5102 102.875 30.5102 103.024C30.5102 103.172 30.3783 103.304 30.2299 103.304Z" fill="#BBBBBB"/>
<path d="M13.0155 110.427C13.0155 110.427 12.8671 110.394 12.8176 110.345C12.7022 110.23 12.7022 110.065 12.8176 109.949L27.0642 95.7027C27.1796 95.5872 27.3445 95.5872 27.4599 95.7027C27.5754 95.8181 27.5754 95.983 27.4599 96.0984L13.1969 110.345C13.1969 110.345 13.0649 110.427 12.999 110.427" fill="#BBBBBB"/>
<path d="M27.2785 110.427C27.2785 110.427 27.1301 110.394 27.0807 110.345L12.8176 96.0984C12.7022 95.983 12.7022 95.8181 12.8176 95.7027C12.933 95.5872 13.0979 95.5872 13.2133 95.7027L27.4764 109.949C27.5919 110.065 27.5919 110.23 27.4764 110.345C27.427 110.394 27.3445 110.427 27.2785 110.427Z" fill="#BBBBBB"/>
<path d="M39.2331 38.535H1.5225C1.3741 38.535 1.24222 38.4031 1.24222 38.2547C1.24222 38.1063 1.3741 37.9744 1.5225 37.9744H39.2331C39.3815 37.9744 39.5134 38.1063 39.5134 38.2547C39.5134 38.4031 39.3815 38.535 39.2331 38.535Z" fill="#BBBBBB"/>
<path d="M173.536 126.356H135.826C135.513 126.356 135.265 126.109 135.265 125.795V38.8153H39.7934V125.812C39.7934 126.125 39.5461 126.372 39.2328 126.372H1.52226C1.20897 126.372 0.961639 126.125 0.961639 125.812V0.560629C0.961639 0.247336 1.20897 0 1.52226 0H173.52C173.833 0 174.081 0.247336 174.081 0.560629V125.795C174.081 126.109 173.833 126.356 173.52 126.356M136.37 125.235H172.959V1.12126H2.06643V125.235H38.6557V38.2547C38.6557 37.9414 38.9031 37.6941 39.2164 37.6941H135.809C136.123 37.6941 136.37 37.9414 136.37 38.2547V125.251V125.235Z" fill="#595A5C"/>
<path d="M29.7188 23.9586C32.0602 23.9586 33.9729 25.8549 33.9729 28.2128C33.9729 30.5707 32.0767 32.467 29.7188 32.467C27.3608 32.467 25.4646 30.5707 25.4646 28.2128C25.4646 25.8549 27.3608 23.9586 29.7188 23.9586Z" fill="white"/>
<path d="M29.7189 32.7309C27.2126 32.7309 25.1844 30.7027 25.1844 28.1964C25.1844 25.69 27.2126 23.6619 29.7189 23.6619C32.2253 23.6619 34.2534 25.69 34.2534 28.1964C34.2534 30.7027 32.2253 32.7309 29.7189 32.7309ZM29.7189 24.2225C27.5259 24.2225 25.745 26.0033 25.745 28.1964C25.745 30.3894 27.5259 32.1702 29.7189 32.1702C31.912 32.1702 33.6928 30.3894 33.6928 28.1964C33.6928 26.0033 31.912 24.2225 29.7189 24.2225Z" fill="#BBBBBB"/>
<path d="M23.8457 35.355L23.8028 35.9139L30.7079 36.444L30.7508 35.8851L23.8457 35.355Z" fill="#BBBBBB"/>
<path d="M29.7848 26.9101L29.6529 26.366L36.4134 24.8325L36.5454 25.3767L29.7848 26.9101Z" fill="#BBBBBB"/>
<path d="M20.1553 33.2914C19.1 33.2914 18.2426 32.434 18.2426 31.3787C18.2426 30.3234 19.1 29.4659 20.1553 29.4659C21.2106 29.4659 22.068 30.3234 22.068 31.3787C22.068 32.434 21.2106 33.2914 20.1553 33.2914ZM20.1553 30.0266C19.4133 30.0266 18.8032 30.6367 18.8032 31.3787C18.8032 32.1207 19.4133 32.7308 20.1553 32.7308C20.8973 32.7308 21.5074 32.1207 21.5074 31.3787C21.5074 30.6367 20.8973 30.0266 20.1553 30.0266Z" fill="#BBBBBB"/>
<path d="M46.6693 34.0005C46.5704 34.0994 46.0757 33.8026 45.5646 33.3245C45.0534 32.8463 44.7072 32.3846 44.7896 32.2691C44.8886 32.1702 45.0534 32.1537 45.1523 32.2527C45.2513 32.3516 45.4986 32.2527 45.68 32.0383C45.8779 31.8239 45.9438 31.5766 45.8449 31.4942C45.4327 31.1149 46.5869 30.3399 47.6092 30.3234C48.1864 30.3234 48.747 30.208 48.8624 30.0926C49.39 29.5155 50.0991 29.8288 51.715 31.2963C52.6714 32.1702 53.3969 32.6979 53.4959 32.5824C53.5948 32.4835 53.9905 32.6814 54.3862 33.0441C54.8809 33.4893 55.2931 33.6542 55.7218 33.5553C56.3649 33.4234 57.1399 33.8851 56.8431 34.2314C56.7442 34.3303 56.9256 34.6601 57.2389 34.9404C57.5522 35.2207 57.717 35.534 57.6346 35.6494C57.5357 35.7483 57.7995 36.1441 58.2118 36.5233C58.624 36.9026 58.8878 37.2983 58.7888 37.3973C58.6899 37.4962 58.8713 37.826 59.1846 38.1063C59.4979 38.3866 59.6792 38.6999 59.5803 38.8153C59.4813 38.9143 59.6627 39.244 59.976 39.5243C60.2893 39.8047 60.4543 40.118 60.3718 40.2334C60.2729 40.3323 60.4543 40.6621 60.7676 40.9424C61.1633 41.3052 61.2457 41.5525 61.0478 41.7669C60.8994 41.9318 60.8005 42.5419 60.85 43.119C60.8994 43.6961 60.8499 44.2732 60.718 44.3886C60.6026 44.5205 60.5531 45.0812 60.5861 45.6583C60.6356 46.2354 60.5532 46.829 60.4212 46.9609C60.2893 47.1093 60.2399 47.5051 60.3058 47.8349C60.3718 48.1811 60.3059 48.5769 60.1575 48.7418C60.0091 48.9066 59.9431 49.3189 60.009 49.6487C60.075 49.9784 60.0091 50.3907 59.8607 50.5556C59.7123 50.7204 59.6463 51.1327 59.7122 51.4625C59.7782 51.7922 59.7122 52.2374 59.5309 52.4188C59.366 52.6002 59.3 52.831 59.4154 52.93C59.5144 53.0289 59.3659 53.3587 59.0856 53.672C58.8053 53.9853 58.6569 54.3151 58.7558 54.414C58.8548 54.5129 58.4756 55.0901 57.8985 55.7166C57.3213 56.3432 56.7771 56.7719 56.6782 56.673C56.5793 56.5741 56.2495 56.7555 55.9692 57.0687C55.6889 57.382 55.3591 57.5634 55.2602 57.4645C55.1612 57.3655 54.8314 57.5469 54.5511 57.8602C54.2708 58.1735 53.941 58.3549 53.8421 58.256C53.7432 58.157 53.4958 58.256 53.3144 58.4703C53.1166 58.6847 52.8858 58.7671 52.7703 58.6847C52.6714 58.5857 52.3416 58.7671 52.0613 59.0804C51.7809 59.3937 51.4512 59.5751 51.3522 59.4762C51.2533 59.3772 51.006 59.4762 50.8246 59.6905C50.6267 59.9049 50.3959 59.9873 50.297 59.9049C50.198 59.8059 49.9507 59.9049 49.7693 60.1192C49.5714 60.3336 49.3406 60.416 49.2416 60.3171C49.1427 60.2182 48.9119 60.3006 48.747 60.482C48.5821 60.6634 48.1534 60.7788 47.8071 60.7458C47.4608 60.7128 47.0486 60.8283 46.8672 61.0096C46.7023 61.191 46.4715 61.2735 46.3726 61.1745C46.2736 61.0756 46.0263 61.1745 45.8449 61.3724C45.647 61.5868 45.3667 61.6362 45.2018 61.4713C45.037 61.3229 44.4268 61.2405 43.8497 61.29C43.2726 61.3394 42.679 61.2735 42.5471 61.1416C42.3987 61.0096 42.0029 60.9602 41.6732 61.0426C41.2115 61.1415 40.8322 60.9767 40.1561 60.3501C39.6615 59.9049 39.3317 59.4432 39.4307 59.3442C39.5296 59.2453 39.3482 58.9155 39.0349 58.6352C38.7216 58.3549 38.5567 58.0416 38.6392 57.9262C38.7216 57.8108 38.6392 57.5799 38.4413 57.3985C38.2269 57.2171 38.1445 56.9698 38.2434 56.8709C38.3424 56.7719 38.2764 56.5576 38.1115 56.4092C37.9466 56.2608 37.8147 55.6672 37.7982 55.0901C37.7982 54.5129 37.6993 53.9523 37.5838 53.8369C37.4684 53.7379 37.3365 52.9135 37.3036 52.0231C37.2541 50.8029 37.3695 50.2587 37.7652 49.83C38.194 49.3683 38.2764 48.8077 38.194 47.0928C38.095 45.0977 38.1445 44.8833 38.87 44.0753C39.2987 43.5972 39.744 43.2839 39.8429 43.3828C39.9418 43.4817 40.2716 43.3004 40.5519 42.9871C40.8322 42.6738 41.162 42.4924 41.2609 42.5913C41.3599 42.6903 41.2609 42.9871 40.9971 43.2509C40.6014 43.6961 40.42 44.6195 40.7003 44.8668C40.7663 44.9163 41.0466 44.7019 41.3269 44.4051C41.6072 44.0918 41.7556 43.762 41.6566 43.6631C41.5577 43.5642 41.6237 43.3168 41.8215 43.119C42.2997 42.6078 42.3657 42.7232 42.4152 44.1743C42.4482 44.9493 42.2997 45.6088 42.0359 45.9056C41.7886 46.1695 41.6897 46.4663 41.7886 46.5487C41.8875 46.6476 41.7886 46.9444 41.5413 47.2083C41.0631 47.7359 41.0136 49.3189 41.4588 49.7311C41.6237 49.8795 41.6732 50.0774 41.5742 50.1928C41.4753 50.2917 41.5742 50.5391 41.7721 50.7204C41.97 50.9018 42.0689 51.1492 41.9699 51.2481C41.871 51.347 41.9699 51.5944 42.1678 51.7757C42.4151 52.0066 42.6625 51.9901 42.8933 51.7428C43.0912 51.5284 43.1572 51.2811 43.0582 51.1986C42.9593 51.0997 43.1901 50.6875 43.5694 50.2752C43.9486 49.863 44.1795 49.4343 44.0805 49.3354C43.9816 49.2364 44.13 48.9066 44.4103 48.5933C44.6907 48.2801 44.8555 47.9503 44.7401 47.8513C44.6247 47.7524 45.0699 47.1093 45.7625 46.3508C46.455 45.5923 47.0486 45.0977 47.164 45.1966C47.2794 45.2955 47.873 44.8009 48.5656 44.0424C49.2581 43.2839 49.8517 42.7892 49.9672 42.8881C50.0661 42.9871 50.6267 42.5583 51.1873 41.9153C51.748 41.2722 52.3086 40.86 52.4076 40.9424C52.6879 41.1897 53.1496 40.5961 53.1166 40.0025C53.1166 39.7222 52.9847 39.3759 52.8363 39.2605C52.7043 39.1286 52.6219 38.7494 52.6549 38.4031C52.6879 38.0568 52.5724 37.6446 52.3911 37.4632C52.2097 37.2818 52.1272 37.0675 52.2262 36.9685C52.3251 36.8696 51.9294 36.342 51.3522 35.8143C50.4289 34.9734 50.1815 34.8579 49.2581 34.9404C48.4667 35.0063 48.0379 34.8744 47.5268 34.4127C47.1475 34.0665 46.7683 33.8851 46.6693 33.984" fill="#010101"/>
</svg>
