<svg width="340" height="255" viewBox="0 0 340 255" fill="none" xmlns="http://www.w3.org/2000/svg">
<path d="M118.895 127.557H97.1279V105.791H118.895V127.557ZM97.6018 127.083H118.421V106.264H97.6018V127.083Z" fill="#D6D2D2"/>
<path d="M145.121 127.557H123.354V105.791H145.121V127.557ZM123.828 127.083H144.647V106.264H123.828V127.083Z" fill="#D6D2D2"/>
<path d="M118.895 152.139H97.1279V130.372H118.895V152.139ZM97.6018 151.665H118.421V130.846H97.6018V151.665Z" fill="#D6D2D2"/>
<path d="M145.121 152.139H123.354V130.372H145.121V152.139ZM123.828 151.665H144.647V130.846H123.828V151.665Z" fill="#D6D2D2"/>
<path d="M169.703 127.557H147.936V105.791H169.703V127.557ZM148.41 127.083H169.229V106.264H148.41V127.083Z" fill="#D6D2D2"/>
<path d="M195.901 127.557H174.134V105.791H195.901V127.557ZM174.608 127.083H195.427V106.264H174.608V127.083Z" fill="#D6D2D2"/>
<path d="M169.703 152.139H147.936V130.372H169.703V152.139ZM148.41 151.665H169.229V130.846H148.41V151.665Z" fill="#D6D2D2"/>
<path d="M195.901 152.139H174.134V130.372H195.901V152.139ZM174.608 151.665H195.427V130.846H174.608V151.665Z" fill="#D6D2D2"/>
<path d="M220.51 127.557H198.744V105.791H220.51V127.557ZM199.217 127.083H220.037V106.264H199.217V127.083Z" fill="#D6D2D2"/>
<path d="M246.708 127.557H224.941V105.791H246.708V127.557ZM225.415 127.083H246.234V106.264H225.415V127.083Z" fill="#D6D2D2"/>
<path d="M220.51 152.139H198.744V130.372H220.51V152.139ZM199.217 151.665H220.037V130.846H199.217V151.665Z" fill="#D6D2D2"/>
<path d="M246.708 152.139H224.941V130.372H246.708V152.139ZM225.415 151.665H246.234V130.846H225.415V151.665Z" fill="#D6D2D2"/>
<path d="M118.895 176.721H97.1279V154.954H118.895V176.721ZM97.6018 176.247H118.421V155.428H97.6018V176.247Z" fill="#D6D2D2"/>
<path d="M145.121 176.721H123.354V154.954H145.121V176.721ZM123.828 176.247H144.647V155.428H123.828V176.247Z" fill="#D6D2D2"/>
<path d="M118.895 201.302H97.1279V179.535H118.895V201.302ZM97.6018 200.828H118.421V180.009H97.6018V200.828Z" fill="#D6D2D2"/>
<path d="M145.121 201.302H123.354V179.535H145.121V201.302ZM123.828 200.828H144.647V180.009H123.828V200.828Z" fill="#D6D2D2"/>
<path d="M169.703 176.721H147.936V154.954H169.703V176.721ZM148.41 176.247H169.229V155.428H148.41V176.247Z" fill="#D6D2D2"/>
<path d="M195.901 176.721H174.134V154.954H195.901V176.721ZM174.608 176.247H195.427V155.428H174.608V176.247Z" fill="#D6D2D2"/>
<path d="M169.703 201.302H147.936V179.535H169.703V201.302ZM148.41 200.828H169.229V180.009H148.41V200.828Z" fill="#D6D2D2"/>
<path d="M195.901 201.302H174.134V179.535H195.901V201.302ZM174.608 200.828H195.427V180.009H174.608V200.828Z" fill="#D6D2D2"/>
<path d="M220.51 176.721H198.744V154.954H220.51V176.721ZM199.217 176.247H220.037V155.428H199.217V176.247Z" fill="#D6D2D2"/>
<path d="M246.708 176.721H224.941V154.954H246.708V176.721ZM225.415 176.247H246.234V155.428H225.415V176.247Z" fill="#D6D2D2"/>
<path d="M220.51 201.302H198.744V179.535H220.51V201.302ZM199.217 200.828H220.037V180.009H199.217V200.828Z" fill="#D6D2D2"/>
<path d="M246.708 201.302H224.941V179.535H246.708V201.302ZM225.415 200.828H246.234V180.009H225.415V200.828Z" fill="#D6D2D2"/>
<path d="M118.895 226.19H97.1279V204.423H118.895V226.19ZM97.6018 225.716H118.421V204.897H97.6018V225.716Z" fill="#D6D2D2"/>
<path d="M145.121 226.19H123.354V204.423H145.121V226.19ZM123.828 225.716H144.647V204.897H123.828V225.716Z" fill="#D6D2D2"/>
<path d="M118.895 250.772H97.1279V229.005H118.895V250.772ZM97.6018 250.298H118.421V229.479H97.6018V250.298Z" fill="#D6D2D2"/>
<path d="M145.121 250.772H123.354V229.005H145.121V250.772ZM123.828 250.298H144.647V229.479H123.828V250.298Z" fill="#D6D2D2"/>
<path d="M169.703 226.19H147.936V204.423H169.703V226.19ZM148.41 225.716H169.229V204.897H148.41V225.716Z" fill="#D6D2D2"/>
<path d="M195.901 226.19H174.134V204.423H195.901V226.19ZM174.608 225.716H195.427V204.897H174.608V225.716Z" fill="#D6D2D2"/>
<path d="M169.703 250.772H147.936V229.005H169.703V250.772ZM148.41 250.298H169.229V229.479H148.41V250.298Z" fill="#D6D2D2"/>
<path d="M195.901 250.772H174.134V229.005H195.901V250.772ZM174.608 250.298H195.427V229.479H174.608V250.298Z" fill="#D6D2D2"/>
<path d="M220.51 226.19H198.744V204.423H220.51V226.19ZM199.217 225.716H220.037V204.897H199.217V225.716Z" fill="#D6D2D2"/>
<path d="M246.708 226.19H224.941V204.423H246.708V226.19ZM225.415 225.716H246.234V204.897H225.415V225.716Z" fill="#D6D2D2"/>
<path d="M220.51 250.772H198.744V229.005H220.51V250.772ZM199.217 250.298H220.037V229.479H199.217V250.298Z" fill="#D6D2D2"/>
<path d="M246.708 250.772H224.941V229.005H246.708V250.772ZM225.415 250.298H246.234V229.479H225.415V250.298Z" fill="#D6D2D2"/>
<g opacity="0.8">
<mask id="mask0_330_4" style="mask-type:luminance" maskUnits="userSpaceOnUse" x="83" y="93" width="178" height="162">
<path d="M260.393 93.9177H83.4719V254.729H260.393V93.9177Z" fill="white"/>
</mask>
<g mask="url(#mask0_330_4)">
<mask id="mask1_330_4" style="mask-type:luminance" maskUnits="userSpaceOnUse" x="90" y="100" width="164" height="16">
<path d="M253.648 100.635H90.1605V115.016H253.648V100.635Z" fill="white"/>
</mask>
<g mask="url(#mask1_330_4)">
<path d="M253.648 100.634H90.1608V115.015H253.648V100.634Z" fill="#D3D3D3"/>
<path d="M171.905 115.015C194.48 115.015 215.995 114.625 235.533 113.9C240.41 113.705 245.204 113.51 249.83 113.287C252.143 113.176 254.428 113.064 256.686 112.953H254.596V99.7145H89.2134V112.953H87.1232C89.3807 113.064 91.6661 113.204 93.9793 113.287C98.6058 113.51 103.372 113.705 108.277 113.9C127.842 114.625 149.33 115.015 171.905 115.015Z" fill="#D3D3D3"/>
<path d="M171.904 114.04C192.974 114.04 213.041 113.65 231.296 112.981C240.409 112.646 249.105 112.228 257.215 111.755H254.595V99.6868H89.213V111.755H86.5931C94.7034 112.228 103.399 112.646 112.513 112.981C130.768 113.65 150.834 114.04 171.904 114.04Z" fill="#D2D2D2"/>
<path d="M171.905 113.092C191.47 113.092 210.115 112.758 227.06 112.117C235.532 111.81 243.587 111.42 251.14 110.974C253.035 110.863 254.874 110.751 256.686 110.64H254.596V99.7145H89.2134V110.64H87.1232C88.9347 110.751 90.8021 110.863 92.6694 110.974C100.222 111.42 108.277 111.81 116.749 112.117C133.694 112.758 152.34 113.092 171.905 113.092Z" fill="#D1D1D1"/>
<path d="M171.904 112.145C189.964 112.145 207.16 111.838 222.823 111.253C230.655 110.974 238.068 110.612 245.036 110.194C248.52 109.999 251.864 109.776 255.097 109.525H254.595V99.7145H89.2129V109.525H88.7113C91.9443 109.748 95.2887 109.971 98.7725 110.194C105.74 110.612 113.154 110.974 120.985 111.253C136.62 111.838 153.844 112.145 171.904 112.145Z" fill="#D0D0D0"/>
<path d="M171.905 111.169C205.015 111.169 234.975 109.999 256.686 108.076H254.596V99.6868H89.2134V108.076H87.1232C108.806 109.971 138.795 111.169 171.905 111.169Z" fill="#CFCFCF"/>
<path d="M171.905 110.222C202.005 110.222 229.262 109.135 248.966 107.407C251.447 107.184 253.788 106.961 255.989 106.738H254.568V99.6868H89.1857V106.738H87.7643C89.9939 106.989 92.335 107.212 94.7876 107.407C114.52 109.135 141.749 110.222 171.849 110.222" fill="#CECECE"/>
<path d="M171.905 109.246C198.995 109.246 223.52 108.271 241.274 106.71C245.705 106.32 249.719 105.902 253.258 105.428C255.014 105.205 256.658 104.954 258.163 104.731H254.596V99.6588H89.2135V104.731H85.6461C87.1511 104.982 88.7955 105.205 90.5513 105.428C94.0908 105.902 98.1041 106.32 102.536 106.71C120.289 108.271 144.815 109.246 171.905 109.246Z" fill="#CDCDCD"/>
<path d="M171.904 108.299C220.064 108.299 259.11 104.871 259.11 100.634C259.11 98.5161 249.356 96.5931 233.581 95.1996V99.6867H110.255V95.1996C94.4807 96.5931 84.7261 98.4883 84.7261 100.634C84.7261 104.871 123.772 108.299 171.932 108.299" fill="#CCCCCC"/>
<path d="M171.904 107.351C214.044 107.351 248.213 104.341 248.213 100.634C248.213 96.9275 214.044 93.9175 171.904 93.9175C129.764 93.9175 95.5952 96.9275 95.5952 100.634C95.5952 104.341 129.764 107.351 171.904 107.351Z" fill="#CBCBCB"/>
<path d="M171.904 106.376C208.024 106.376 237.316 103.812 237.316 100.634C237.316 97.4571 208.024 94.8931 171.904 94.8931C135.785 94.8931 106.493 97.4571 106.493 100.634C106.493 103.812 135.785 106.376 171.904 106.376Z" fill="#CACACA"/>
<path d="M171.904 105.428C202.004 105.428 226.391 103.282 226.391 100.634C226.391 97.9867 201.976 95.8407 171.904 95.8407C141.832 95.8407 117.418 97.9867 117.418 100.634C117.418 103.282 141.832 105.428 171.904 105.428Z" fill="#C9C9C9"/>
<path d="M171.904 104.48C195.984 104.48 215.493 102.752 215.493 100.634C215.493 98.516 195.984 96.7881 171.904 96.7881C147.824 96.7881 128.315 98.4882 128.315 100.634C128.315 102.78 147.824 104.48 171.904 104.48Z" fill="#C8C8C8"/>
<path d="M171.904 103.505C189.964 103.505 204.596 102.223 204.596 100.634C204.596 99.0457 189.964 97.7637 171.904 97.7637C153.844 97.7637 139.213 99.0457 139.213 100.634C139.213 102.223 153.844 103.505 171.904 103.505Z" fill="#C7C7C7"/>
<path d="M171.904 102.557C183.944 102.557 193.699 101.693 193.699 100.634C193.699 99.5753 183.944 98.7113 171.904 98.7113C159.864 98.7113 150.11 99.5753 150.11 100.634C150.11 101.693 159.864 102.557 171.904 102.557Z" fill="#C6C6C6"/>
<path d="M171.904 101.582C177.924 101.582 182.801 101.164 182.801 100.634C182.801 100.105 177.924 99.6868 171.904 99.6868C165.884 99.6868 161.007 100.105 161.007 100.634C161.007 101.164 165.884 101.582 171.904 101.582Z" fill="#C5C5C4"/>
</g>
<mask id="mask2_330_4" style="mask-type:luminance" maskUnits="userSpaceOnUse" x="90" y="100" width="15" height="150">
<path d="M104.542 100.635H90.1605V249.768H104.542V100.635Z" fill="white"/>
</mask>
<g mask="url(#mask2_330_4)">
<path d="M104.542 100.634H90.1605V249.768H104.542V100.634Z" fill="#D3D3D3"/>
<path d="M104.542 175.187C104.542 154.591 104.124 134.97 103.399 117.133C103.204 112.674 103.009 108.326 102.786 104.09C102.675 101.972 102.563 99.9096 102.452 97.8472V99.6587H89.2133V250.66H102.452V252.472C102.563 250.409 102.702 248.347 102.786 246.229C103.009 241.992 103.204 237.645 103.399 233.185C104.124 215.348 104.542 195.728 104.542 175.131" fill="#D3D3D3"/>
<path d="M103.594 175.187C103.594 155.957 103.232 137.674 102.535 121.008C102.201 112.674 101.783 104.759 101.309 97.3735V99.6868H89.2412V250.688H101.309V253.001C101.783 245.588 102.201 237.673 102.535 229.367C103.204 212.729 103.594 194.418 103.594 175.187Z" fill="#D2D2D2"/>
<path d="M102.619 175.187C102.619 157.35 102.285 140.349 101.644 124.881C101.337 117.161 100.947 109.804 100.501 102.92C100.389 101.192 100.278 99.5194 100.166 97.8472V99.6587H89.2412V250.66H100.166V252.472C100.278 250.799 100.417 249.127 100.501 247.399C100.947 240.515 101.337 233.185 101.644 225.437C102.285 209.969 102.619 192.968 102.619 175.131" fill="#D1D1D1"/>
<path d="M101.671 175.187C101.671 158.716 101.365 143.025 100.779 128.755C100.473 121.621 100.139 114.848 99.7205 108.494C99.5254 105.316 99.3024 102.251 99.0515 99.2965V99.6867H89.2412V250.688H99.0515V251.078C99.2745 248.124 99.4975 245.058 99.7205 241.881C100.139 235.526 100.501 228.754 100.779 221.619C101.365 207.35 101.671 191.659 101.671 175.187Z" fill="#D0D0D0"/>
<path d="M100.724 175.187C100.724 144.976 99.5532 117.635 97.6302 97.8472V99.6587H89.2412V250.66H97.6302V252.472C99.5254 232.684 100.724 205.343 100.724 175.159" fill="#CFCFCF"/>
<path d="M99.7482 175.187C99.7482 147.735 98.6613 122.875 96.9334 104.898C96.7104 102.641 96.4874 100.523 96.2644 98.4883V99.6867H89.2133V250.688H96.2644V251.886C96.4874 249.852 96.7383 247.734 96.9334 245.476C98.6613 227.472 99.7482 202.64 99.7482 175.187Z" fill="#CECECE"/>
<path d="M98.8006 175.187C98.8006 150.466 97.8252 128.114 96.2644 111.922C95.8743 107.88 95.4562 104.202 94.9824 100.997C94.7595 99.38 94.5086 97.9029 94.2578 96.5094V99.6866H89.2133V250.688H94.2578V253.865C94.5086 252.472 94.7316 250.994 94.9824 249.378C95.4284 246.173 95.8743 242.494 96.2644 238.453C97.8252 222.26 98.8006 199.908 98.8006 175.187Z" fill="#CDCDCD"/>
<path d="M97.8249 175.187C97.8249 131.264 94.3969 95.6455 90.1606 95.6455C88.0425 95.6455 86.1195 104.536 84.726 118.945H89.1852V231.43H84.726C86.1195 245.811 88.0146 254.729 90.1606 254.729C94.3969 254.729 97.8249 219.111 97.8249 175.187Z" fill="#CCCCCC"/>
<path d="M96.8774 175.187C96.8774 136.754 93.8674 105.595 90.1606 105.595C86.4539 105.595 83.444 136.754 83.444 175.187C83.444 213.62 86.4539 244.779 90.1606 244.779C93.8674 244.779 96.8774 213.62 96.8774 175.187Z" fill="#CBCBCB"/>
<path d="M95.9302 175.187C95.9302 142.245 93.3661 115.545 90.1889 115.545C87.0117 115.545 84.4476 142.245 84.4476 175.187C84.4476 208.13 87.0117 234.83 90.1889 234.83C93.3661 234.83 95.9302 208.13 95.9302 175.187Z" fill="#CACACA"/>
<path d="M94.9543 175.187C94.9543 147.735 92.8083 125.467 90.1606 125.467C87.513 125.467 85.3669 147.735 85.3669 175.187C85.3669 202.64 87.513 224.908 90.1606 224.908C92.8083 224.908 94.9543 202.64 94.9543 175.187Z" fill="#C9C9C9"/>
<path d="M94.0067 175.187C94.0067 153.225 92.2787 135.416 90.1606 135.416C88.0425 135.416 86.3146 153.225 86.3146 175.187C86.3146 197.149 88.0146 214.958 90.1606 214.958C92.3066 214.958 94.0067 197.149 94.0067 175.187Z" fill="#C8C8C8"/>
<path d="M93.0309 175.187C93.0309 158.716 91.7489 145.366 90.1603 145.366C88.5717 145.366 87.2897 158.716 87.2897 175.187C87.2897 191.659 88.5717 205.009 90.1603 205.009C91.7489 205.009 93.0309 191.659 93.0309 175.187Z" fill="#C7C7C7"/>
<path d="M92.0837 175.187C92.0837 164.206 91.2197 155.316 90.1606 155.316C89.1015 155.316 88.2375 164.206 88.2375 175.187C88.2375 186.168 89.1015 195.059 90.1606 195.059C91.2197 195.059 92.0837 186.168 92.0837 175.187Z" fill="#C6C6C6"/>
<path d="M91.1364 175.187C91.1364 169.697 90.7183 165.238 90.1888 165.238C89.6593 165.238 89.2412 169.697 89.2412 175.187C89.2412 180.678 89.6593 185.137 90.1888 185.137C90.7183 185.137 91.1364 180.678 91.1364 175.187Z" fill="#C5C5C4"/>
</g>
<mask id="mask3_330_4" style="mask-type:luminance" maskUnits="userSpaceOnUse" x="239" y="100" width="15" height="150">
<path d="M253.675 100.635H239.294V249.768H253.675V100.635Z" fill="white"/>
</mask>
<g mask="url(#mask3_330_4)">
<path d="M253.676 100.634H239.295V249.768H253.676V100.634Z" fill="#D3D3D3"/>
<path d="M239.295 175.187C239.295 154.591 239.713 134.97 240.437 117.133C240.632 112.674 240.828 108.326 241.051 104.09C241.162 101.972 241.273 99.9096 241.385 97.8472V99.6587H254.623V250.66H241.385V252.472C241.273 250.409 241.134 248.347 241.051 246.229C240.828 241.992 240.632 237.645 240.437 233.185C239.713 215.348 239.295 195.728 239.295 175.131" fill="#D3D3D3"/>
<path d="M240.243 175.187C240.243 155.957 240.633 137.674 241.302 121.008C241.636 112.674 242.054 104.759 242.528 97.3735V99.6868H254.596V250.688H242.528V253.001C242.054 245.588 241.636 237.673 241.302 229.367C240.633 212.729 240.243 194.418 240.243 175.187Z" fill="#D2D2D2"/>
<path d="M241.218 175.187C241.218 157.35 241.552 140.349 242.193 124.881C242.5 117.161 242.89 109.804 243.336 102.92C243.447 101.192 243.559 99.5194 243.67 97.8472V99.6587H254.595V250.66H243.67V252.472C243.559 250.799 243.447 249.127 243.336 247.399C242.89 240.515 242.5 233.185 242.193 225.437C241.552 209.969 241.218 192.968 241.218 175.131" fill="#D1D1D1"/>
<path d="M242.165 175.187C242.165 158.716 242.5 143.025 243.057 128.755C243.364 121.621 243.698 114.848 244.116 108.494C244.311 105.316 244.534 102.251 244.785 99.2965V99.6867H254.595V250.688H244.785V251.078C244.562 248.124 244.339 245.058 244.116 241.881C243.698 235.526 243.336 228.754 243.057 221.619C242.472 207.35 242.165 191.659 242.165 175.187Z" fill="#D0D0D0"/>
<path d="M243.113 175.187C243.113 144.976 244.283 117.635 246.206 97.8472V99.6587H254.595V250.66H246.206V252.472C244.311 232.684 243.113 205.343 243.113 175.159" fill="#CFCFCF"/>
<path d="M244.088 175.187C244.088 147.735 245.175 122.875 246.903 104.898C247.126 102.641 247.349 100.523 247.572 98.4883V99.6867H254.623V250.688H247.572V251.886C247.349 249.852 247.098 247.734 246.903 245.476C245.175 227.472 244.088 202.64 244.088 175.187Z" fill="#CECECE"/>
<path d="M245.036 175.187C245.036 150.466 246.012 128.114 247.572 111.922C247.963 107.88 248.381 104.202 248.854 100.997C249.077 99.38 249.328 97.9029 249.579 96.5094V99.6866H254.651V250.688H249.579V253.865C249.328 252.472 249.105 250.994 248.854 249.378C248.408 246.173 247.963 242.494 247.572 238.453C246.012 222.26 245.036 199.908 245.036 175.187Z" fill="#CDCDCD"/>
<path d="M246.011 175.187C246.011 131.264 249.439 95.6455 253.676 95.6455C255.794 95.6455 257.717 104.536 259.11 118.945H254.651V231.43H259.11C257.717 245.811 255.822 254.729 253.676 254.729C249.439 254.729 246.011 219.111 246.011 175.187Z" fill="#CCCCCC"/>
<path d="M246.959 175.187C246.959 136.754 249.969 105.595 253.676 105.595C257.383 105.595 260.393 136.754 260.393 175.187C260.393 213.62 257.383 244.779 253.676 244.779C249.969 244.779 246.959 213.62 246.959 175.187Z" fill="#CBCBCB"/>
<path d="M247.907 175.187C247.907 142.245 250.471 115.545 253.648 115.545C256.825 115.545 259.389 142.245 259.389 175.187C259.389 208.13 256.825 234.83 253.648 234.83C250.471 234.83 247.907 208.13 247.907 175.187Z" fill="#CACACA"/>
<path d="M248.882 175.187C248.882 147.735 251.028 125.467 253.675 125.467C256.323 125.467 258.469 147.735 258.469 175.187C258.469 202.64 256.323 224.908 253.675 224.908C251.028 224.908 248.882 202.64 248.882 175.187Z" fill="#C9C9C9"/>
<path d="M249.83 175.187C249.83 153.225 251.558 135.416 253.676 135.416C255.794 135.416 257.522 153.225 257.522 175.187C257.522 197.149 255.822 214.958 253.676 214.958C251.53 214.958 249.83 197.149 249.83 175.187Z" fill="#C8C8C8"/>
<path d="M250.777 175.187C250.777 158.716 252.059 145.366 253.648 145.366C255.236 145.366 256.518 158.716 256.518 175.187C256.518 191.659 255.236 205.009 253.648 205.009C252.059 205.009 250.777 191.659 250.777 175.187Z" fill="#C7C7C7"/>
<path d="M251.753 175.187C251.753 164.206 252.617 155.316 253.676 155.316C254.735 155.316 255.599 164.206 255.599 175.187C255.599 186.168 254.735 195.059 253.676 195.059C252.617 195.059 251.753 186.168 251.753 175.187Z" fill="#C6C6C6"/>
<path d="M252.701 175.187C252.701 169.697 253.119 165.238 253.648 165.238C254.178 165.238 254.596 169.697 254.596 175.187C254.596 180.678 254.178 185.137 253.648 185.137C253.119 185.137 252.701 180.678 252.701 175.187Z" fill="#C5C5C4"/>
</g>
</g>
</g>
<path d="M90.0771 35.9476H26.3378V99.6591V247.622H90.0771V99.6591H253.341V247.622H317.081V99.6591V35.9476H90.0771Z" fill="white"/>
<path d="M89.102 100.133C88.8512 100.133 88.6282 99.91 88.6282 99.6591V35.9477C88.6282 35.6968 88.8512 35.4739 89.102 35.4739C89.3528 35.4739 89.5758 35.6968 89.5758 35.9477V99.6313C89.5758 99.8821 89.3528 100.105 89.102 100.105" fill="#BBBBBB"/>
<path d="M140.076 100.133C139.825 100.133 139.602 99.91 139.602 99.6591V35.9477C139.602 35.6968 139.825 35.4739 140.076 35.4739C140.327 35.4739 140.55 35.6968 140.55 35.9477V99.6313C140.55 99.8821 140.327 100.105 140.076 100.105" fill="#BBBBBB"/>
<path d="M317.192 169.223H253.453C253.202 169.223 252.979 169 252.979 168.749C252.979 168.499 253.202 168.276 253.453 168.276H317.192C317.443 168.276 317.666 168.499 317.666 168.749C317.666 169 317.443 169.223 317.192 169.223Z" fill="#BBBBBB"/>
<path d="M317.081 100.133H253.341C253.09 100.133 252.867 99.9099 252.867 99.6591C252.867 99.4083 253.09 99.1853 253.341 99.1853H317.081C317.331 99.1853 317.554 99.4083 317.554 99.6591C317.554 99.9099 317.331 100.133 317.081 100.133Z" fill="#BBBBBB"/>
<path d="M204.624 100.133C204.373 100.133 204.15 99.91 204.15 99.6591V35.9477C204.15 35.6968 204.373 35.4739 204.624 35.4739C204.875 35.4739 205.098 35.6968 205.098 35.9477V99.6313C205.098 99.8821 204.875 100.105 204.624 100.105" fill="#BBBBBB"/>
<path d="M253.09 100.133C252.839 100.133 252.616 99.91 252.616 99.6591V35.9477C252.616 35.6968 252.839 35.4739 253.09 35.4739C253.341 35.4739 253.564 35.6968 253.564 35.9477V99.6313C253.564 99.8821 253.341 100.105 253.09 100.105" fill="#BBBBBB"/>
<path d="M265.019 107.853H305.626C308.691 107.853 311.172 110.333 311.172 113.399V157.406C311.172 160.472 308.691 162.953 305.626 162.953H265.019C261.953 162.953 259.472 160.472 259.472 157.406V113.399C259.472 110.333 261.953 107.853 265.019 107.853Z" fill="white"/>
<path d="M305.626 163.426H265.019C261.702 163.426 258.999 160.723 258.999 157.406V113.399C258.999 110.082 261.702 107.379 265.019 107.379H305.626C308.942 107.379 311.646 110.082 311.646 113.399V157.406C311.646 160.723 308.942 163.426 305.598 163.426M264.991 108.299C262.176 108.299 259.891 110.584 259.891 113.371V157.378C259.891 160.193 262.176 162.451 264.991 162.451H305.598C308.413 162.451 310.698 160.165 310.698 157.378V113.371C310.698 110.556 308.413 108.299 305.598 108.299H264.991Z" fill="#BBBBBB"/>
<path d="M298.129 159.385H268.196C265.688 159.385 263.625 157.044 263.625 154.173V116.604C263.625 113.734 265.688 111.393 268.196 111.393H298.129C300.637 111.393 302.699 113.734 302.699 116.604V154.173C302.699 157.044 300.665 159.385 298.129 159.385ZM268.196 112.34C266.189 112.34 264.573 114.263 264.573 116.604V154.173C264.573 156.515 266.189 158.438 268.196 158.438H298.129C300.135 158.438 301.752 156.515 301.752 154.173V116.604C301.752 114.263 300.135 112.34 298.129 112.34H268.196Z" fill="#BBBBBB"/>
<path d="M300.609 132.825H277.7V138.204H300.609V132.825Z" fill="white"/>
<path d="M300.609 138.678H277.7C277.449 138.678 277.226 138.455 277.226 138.204V132.825C277.226 132.574 277.449 132.351 277.7 132.351H300.609C300.86 132.351 301.083 132.574 301.083 132.825V138.204C301.083 138.455 300.888 138.678 300.609 138.678ZM278.174 137.73H300.136V133.271H278.174V137.73Z" fill="#BBBBBB"/>
<path d="M187.651 66.4655C181.631 66.4655 176.698 61.5604 176.698 55.5404C176.698 49.5204 181.603 44.6152 187.651 44.6152C193.699 44.6152 198.604 49.5204 198.604 55.5404C198.604 61.5604 193.699 66.4655 187.651 66.4655ZM187.651 45.535C182.133 45.535 177.645 50.0221 177.645 55.5125C177.645 61.003 182.133 65.4901 187.651 65.4901C193.169 65.4901 197.656 61.003 197.656 55.5125C197.656 50.0221 193.169 45.535 187.651 45.535Z" fill="#BBBBBB"/>
<path d="M187.651 89.7652C183.47 89.7652 180.07 86.365 180.07 82.1845C180.07 78.0039 183.47 74.6038 187.651 74.6038C191.831 74.6038 195.231 78.0039 195.231 82.1845C195.231 86.365 191.831 89.7652 187.651 89.7652ZM187.651 75.5235C184 75.5235 181.018 78.5056 181.018 82.1566C181.018 85.8076 184 88.7897 187.651 88.7897C191.302 88.7897 194.312 85.8076 194.312 82.1566C194.312 78.5056 191.33 75.5235 187.651 75.5235Z" fill="#BBBBBB"/>
<path d="M157.161 89.7651C151.141 89.7651 146.208 84.8599 146.208 78.8399C146.208 72.82 151.113 67.9148 157.161 67.9148C163.209 67.9148 168.114 72.82 168.114 78.8399C168.114 84.8599 163.209 89.7651 157.161 89.7651ZM157.161 68.8345C151.643 68.8345 147.156 73.3216 147.156 78.8121C147.156 84.3025 151.643 88.7896 157.161 88.7896C162.679 88.7896 167.166 84.3025 167.166 78.8121C167.166 73.3216 162.679 68.8345 157.161 68.8345Z" fill="#BBBBBB"/>
<path d="M157.161 59.7767C152.98 59.7767 149.58 56.3765 149.58 52.196C149.58 48.0154 152.98 44.6152 157.161 44.6152C161.341 44.6152 164.742 48.0154 164.742 52.196C164.742 56.3765 161.341 59.7767 157.161 59.7767ZM157.161 45.535C153.482 45.535 150.528 48.5171 150.528 52.1681C150.528 55.8191 153.51 58.8012 157.161 58.8012C160.812 58.8012 163.822 55.8191 163.822 52.1681C163.822 48.5171 160.84 45.535 157.161 45.535Z" fill="#BBBBBB"/>
<path d="M89.2131 167.412H25.4737C25.2229 167.412 25 167.189 25 166.938C25 166.687 25.2229 166.464 25.4737 166.464H89.2131C89.4639 166.464 89.6869 166.687 89.6869 166.938C89.6869 167.189 89.4639 167.412 89.2131 167.412Z" fill="#BBBBBB"/>
<path d="M57.8038 226.636C57.553 226.636 57.33 226.413 57.33 226.162V192.105C57.33 191.854 57.553 191.631 57.8038 191.631C58.0546 191.631 58.2775 191.854 58.2775 192.105V226.162C58.2775 226.413 58.0546 226.636 57.8038 226.636Z" fill="#BBBBBB"/>
<path d="M74.8599 209.607H40.7745C40.5237 209.607 40.3008 209.384 40.3008 209.134C40.3008 208.883 40.5237 208.66 40.7745 208.66H74.8599C75.1108 208.66 75.3338 208.883 75.3338 209.134C75.3338 209.384 75.1108 209.607 74.8599 209.607Z" fill="#BBBBBB"/>
<path d="M45.7637 221.647C45.7637 221.647 45.5129 221.592 45.4293 221.508C45.2342 221.313 45.2342 221.034 45.4293 220.839L69.5092 196.759C69.7043 196.564 69.983 196.564 70.1781 196.759C70.3732 196.954 70.3732 197.233 70.1781 197.428L46.0703 221.508C46.0703 221.508 45.8473 221.647 45.7358 221.647" fill="#BBBBBB"/>
<path d="M69.8715 221.647C69.8715 221.647 69.6207 221.592 69.5371 221.508L45.4293 197.428C45.2342 197.233 45.2342 196.954 45.4293 196.759C45.6244 196.564 45.903 196.564 46.0981 196.759L70.206 220.839C70.4011 221.034 70.4011 221.313 70.206 221.508C70.1224 221.592 69.983 221.647 69.8715 221.647Z" fill="#BBBBBB"/>
<path d="M90.0772 100.133H26.3379C26.0871 100.133 25.8641 99.9099 25.8641 99.6591C25.8641 99.4083 26.0871 99.1853 26.3379 99.1853H90.0772C90.328 99.1853 90.551 99.4083 90.551 99.6591C90.551 99.9099 90.328 100.133 90.0772 100.133Z" fill="#BBBBBB"/>
<path d="M317.08 248.57H253.341C252.811 248.57 252.394 248.152 252.394 247.622V100.607H91.0245V247.65C91.0245 248.18 90.6065 248.598 90.0769 248.598H26.3376C25.8081 248.598 25.39 248.18 25.39 247.65V35.9476C25.39 35.4181 25.8081 35 26.3376 35H317.053C317.582 35 318 35.4181 318 35.9476V247.622C318 248.152 317.582 248.57 317.053 248.57M254.261 246.675H316.105V36.8952H27.2574V246.675H89.1015V99.6591C89.1015 99.1295 89.5196 98.7115 90.0491 98.7115H253.313C253.843 98.7115 254.261 99.1295 254.261 99.6591V246.703V246.675Z" fill="#595A5C"/>
<path d="M73.9959 75.4955C77.9535 75.4955 81.1864 78.7006 81.1864 82.686C81.1864 86.6715 77.9814 89.8766 73.9959 89.8766C70.0105 89.8766 66.8054 86.6715 66.8054 82.686C66.8054 78.7006 70.0105 75.4955 73.9959 75.4955Z" fill="white"/>
<path d="M73.9962 90.3226C69.76 90.3226 66.3319 86.8945 66.3319 82.6582C66.3319 78.4219 69.76 74.9939 73.9962 74.9939C78.2325 74.9939 81.6606 78.4219 81.6606 82.6582C81.6606 86.8945 78.2325 90.3226 73.9962 90.3226ZM73.9962 75.9415C70.2895 75.9415 67.2795 78.9515 67.2795 82.6582C67.2795 86.365 70.2895 89.375 73.9962 89.375C77.703 89.375 80.713 86.365 80.713 82.6582C80.713 78.9515 77.703 75.9415 73.9962 75.9415Z" fill="#BBBBBB"/>
<path d="M64.0692 94.7578L63.9967 95.7026L75.6679 96.5986L75.7404 95.6538L64.0692 94.7578Z" fill="#BBBBBB"/>
<path d="M74.1075 80.4842L73.8845 79.5645L85.3114 76.9725L85.5344 77.8923L74.1075 80.4842Z" fill="#BBBBBB"/>
<path d="M57.8315 91.27C56.0478 91.27 54.5985 89.8207 54.5985 88.037C54.5985 86.2533 56.0478 84.8041 57.8315 84.8041C59.6152 84.8041 61.0644 86.2533 61.0644 88.037C61.0644 89.8207 59.6152 91.27 57.8315 91.27ZM57.8315 85.7517C56.5773 85.7517 55.5461 86.7829 55.5461 88.037C55.5461 89.2912 56.5773 90.3224 57.8315 90.3224C59.0856 90.3224 60.1168 89.2912 60.1168 88.037C60.1168 86.7829 59.0856 85.7517 57.8315 85.7517Z" fill="#BBBBBB"/>
<path d="M102.646 92.4686C102.479 92.6358 101.643 92.1341 100.779 91.3259C99.9148 90.5177 99.3296 89.7373 99.4689 89.5422C99.6362 89.375 99.9148 89.3471 100.082 89.5143C100.249 89.6816 100.667 89.5143 100.974 89.152C101.308 88.7897 101.42 88.3717 101.253 88.2323C100.556 87.5913 102.507 86.2814 104.235 86.2535C105.21 86.2535 106.158 86.0584 106.353 85.8633C107.245 84.8879 108.443 85.4174 111.174 87.8979C112.791 89.375 114.017 90.2668 114.184 90.0717C114.352 89.9045 115.021 90.239 115.689 90.8521C116.525 91.6046 117.222 91.8833 117.947 91.7161C119.034 91.4931 120.344 92.2735 119.842 92.8588C119.675 93.026 119.981 93.5834 120.511 94.0572C121.041 94.531 121.319 95.0605 121.18 95.2556C121.013 95.4228 121.459 96.0917 122.155 96.7327C122.852 97.3738 123.298 98.0426 123.131 98.2099C122.964 98.3771 123.27 98.9345 123.8 99.4083C124.329 99.8821 124.636 100.412 124.469 100.607C124.301 100.774 124.608 101.331 125.137 101.805C125.667 102.279 125.946 102.808 125.806 103.004C125.639 103.171 125.946 103.728 126.475 104.202C127.144 104.815 127.283 105.233 126.949 105.595C126.698 105.874 126.531 106.905 126.615 107.881C126.698 108.856 126.615 109.832 126.392 110.027C126.196 110.25 126.113 111.197 126.169 112.173C126.252 113.148 126.113 114.152 125.89 114.375C125.667 114.625 125.583 115.294 125.695 115.852C125.806 116.437 125.695 117.106 125.444 117.385C125.193 117.663 125.082 118.36 125.193 118.917C125.305 119.475 125.193 120.172 124.942 120.45C124.692 120.729 124.58 121.426 124.692 121.983C124.803 122.541 124.692 123.293 124.385 123.6C124.106 123.906 123.995 124.296 124.19 124.464C124.357 124.631 124.106 125.188 123.632 125.718C123.159 126.247 122.908 126.805 123.075 126.972C123.242 127.139 122.601 128.115 121.626 129.174C120.65 130.233 119.731 130.957 119.563 130.79C119.396 130.623 118.839 130.93 118.365 131.459C117.891 131.989 117.334 132.295 117.167 132.128C116.999 131.961 116.442 132.267 115.968 132.797C115.494 133.326 114.937 133.633 114.77 133.466C114.602 133.299 114.184 133.466 113.878 133.828C113.543 134.19 113.153 134.33 112.958 134.19C112.791 134.023 112.233 134.33 111.76 134.859C111.286 135.389 110.728 135.695 110.561 135.528C110.394 135.361 109.976 135.528 109.669 135.89C109.335 136.253 108.945 136.392 108.778 136.253C108.61 136.086 108.192 136.253 107.886 136.615C107.551 136.977 107.161 137.117 106.994 136.95C106.827 136.782 106.436 136.922 106.158 137.228C105.879 137.535 105.154 137.73 104.569 137.674C103.984 137.618 103.287 137.814 102.981 138.12C102.702 138.427 102.312 138.566 102.144 138.399C101.977 138.232 101.559 138.399 101.253 138.733C100.918 139.096 100.444 139.179 100.166 138.9C99.887 138.65 98.8558 138.51 97.8803 138.594C96.9049 138.678 95.9015 138.566 95.6785 138.343C95.4277 138.12 94.7588 138.037 94.2014 138.176C93.4211 138.343 92.78 138.064 91.6373 137.005C90.8012 136.253 90.2439 135.472 90.4111 135.305C90.5783 135.138 90.2717 134.581 89.7422 134.107C89.2126 133.633 88.9339 133.103 89.0733 132.908C89.2126 132.713 89.0733 132.323 88.7389 132.017C88.3766 131.71 88.2372 131.292 88.4044 131.125C88.5717 130.957 88.4601 130.595 88.1814 130.344C87.9027 130.093 87.6798 129.09 87.6519 128.115C87.6519 127.139 87.4846 126.192 87.2896 125.997C87.0945 125.829 86.8715 124.436 86.8158 122.931C86.7322 120.868 86.9273 119.949 87.5962 119.224C88.3208 118.444 88.4602 117.496 88.3208 114.598C88.1536 111.225 88.2371 110.863 89.4634 109.497C90.1881 108.689 90.9406 108.16 91.1079 108.327C91.2751 108.494 91.8325 108.187 92.3063 107.658C92.7801 107.128 93.3374 106.822 93.5047 106.989C93.6719 107.156 93.5047 107.658 93.0587 108.104C92.3898 108.856 92.0833 110.417 92.5571 110.835C92.6686 110.919 93.1424 110.556 93.6162 110.055C94.09 109.525 94.3407 108.968 94.1735 108.801C94.0063 108.633 94.1178 108.215 94.4522 107.881C95.2605 107.017 95.372 107.212 95.4556 109.665C95.5114 110.974 95.2605 112.089 94.8146 112.591C94.3965 113.037 94.2293 113.539 94.3965 113.678C94.5638 113.845 94.3965 114.347 93.9785 114.793C93.1703 115.685 93.0866 118.36 93.8391 119.057C94.1178 119.308 94.2014 119.642 94.0342 119.837C93.867 120.004 94.0342 120.422 94.3686 120.729C94.7031 121.036 94.8703 121.454 94.7031 121.621C94.5358 121.788 94.703 122.206 95.0375 122.513C95.4555 122.903 95.8736 122.875 96.2638 122.457C96.5982 122.095 96.7097 121.677 96.5425 121.537C96.3753 121.37 96.7655 120.673 97.4065 119.977C98.0475 119.28 98.4377 118.555 98.2705 118.388C98.1032 118.221 98.3541 117.663 98.8279 117.134C99.3017 116.604 99.5803 116.047 99.3853 115.88C99.1902 115.712 99.9427 114.625 101.113 113.343C102.284 112.061 103.287 111.225 103.482 111.393C103.677 111.56 104.681 110.724 105.851 109.442C107.022 108.16 108.025 107.323 108.22 107.491C108.387 107.658 109.335 106.933 110.283 105.846C111.23 104.759 112.178 104.063 112.345 104.202C112.819 104.62 113.599 103.617 113.543 102.613C113.543 102.14 113.32 101.554 113.07 101.359C112.847 101.136 112.707 100.495 112.763 99.91C112.819 99.3247 112.624 98.6279 112.317 98.3213C112.011 98.0148 111.871 97.6525 112.038 97.4852C112.206 97.318 111.537 96.4262 110.561 95.5343C109.001 94.1129 108.583 93.9178 107.022 94.0572C105.684 94.1687 104.959 93.9457 104.095 93.1653C103.454 92.5801 102.813 92.2735 102.646 92.4407" fill="#010101"/>
<g filter="url(#filter0_d_330_4)">
<circle cx="37" cy="152" r="33" fill="white"/>
<circle cx="37" cy="152" r="32.5" stroke="black"/>
</g>
<g filter="url(#filter1_d_330_4)">
<circle cx="172" cy="33" r="33" fill="white"/>
<circle cx="172" cy="33" r="32.5" stroke="black"/>
</g>
<g filter="url(#filter2_d_330_4)">
<circle cx="303" cy="153" r="33" fill="white"/>
<circle cx="303" cy="153" r="32.5" stroke="black"/>
</g>
<path d="M31.008 157H27.384L34.584 140.104H37.896L45.096 157H41.424L39.768 153.112H32.664L31.008 157ZM36.216 144.424L33.744 150.256H38.664L36.216 144.424Z" fill="#31333C"/>
<path d="M172.296 40H163.848V23.2H171.744C174.816 23.2 176.832 24.712 176.832 27.4C176.832 29.104 175.872 30.256 174.72 30.736C175.656 30.928 176.448 31.432 177.12 32.224C177.792 33.016 178.128 34 178.128 35.224C178.128 36.64 177.6 37.792 176.544 38.68C175.488 39.568 174.072 40 172.296 40ZM167.304 32.632V37.024H171.648C173.352 37.024 174.384 36.256 174.384 34.84C174.384 33.424 173.352 32.632 171.648 32.632H167.304ZM167.304 26.08V29.776H171.192C172.632 29.776 173.496 29.104 173.496 27.952C173.496 26.776 172.632 26.08 171.192 26.08H167.304Z" fill="#31333C"/>
<path d="M305.368 162.336C302.752 162.336 300.592 161.52 298.864 159.888C297.136 158.232 296.272 156.144 296.272 153.6C296.272 151.032 297.136 148.944 298.84 147.312C300.568 145.68 302.752 144.864 305.368 144.864C307.024 144.864 308.488 145.224 309.808 145.92V149.4C308.512 148.536 307.048 148.104 305.392 148.104C303.784 148.104 302.464 148.632 301.384 149.664C300.328 150.696 299.8 151.992 299.8 153.6C299.8 155.208 300.352 156.528 301.432 157.56C302.512 158.592 303.88 159.096 305.536 159.096C307.36 159.096 308.896 158.616 310.144 157.632V161.112C308.776 161.928 307.192 162.336 305.368 162.336Z" fill="#31333C"/>
<defs>
<filter id="filter0_d_330_4" x="0" y="119" width="74" height="74" filterUnits="userSpaceOnUse" color-interpolation-filters="sRGB">
<feFlood flood-opacity="0" result="BackgroundImageFix"/>
<feColorMatrix in="SourceAlpha" type="matrix" values="0 0 0 0 0 0 0 0 0 0 0 0 0 0 0 0 0 0 127 0" result="hardAlpha"/>
<feOffset dy="4"/>
<feGaussianBlur stdDeviation="2"/>
<feComposite in2="hardAlpha" operator="out"/>
<feColorMatrix type="matrix" values="0 0 0 0 0 0 0 0 0 0 0 0 0 0 0 0 0 0 0.25 0"/>
<feBlend mode="normal" in2="BackgroundImageFix" result="effect1_dropShadow_330_4"/>
<feBlend mode="normal" in="SourceGraphic" in2="effect1_dropShadow_330_4" result="shape"/>
</filter>
<filter id="filter1_d_330_4" x="135" y="0" width="74" height="74" filterUnits="userSpaceOnUse" color-interpolation-filters="sRGB">
<feFlood flood-opacity="0" result="BackgroundImageFix"/>
<feColorMatrix in="SourceAlpha" type="matrix" values="0 0 0 0 0 0 0 0 0 0 0 0 0 0 0 0 0 0 127 0" result="hardAlpha"/>
<feOffset dy="4"/>
<feGaussianBlur stdDeviation="2"/>
<feComposite in2="hardAlpha" operator="out"/>
<feColorMatrix type="matrix" values="0 0 0 0 0 0 0 0 0 0 0 0 0 0 0 0 0 0 0.25 0"/>
<feBlend mode="normal" in2="BackgroundImageFix" result="effect1_dropShadow_330_4"/>
<feBlend mode="normal" in="SourceGraphic" in2="effect1_dropShadow_330_4" result="shape"/>
</filter>
<filter id="filter2_d_330_4" x="266" y="120" width="74" height="74" filterUnits="userSpaceOnUse" color-interpolation-filters="sRGB">
<feFlood flood-opacity="0" result="BackgroundImageFix"/>
<feColorMatrix in="SourceAlpha" type="matrix" values="0 0 0 0 0 0 0 0 0 0 0 0 0 0 0 0 0 0 127 0" result="hardAlpha"/>
<feOffset dy="4"/>
<feGaussianBlur stdDeviation="2"/>
<feComposite in2="hardAlpha" operator="out"/>
<feColorMatrix type="matrix" values="0 0 0 0 0 0 0 0 0 0 0 0 0 0 0 0 0 0 0.25 0"/>
<feBlend mode="normal" in2="BackgroundImageFix" result="effect1_dropShadow_330_4"/>
<feBlend mode="normal" in="SourceGraphic" in2="effect1_dropShadow_330_4" result="shape"/>
</filter>
</defs>
</svg>
