<svg width="189" height="139" viewBox="0 0 189 139" fill="none" xmlns="http://www.w3.org/2000/svg">
<path d="M30.7708 25.8129H19.5671V30.612H30.7708V25.8129Z" fill="white"/>
<path d="M30.9119 30.7707H19.4081V25.6716H30.9119V30.7707ZM19.7081 30.4707H30.6119V25.9716H19.7081V30.4707Z" fill="#D6D2D2"/>
<path d="M52.102 25.8129H40.8981V30.612H52.102V25.8129Z" fill="white"/>
<path d="M52.2433 30.7707H40.7396V25.6716H52.2433V30.7707ZM41.0395 30.4707H51.9434V25.9716H41.0395V30.4707Z" fill="#D6D2D2"/>
<path d="M73.4333 25.8129H62.2296V30.612H73.4333V25.8129Z" fill="white"/>
<path d="M73.5921 30.7707H62.0883V25.6716H73.5921V30.7707ZM62.3882 30.4707H73.292V25.9716H62.3882V30.4707Z" fill="#D6D2D2"/>
<path d="M94.7825 25.8129H83.5787V30.612H94.7825V25.8129Z" fill="white"/>
<path d="M94.9234 30.7707H83.4198V25.6716H94.9234V30.7707ZM83.7197 30.4707H94.6235V25.9716H83.7197V30.4707Z" fill="#D6D2D2"/>
<path d="M116.114 25.8129H104.91V30.612H116.114V25.8129Z" fill="white"/>
<path d="M116.272 30.7707H104.768V25.6716H116.272V30.7707ZM105.068 30.4707H115.972V25.9716H105.068V30.4707Z" fill="#D6D2D2"/>
<path d="M137.463 25.8129H126.259V30.612H137.463V25.8129Z" fill="white"/>
<path d="M137.604 30.7707H126.1V25.6716H137.604V30.7707ZM126.4 30.4707H137.304V25.9716H126.4V30.4707Z" fill="#D6D2D2"/>
<path d="M158.794 25.8129H147.59V30.612H158.794V25.8129Z" fill="white"/>
<path d="M158.953 30.7707H147.449V25.6716H158.953V30.7707ZM147.749 30.4707H158.653V25.9716H147.749V30.4707Z" fill="#D6D2D2"/>
<path d="M180.143 25.8129H168.939V30.612H180.143V25.8129Z" fill="white"/>
<path d="M180.284 30.7707H168.78V25.6716H180.284V30.7707ZM169.08 30.4707H179.984V25.9716H169.08V30.4707Z" fill="#D6D2D2"/>
<path d="M24.1365 53.5665H9.61575V39.0457H24.1365V53.5665ZM9.91567 53.2665H23.8366V39.3456H9.91567V53.2665Z" fill="#D6D2D2"/>
<path d="M38.3399 53.5665H23.8191V39.0457H38.3399V53.5665ZM24.119 53.2665H38.04V39.3456H24.119V53.2665Z" fill="#D6D2D2"/>
<path d="M24.1365 67.7873H9.61575V53.2665H24.1365V67.7873ZM9.91567 67.4874H23.8366V53.5664H9.91567V67.4874Z" fill="#D6D2D2"/>
<path d="M38.3399 67.7873H23.8191V53.2665H38.3399V67.7873ZM24.119 67.4874H38.04V53.5664H24.119V67.4874Z" fill="#D6D2D2"/>
<path d="M52.5609 53.5665H38.0401V39.0457H52.5609V53.5665ZM38.34 53.2665H52.2609V39.3456H38.34V53.2665Z" fill="#D6D2D2"/>
<path d="M66.7818 53.5665H52.261V39.0457H66.7818V53.5665ZM52.561 53.2665H66.4819V39.3456H52.561V53.2665Z" fill="#D6D2D2"/>
<path d="M52.5609 67.7873H38.0401V53.2665H52.5609V67.7873ZM38.34 67.4874H52.2609V53.5664H38.34V67.4874Z" fill="#D6D2D2"/>
<path d="M66.7818 67.7873H52.261V53.2665H66.7818V67.7873ZM52.561 67.4874H66.4819V53.5664H52.561V67.4874Z" fill="#D6D2D2"/>
<path d="M38.3399 81.9905H23.8191V67.4697H38.3399V81.9905ZM24.119 81.6906H38.04V67.7697H24.119V81.6906Z" fill="#D6D2D2"/>
<path d="M24.1365 96.2115H9.61575V81.6907H24.1365V96.2115ZM9.91567 95.9115H23.8366V81.9906H9.91567V95.9115Z" fill="#D6D2D2"/>
<path d="M38.3399 96.2115H23.8191V81.6907H38.3399V96.2115ZM24.119 95.9115H38.04V81.9906H24.119V95.9115Z" fill="#D6D2D2"/>
<path d="M52.5609 81.9905H38.0401V67.4697H52.5609V81.9905ZM38.34 81.6906H52.2609V67.7697H38.34V81.6906Z" fill="#D6D2D2"/>
<path d="M66.7818 81.9905H52.261V67.4697H66.7818V81.9905ZM52.561 81.6906H66.4819V67.7697H52.561V81.6906Z" fill="#D6D2D2"/>
<path d="M52.5609 96.2115H38.0401V81.6907H52.5609V96.2115ZM38.34 95.9115H52.2609V81.9906H38.34V95.9115Z" fill="#D6D2D2"/>
<path d="M66.7818 96.2115H52.261V81.6907H66.7818V96.2115ZM52.561 95.9115H66.4819V81.9906H52.561V95.9115Z" fill="#D6D2D2"/>
<path d="M81.0024 53.5665H66.4816V39.0457H81.0024V53.5665ZM66.7815 53.2665H80.7025V39.3456H66.7815V53.2665Z" fill="#D6D2D2"/>
<path d="M95.2233 53.5665H80.7026V39.0457H95.2233V53.5665ZM81.0025 53.2665H94.9234V39.3456H81.0025V53.2665Z" fill="#D6D2D2"/>
<path d="M81.0024 67.7873H66.4816V53.2665H81.0024V67.7873ZM66.7815 67.4874H80.7025V53.5664H66.7815V67.4874Z" fill="#D6D2D2"/>
<path d="M95.2233 67.7873H80.7026V53.2665H95.2233V67.7873ZM81.0025 67.4874H94.9234V53.5664H81.0025V67.4874Z" fill="#D6D2D2"/>
<path d="M109.427 53.5665H94.9059V39.0457H109.427V53.5665ZM95.2059 53.2665H109.127V39.3456H95.2059V53.2665Z" fill="#D6D2D2"/>
<path d="M123.648 53.5665H109.127V39.0457H123.648V53.5665ZM109.427 53.2665H123.348V39.3456H109.427V53.2665Z" fill="#D6D2D2"/>
<path d="M109.427 67.7873H94.9059V53.2665H109.427V67.7873ZM95.2059 67.4874H109.127V53.5664H95.2059V67.4874Z" fill="#D6D2D2"/>
<path d="M123.648 67.7873H109.127V53.2665H123.648V67.7873ZM109.427 67.4874H123.348V53.5664H109.427V67.4874Z" fill="#D6D2D2"/>
<path d="M81.0024 81.9905H66.4816V67.4697H81.0024V81.9905ZM66.7815 81.6906H80.7025V67.7697H66.7815V81.6906Z" fill="#D6D2D2"/>
<path d="M95.2233 81.9905H80.7026V67.4697H95.2233V81.9905ZM81.0025 81.6906H94.9234V67.7697H81.0025V81.6906Z" fill="#D6D2D2"/>
<path d="M81.0024 96.2115H66.4816V81.6907H81.0024V96.2115ZM66.7815 95.9115H80.7025V81.9906H66.7815V95.9115Z" fill="#D6D2D2"/>
<path d="M95.2233 96.2115H80.7026V81.6907H95.2233V96.2115ZM81.0025 95.9115H94.9234V81.9906H81.0025V95.9115Z" fill="#D6D2D2"/>
<path d="M109.427 81.9905H94.9059V67.4697H109.427V81.9905ZM95.2059 81.6906H109.127V67.7697H95.2059V81.6906Z" fill="#D6D2D2"/>
<path d="M123.648 81.9905H109.127V67.4697H123.648V81.9905ZM109.427 81.6906H123.348V67.7697H109.427V81.6906Z" fill="#D6D2D2"/>
<path d="M109.427 96.2115H94.9059V81.6907H109.427V96.2115ZM95.2059 95.9115H109.127V81.9906H95.2059V95.9115Z" fill="#D6D2D2"/>
<path d="M123.648 96.2115H109.127V81.6907H123.648V96.2115ZM109.427 95.9115H123.348V81.9906H109.427V95.9115Z" fill="#D6D2D2"/>
<path d="M137.868 53.5665H123.347V39.0457H137.868V53.5665ZM123.647 53.2665H137.568V39.3456H123.647V53.2665Z" fill="#D6D2D2"/>
<path d="M152.089 53.5665H137.568V39.0457H152.089V53.5665ZM137.868 53.2665H151.789V39.3456H137.868V53.2665Z" fill="#D6D2D2"/>
<path d="M137.868 67.7873H123.347V53.2665H137.868V67.7873ZM123.647 67.4874H137.568V53.5664H123.647V67.4874Z" fill="#D6D2D2"/>
<path d="M152.089 67.7873H137.568V53.2665H152.089V67.7873ZM137.868 67.4874H151.789V53.5664H137.868V67.4874Z" fill="#D6D2D2"/>
<path d="M166.31 53.5665H151.789V39.0457H166.31V53.5665ZM152.089 53.2665H166.01V39.3456H152.089V53.2665Z" fill="#D6D2D2"/>
<path d="M180.513 53.5665H165.993V39.0457H180.513V53.5665ZM166.293 53.2665H180.214V39.3456H166.293V53.2665Z" fill="#D6D2D2"/>
<path d="M166.31 67.7873H151.789V53.2665H166.31V67.7873ZM152.089 67.4874H166.01V53.5664H152.089V67.4874Z" fill="#D6D2D2"/>
<path d="M180.513 67.7873H165.993V53.2665H180.513V67.7873ZM166.293 67.4874H180.214V53.5664H166.293V67.4874Z" fill="#D6D2D2"/>
<path d="M137.868 81.9905H123.347V67.4697H137.868V81.9905ZM123.647 81.6906H137.568V67.7697H123.647V81.6906Z" fill="#D6D2D2"/>
<path d="M152.089 81.9905H137.568V67.4697H152.089V81.9905ZM137.868 81.6906H151.789V67.7697H137.868V81.6906Z" fill="#D6D2D2"/>
<path d="M137.868 96.2115H123.347V81.6907H137.868V96.2115ZM123.647 95.9115H137.568V81.9906H123.647V95.9115Z" fill="#D6D2D2"/>
<path d="M152.089 96.2115H137.568V81.6907H152.089V96.2115ZM137.868 95.9115H151.789V81.9906H137.868V95.9115Z" fill="#D6D2D2"/>
<path d="M166.31 81.9905H151.789V67.4697H166.31V81.9905ZM152.089 81.6906H166.01V67.7697H152.089V81.6906Z" fill="#D6D2D2"/>
<path d="M166.31 96.2115H151.789V81.6907H166.31V96.2115ZM152.089 95.9115H166.01V81.9906H152.089V95.9115Z" fill="#D6D2D2"/>
<path d="M180.513 96.2115H165.993V81.6907H180.513V96.2115ZM166.293 95.9115H180.214V81.9906H166.293V95.9115Z" fill="#D6D2D2"/>
<path d="M38.3399 110.432H23.8191V95.9115H38.3399V110.432ZM24.119 110.132H38.04V96.2114H24.119V110.132Z" fill="#D6D2D2"/>
<path d="M24.1365 124.653H9.61575V110.132H24.1365V124.653ZM9.91567 124.353H23.8366V110.432H9.91567V124.353Z" fill="#D6D2D2"/>
<path d="M38.3399 124.653H23.8191V110.132H38.3399V124.653ZM24.119 124.353H38.04V110.432H24.119V124.353Z" fill="#D6D2D2"/>
<path d="M52.5609 110.432H38.0401V95.9115H52.5609V110.432ZM38.34 110.132H52.2609V96.2114H38.34V110.132Z" fill="#D6D2D2"/>
<path d="M66.7818 110.432H52.261V95.9115H66.7818V110.432ZM52.561 110.132H66.4819V96.2114H52.561V110.132Z" fill="#D6D2D2"/>
<path d="M52.5609 124.653H38.0401V110.132H52.5609V124.653ZM38.34 124.353H52.2609V110.432H38.34V124.353Z" fill="#D6D2D2"/>
<path d="M66.7818 124.653H52.261V110.132H66.7818V124.653ZM52.561 124.353H66.4819V110.432H52.561V124.353Z" fill="#D6D2D2"/>
<path d="M38.3399 138.874H23.8191V124.353H38.3399V138.874ZM24.119 138.574H38.04V124.653H24.119V138.574Z" fill="#D6D2D2"/>
<path d="M66.7818 138.874H52.261V124.353H66.7818V138.874ZM52.561 138.574H66.4819V124.653H52.561V138.574Z" fill="#D6D2D2"/>
<path d="M81.0024 110.432H66.4816V95.9115H81.0024V110.432ZM66.7815 110.132H80.7025V96.2114H66.7815V110.132Z" fill="#D6D2D2"/>
<path d="M95.2233 110.432H80.7026V95.9115H95.2233V110.432ZM81.0025 110.132H94.9234V96.2114H81.0025V110.132Z" fill="#D6D2D2"/>
<path d="M81.0024 124.653H66.4816V110.132H81.0024V124.653ZM66.7815 124.353H80.7025V110.432H66.7815V124.353Z" fill="#D6D2D2"/>
<path d="M95.2233 124.653H80.7026V110.132H95.2233V124.653ZM81.0025 124.353H94.9234V110.432H81.0025V124.353Z" fill="#D6D2D2"/>
<path d="M109.427 110.432H94.9059V95.9115H109.427V110.432ZM95.2059 110.132H109.127V96.2114H95.2059V110.132Z" fill="#D6D2D2"/>
<path d="M123.648 110.432H109.127V95.9115H123.648V110.432ZM109.427 110.132H123.348V96.2114H109.427V110.132Z" fill="#D6D2D2"/>
<path d="M109.427 124.653H94.9059V110.132H109.427V124.653ZM95.2059 124.353H109.127V110.432H95.2059V124.353Z" fill="#D6D2D2"/>
<path d="M123.648 124.653H109.127V110.132H123.648V124.653ZM109.427 124.353H123.348V110.432H109.427V124.353Z" fill="#D6D2D2"/>
<path d="M95.2233 138.874H80.7026V124.353H95.2233V138.874ZM81.0025 138.574H94.9234V124.653H81.0025V138.574Z" fill="#D6D2D2"/>
<path d="M123.648 138.874H109.127V124.353H123.648V138.874ZM109.427 138.574H123.348V124.653H109.427V138.574Z" fill="#D6D2D2"/>
<path d="M137.868 110.432H123.347V95.9115H137.868V110.432ZM123.647 110.132H137.568V96.2114H123.647V110.132Z" fill="#D6D2D2"/>
<path d="M152.089 110.432H137.568V95.9115H152.089V110.432ZM137.868 110.132H151.789V96.2114H137.868V110.132Z" fill="#D6D2D2"/>
<path d="M137.868 124.653H123.347V110.132H137.868V124.653ZM123.647 124.353H137.568V110.432H123.647V124.353Z" fill="#D6D2D2"/>
<path d="M152.089 124.653H137.568V110.132H152.089V124.653ZM137.868 124.353H151.789V110.432H137.868V124.353Z" fill="#D6D2D2"/>
<path d="M166.31 110.432H151.789V95.9115H166.31V110.432ZM152.089 110.132H166.01V96.2114H152.089V110.132Z" fill="#D6D2D2"/>
<path d="M166.31 124.653H151.789V110.132H166.31V124.653ZM152.089 124.353H166.01V110.432H152.089V124.353Z" fill="#D6D2D2"/>
<path d="M180.513 124.653H165.993V110.132H180.513V124.653ZM166.293 124.353H180.214V110.432H166.293V124.353Z" fill="#D6D2D2"/>
<path d="M137.868 138.874H123.347V124.353H137.868V138.874ZM123.647 138.574H137.568V124.653H123.647V138.574Z" fill="#D6D2D2"/>
<path d="M166.31 138.874H151.789V124.353H166.31V138.874ZM152.089 138.574H166.01V124.653H152.089V138.574Z" fill="#D6D2D2"/>
<path d="M184.924 39.1868H4.07581V48.2909H184.924V39.1868Z" fill="#D3D3D3"/>
<path d="M94.4999 48.291C119.466 48.291 143.267 48.044 164.899 47.5853C170.315 47.4618 175.591 47.3383 180.707 47.1971C183.266 47.1266 185.789 47.056 188.277 46.9854H185.524V38.6046H3.47566V46.9854H0.723236C3.21101 47.056 5.73413 47.1442 8.29248 47.1971C13.4092 47.3383 18.6846 47.4618 24.1012 47.5853C45.7325 48.044 69.5163 48.291 94.4999 48.291Z" fill="#D3D3D3"/>
<path d="M94.5001 47.6912C117.808 47.6912 140.003 47.4441 160.205 47.0207C170.298 46.809 179.896 46.5443 188.877 46.2444H185.524V38.6046H3.47588V46.2444H0.123627C9.1043 46.5443 18.7025 46.809 28.7947 47.0207C48.9969 47.4441 71.1927 47.6912 94.5001 47.6912Z" fill="#D2D2D2"/>
<path d="M94.4999 47.0736C116.149 47.0736 136.757 46.8619 155.512 46.4561C164.881 46.262 173.791 46.015 182.136 45.7327C184.218 45.6621 186.265 45.5915 188.277 45.521H185.524V38.6046H3.47566V45.521H0.723236C2.73463 45.5915 4.78137 45.6621 6.86334 45.7327C15.2088 46.015 24.1189 46.262 33.4877 46.4561C52.243 46.8619 72.851 47.0736 94.4999 47.0736Z" fill="#D1D1D1"/>
<path d="M94.4998 46.4737C114.473 46.4737 133.51 46.2797 150.819 45.9091C159.482 45.7327 167.704 45.5033 175.396 45.2387C179.243 45.1152 182.966 44.974 186.53 44.8152H185.524V38.6046H3.47554V44.8152H2.46994C6.05162 44.9564 9.75681 45.0975 13.6032 45.2387C21.2958 45.5033 29.5178 45.7327 38.1809 45.9091C55.4894 46.2797 74.527 46.4737 94.4998 46.4737Z" fill="#D0D0D0"/>
<path d="M94.4999 45.8738C131.128 45.8738 164.281 45.1328 188.277 43.9154H185.524V38.6046H3.47566V43.9154H0.723236C24.7188 45.1152 57.8714 45.8738 94.4999 45.8738Z" fill="#CFCFCF"/>
<path d="M94.5001 45.2563C127.794 45.2563 157.929 44.5681 179.755 43.4742C182.49 43.3331 185.083 43.1919 187.536 43.0508H185.524V38.5869H3.47588V43.0508H1.46457C3.91705 43.2096 6.51064 43.3507 9.24542 43.4742C31.0531 44.5681 61.2063 45.2563 94.5001 45.2563Z" fill="#CECECE"/>
<path d="M94.4999 44.6564C124.459 44.6564 151.595 44.0388 171.233 43.0508C176.138 42.8038 180.584 42.5391 184.483 42.2392C185.453 42.1686 186.406 42.098 187.306 42.0098H185.524V38.5869H3.47566V42.0098H1.69373C2.59356 42.0804 3.54628 42.151 4.51669 42.2392C8.41596 42.5215 12.8622 42.8038 17.7672 43.0508C37.4047 44.0388 64.5231 44.6564 94.4999 44.6564Z" fill="#CDCDCD"/>
<path d="M94.5 44.0388C121.142 44.0388 145.243 43.4919 162.711 42.6273C171.444 42.1862 178.502 41.6569 183.372 41.0747C185.806 40.7924 187.712 40.4748 189 40.1572H185.524V38.5869H3.47577V40.1572H0C1.28799 40.4748 3.17586 40.7747 5.6107 41.0747C10.498 41.6569 17.5556 42.1862 26.2893 42.6273C43.7389 43.5095 67.8579 44.0388 94.4823 44.0388" fill="#CCCCCC"/>
<path d="M94.5 43.4389C141.115 43.4389 178.89 41.5333 178.89 39.1867C178.89 36.8401 141.097 34.9346 94.5 34.9346C47.9028 34.9346 10.1098 36.8401 10.1098 39.1867C10.1098 41.5333 47.9028 43.4389 94.5 43.4389Z" fill="#CBCBCB"/>
<path d="M94.5001 42.8391C134.446 42.8391 166.84 41.2158 166.84 39.2044C166.84 37.193 134.446 35.5698 94.5001 35.5698C54.5546 35.5698 22.1607 37.193 22.1607 39.2044C22.1607 41.2158 54.5546 42.8391 94.5001 42.8391Z" fill="#CACACA"/>
<path d="M94.5002 42.2216C127.794 42.2216 154.789 40.863 154.789 39.1868C154.789 37.5107 127.794 36.1521 94.5002 36.1521C61.2064 36.1521 34.2115 37.5107 34.2115 39.1868C34.2115 40.863 61.2064 42.2216 94.5002 42.2216Z" fill="#C9C9C9"/>
<path d="M94.5 41.6216C121.142 41.6216 142.72 40.5277 142.72 39.1868C142.72 37.8459 121.124 36.752 94.5 36.752C67.8756 36.752 46.2796 37.8282 46.2796 39.1868C46.2796 40.5454 67.8756 41.6216 94.5 41.6216Z" fill="#C8C8C8"/>
<path d="M94.5001 41.0217C114.473 41.0217 130.67 40.2101 130.67 39.2044C130.67 38.1987 114.473 37.3871 94.5001 37.3871C74.5274 37.3871 58.3304 38.1987 58.3304 39.2044C58.3304 40.2101 74.5274 41.0217 94.5001 41.0217Z" fill="#C7C7C7"/>
<path d="M94.5002 40.4042C107.821 40.4042 118.619 39.8572 118.619 39.1868C118.619 38.5163 107.821 37.9694 94.5002 37.9694C81.1792 37.9694 70.3812 38.5163 70.3812 39.1868C70.3812 39.8572 81.1792 40.4042 94.5002 40.4042Z" fill="#C6C6C6"/>
<path d="M94.5 39.8044C101.152 39.8044 106.551 39.5397 106.551 39.2045C106.551 38.8693 101.152 38.6046 94.5 38.6046C87.8483 38.6046 82.4493 38.8693 82.4493 39.2045C82.4493 39.5397 87.8483 39.8044 94.5 39.8044Z" fill="#C5C5C4"/>
<path d="M184.766 0.529297H4.07581V40.1748H184.766V0.529297Z" fill="white"/>
<path d="M144.855 40.5454C144.696 40.5454 144.555 40.4042 144.555 40.2454V0.599871C144.555 0.441077 144.696 0.299927 144.855 0.299927C145.014 0.299927 145.155 0.441077 145.155 0.599871V40.2454C145.155 40.4042 145.014 40.5454 144.855 40.5454Z" fill="#BBBBBB"/>
<path d="M123.93 40.863C123.771 40.863 123.63 40.7218 123.63 40.563V0.917498C123.63 0.758704 123.771 0.617554 123.93 0.617554C124.089 0.617554 124.23 0.758704 124.23 0.917498V40.563C124.23 40.7218 124.089 40.863 123.93 40.863Z" fill="#BBBBBB"/>
<path d="M77.2975 40.9511C77.1387 40.9511 76.9976 40.81 76.9976 40.6512V1.00563C76.9976 0.846839 77.1387 0.705688 77.2975 0.705688C77.4563 0.705688 77.5974 0.846839 77.5974 1.00563V40.6512C77.5974 40.81 77.4563 40.9511 77.2975 40.9511Z" fill="#BBBBBB"/>
<path d="M114.438 4.65796C116.343 4.65796 117.896 6.21061 117.896 8.11614V33.382C117.896 35.2875 116.343 36.8402 114.438 36.8402H87.0722C85.1666 36.8402 83.614 35.2875 83.614 33.382V8.11614C83.614 6.21061 85.1666 4.65796 87.0722 4.65796H114.438Z" fill="white"/>
<path d="M114.437 37.1401H87.0719C85.0076 37.1401 83.3138 35.464 83.3138 33.382V8.11615C83.3138 6.05183 85.0076 4.35803 87.0719 4.35803H114.437C116.502 4.35803 118.196 6.05183 118.196 8.11615V33.382C118.196 35.464 116.502 37.1401 114.437 37.1401ZM87.0719 4.95792C85.3252 4.95792 83.9137 6.36942 83.9137 8.11615V33.382C83.9137 35.1288 85.3252 36.5403 87.0719 36.5403H114.437C116.184 36.5403 117.596 35.1288 117.596 33.382V8.11615C117.596 6.36942 116.184 4.95792 114.437 4.95792H87.0719Z" fill="#BBBBBB"/>
<path d="M112.426 34.2289H89.0659C87.2662 34.2289 85.8195 32.9586 85.8195 31.3883V12.7741C85.8195 11.2038 87.2839 9.93347 89.0659 9.93347H112.426C114.208 9.93347 115.673 11.2038 115.673 12.7741V31.3883C115.673 32.9586 114.208 34.2289 112.426 34.2289ZM89.0659 10.5157C87.6015 10.5157 86.4193 11.5214 86.4193 12.7565V31.3706C86.4193 32.6057 87.6015 33.6114 89.0659 33.6114H112.426C113.891 33.6114 115.073 32.6057 115.073 31.3706V12.7565C115.073 11.5214 113.891 10.5157 112.426 10.5157H89.0659Z" fill="#BBBBBB"/>
<path d="M102.475 7.85144H99.0696V22.7957H102.475V7.85144Z" fill="white"/>
<path d="M102.475 23.0957H99.0698C98.911 23.0957 98.7698 22.9545 98.7698 22.7957V7.85146C98.7698 7.69266 98.911 7.55151 99.0698 7.55151H102.475C102.634 7.55151 102.775 7.69266 102.775 7.85146V22.7957C102.775 22.9545 102.634 23.0957 102.475 23.0957ZM99.3697 22.4958H102.175V8.1514H99.3697V22.4958Z" fill="#BBBBBB"/>
<path d="M175.273 20.7315H154.101C153.942 20.7315 153.801 20.5903 153.801 20.4315C153.801 20.2727 153.942 20.1316 154.101 20.1316H175.273C175.432 20.1316 175.573 20.2727 175.573 20.4315C175.573 20.5903 175.432 20.7315 175.273 20.7315Z" fill="#BBBBBB"/>
<path d="M164.669 31.3176C164.51 31.3176 164.369 31.1765 164.369 31.0177V9.82753C164.369 9.66874 164.51 9.52759 164.669 9.52759C164.828 9.52759 164.969 9.66874 164.969 9.82753V31.0177C164.969 31.1765 164.828 31.3176 164.669 31.3176Z" fill="#BBBBBB"/>
<path d="M172.168 28.2124C172.168 28.2124 172.009 28.1771 171.956 28.1242L156.977 13.1446C156.853 13.0211 156.853 12.8447 156.977 12.7212C157.1 12.5977 157.277 12.5977 157.4 12.7212L172.38 27.7007C172.503 27.8242 172.503 28.0007 172.38 28.1242C172.327 28.1771 172.238 28.2124 172.168 28.2124Z" fill="#BBBBBB"/>
<path d="M157.188 28.2124C157.188 28.2124 157.029 28.1771 156.977 28.1242C156.853 28.0007 156.853 27.8242 156.977 27.7007L171.956 12.7212C172.08 12.5977 172.256 12.5977 172.38 12.7212C172.503 12.8447 172.503 13.0211 172.38 13.1446L157.4 28.1242C157.4 28.1242 157.259 28.2124 157.188 28.2124Z" fill="#BBBBBB"/>
<path d="M19.1258 40.5454C18.967 40.5454 18.8257 40.4042 18.8257 40.2454V0.599871C18.8257 0.441077 18.967 0.299927 19.1258 0.299927C19.2846 0.299927 19.4257 0.441077 19.4257 0.599871V40.2454C19.4257 40.4042 19.2846 40.5454 19.1258 40.5454Z" fill="#BBBBBB"/>
<path d="M59.3359 40.5454C59.1771 40.5454 59.036 40.4042 59.036 40.2454V0.599871C59.036 0.441077 59.1771 0.299927 59.3359 0.299927C59.4947 0.299927 59.6358 0.441077 59.6358 0.599871V40.2454C59.6358 40.4042 59.4947 40.5454 59.3359 40.5454Z" fill="#BBBBBB"/>
<path d="M48.6792 19.6022C44.9211 19.6022 41.8686 16.5498 41.8686 12.7917C41.8686 9.03357 44.9211 5.9812 48.6792 5.9812C52.4373 5.9812 55.4897 9.03357 55.4897 12.7917C55.4897 16.5498 52.4373 19.6022 48.6792 19.6022ZM48.6792 6.58109C45.2563 6.58109 42.4686 9.3688 42.4686 12.7917C42.4686 16.2146 45.2563 19.0023 48.6792 19.0023C52.1021 19.0023 54.8897 16.2146 54.8897 12.7917C54.8897 9.3688 52.1021 6.58109 48.6792 6.58109Z" fill="#BBBBBB"/>
<path d="M48.6791 34.1054C46.0678 34.1054 43.9505 31.9881 43.9505 29.3768C43.9505 26.7656 46.0678 24.6483 48.6791 24.6483C51.2904 24.6483 53.4076 26.7656 53.4076 29.3768C53.4076 31.9881 51.2904 34.1054 48.6791 34.1054ZM48.6791 25.2482C46.403 25.2482 44.5504 27.1008 44.5504 29.3768C44.5504 31.6529 46.403 33.5055 48.6791 33.5055C50.9551 33.5055 52.8077 31.6529 52.8077 29.3768C52.8077 27.1008 50.9551 25.2482 48.6791 25.2482Z" fill="#BBBBBB"/>
<path d="M29.7474 34.1054C25.9892 34.1054 22.9369 31.053 22.9369 27.2949C22.9369 23.5367 25.9892 20.4844 29.7474 20.4844C33.5055 20.4844 36.5578 23.5367 36.5578 27.2949C36.5578 31.053 33.5055 34.1054 29.7474 34.1054ZM29.7474 21.0843C26.3245 21.0843 23.5368 23.872 23.5368 27.2949C23.5368 30.7178 26.3245 33.5055 29.7474 33.5055C33.1702 33.5055 35.958 30.7178 35.958 27.2949C35.958 23.872 33.1702 21.0843 29.7474 21.0843Z" fill="#BBBBBB"/>
<path d="M29.7473 15.4383C27.136 15.4383 25.0187 13.321 25.0187 10.7097C25.0187 8.09845 27.136 5.9812 29.7473 5.9812C32.3585 5.9812 34.4758 8.09845 34.4758 10.7097C34.4758 13.321 32.3585 15.4383 29.7473 15.4383ZM29.7473 6.58109C27.4712 6.58109 25.6187 8.43369 25.6187 10.7097C25.6187 12.9858 27.4712 14.8384 29.7473 14.8384C32.0233 14.8384 33.8759 12.9858 33.8759 10.7097C33.8759 8.43369 32.0233 6.58109 29.7473 6.58109Z" fill="#BBBBBB"/>
<path d="M184.836 40.8453H4.14624C3.81101 40.8453 3.54642 40.5807 3.54642 40.2454V0.599888C3.54642 0.264656 3.81101 0 4.14624 0H184.836C185.171 0 185.436 0.264656 185.436 0.599888V40.2454C185.436 40.5807 185.171 40.8453 184.836 40.8453ZM4.74618 39.6455H184.236V1.19978H4.74618V39.6455Z" fill="#595A5C"/>
<path d="M128.482 107.856C121.618 106.974 117.049 100.411 118.266 93.1944C119.484 85.9781 126.029 80.8438 132.875 81.7259C139.739 82.6081 144.308 89.1716 143.091 96.3879C141.873 103.604 135.328 108.739 128.482 107.856Z" fill="white"/>
<path d="M130.017 108.262C129.505 108.262 128.976 108.227 128.446 108.156C125.182 107.733 122.289 106.039 120.313 103.375C118.178 100.499 117.349 96.8643 117.966 93.1591C119.201 85.8017 125.906 80.5438 132.91 81.4436C136.174 81.8671 139.068 83.5609 141.044 86.2251C143.179 89.101 144.008 92.7357 143.391 96.4408C142.244 103.251 136.421 108.262 130.017 108.262ZM128.517 107.574C135.204 108.439 141.609 103.392 142.791 96.3526C143.391 92.8062 142.597 89.3304 140.55 86.578C138.68 84.0549 135.927 82.4317 132.822 82.0259C126.135 81.1613 119.73 86.2075 118.548 93.2473C117.948 96.7937 118.742 100.27 120.789 103.022C122.659 105.545 125.412 107.168 128.517 107.574Z" fill="#BBBBBB"/>
<path d="M140.321 96.2291C139.139 103.357 130.476 108.139 135.363 108.774C140.25 109.409 145.191 104.151 146.373 97.023C147.555 89.895 144.555 83.5961 139.668 82.961C134.781 82.3258 141.521 89.101 140.339 96.2467" fill="white"/>
<path d="M136.175 109.127C135.892 109.127 135.61 109.109 135.345 109.074C134.393 108.95 133.863 108.668 133.669 108.192C133.316 107.327 134.269 106.11 135.592 104.433C137.233 102.352 139.492 99.4932 140.038 96.1762C140.585 92.8592 139.368 89.5598 138.468 87.1426C137.745 85.2018 137.233 83.8079 137.833 83.0669C138.168 82.6434 138.768 82.5199 139.721 82.6434C141.591 82.8904 143.267 83.9314 144.538 85.6429C146.602 88.4306 147.414 92.7004 146.69 97.0407C145.543 103.922 140.938 109.109 136.192 109.109M139.103 83.1904C138.698 83.1904 138.433 83.2786 138.309 83.4374C137.921 83.9138 138.451 85.3076 139.05 86.9309C139.968 89.401 141.221 92.7886 140.638 96.2644C140.056 99.7226 137.762 102.651 136.086 104.786C134.975 106.198 134.022 107.415 134.251 107.945C134.357 108.192 134.763 108.368 135.451 108.456C140.18 109.074 144.961 103.904 146.126 96.9525C146.814 92.7533 146.055 88.6599 144.079 85.9957C142.897 84.4078 141.379 83.455 139.668 83.2257C139.474 83.208 139.28 83.1904 139.121 83.1904" fill="#BBBBBB"/>
<path d="M103.604 68.7578C117.119 68.7578 128.058 79.7146 128.058 93.2121C128.058 106.71 117.119 117.666 103.604 117.666C90.0888 117.666 79.1497 106.71 79.1497 93.2121C79.1497 79.7146 90.1064 68.7578 103.604 68.7578Z" fill="#C5C5C4"/>
<path fill-rule="evenodd" clip-rule="evenodd" d="M59.3361 69.3223C59.5655 68.8283 59.3008 68.4049 58.2951 68.0167C54.237 66.4641 49.2263 69.7281 47.109 75.3036C44.9918 80.879 46.562 86.6662 50.6201 88.2188C51.6434 88.607 52.1022 88.4658 52.2786 87.9365C54.2194 89.7891 56.8307 90.9359 59.7242 90.9359C65.6702 90.9359 70.487 86.1016 70.487 80.1203C70.487 74.1391 65.6702 69.3047 59.7242 69.3047C59.6007 69.3047 59.4773 69.3047 59.3538 69.3047" fill="#B8B8B8"/>
<path d="M59.3711 88.6776C52.2607 88.6776 46.5087 82.8904 46.5087 75.7624C46.5087 68.6343 52.2783 62.8295 59.3711 62.8295C66.4639 62.8295 72.2334 68.6166 72.2334 75.7624C72.2334 82.9081 66.4639 88.6776 59.3711 88.6776Z" fill="white"/>
<path d="M59.3712 88.9775C52.102 88.9775 46.1913 83.0492 46.1913 75.7623C46.1913 68.4754 52.102 62.5471 59.3712 62.5471C66.6404 62.5471 72.5334 68.4754 72.5334 75.7623C72.5334 83.0492 66.6228 88.9775 59.3712 88.9775ZM59.3712 63.1294C52.4372 63.1294 46.8089 68.793 46.8089 75.7447C46.8089 82.6963 52.4548 88.3599 59.3712 88.3599C66.2876 88.3599 71.9336 82.6963 71.9336 75.7447C71.9336 68.793 66.2876 63.1294 59.3712 63.1294Z" fill="#BBBBBB"/>
<path d="M50.3023 72.2865C52.843 65.6171 62.5294 63.1293 57.6774 61.2767C52.8254 59.4241 46.8265 63.3234 44.3034 69.9928C41.7803 76.6621 43.6506 83.5785 48.5026 85.4311C53.3547 87.2836 47.7793 78.9558 50.3023 72.2865Z" fill="white"/>
<path d="M49.6318 85.9781C49.2966 85.9781 48.8908 85.8899 48.3968 85.6958C43.4036 83.7903 41.4275 76.6799 44.0211 69.8694C45.5032 65.9524 48.3086 62.7413 51.5021 61.3121C53.6546 60.3417 55.8248 60.2359 57.7833 60.9769C58.736 61.3474 59.23 61.7709 59.3006 62.2825C59.4417 63.2177 58.2597 64.1528 56.6188 65.4408C54.5721 67.064 51.7491 69.2695 50.5846 72.3748C49.4024 75.4624 50.0376 79.0088 50.4964 81.5848C50.8669 83.6491 51.1316 85.1312 50.4082 85.7311C50.2141 85.8899 49.9494 85.9781 49.6495 85.9781M55.1543 61.1004C54.0428 61.1004 52.9136 61.3651 51.7668 61.8767C48.7144 63.253 46.0326 66.323 44.6034 70.0987C42.1333 76.6093 43.9329 83.3492 48.6261 85.1489C49.3319 85.4135 49.8259 85.4664 50.0376 85.29C50.4964 84.9195 50.2317 83.4374 49.9318 81.7083C49.4554 79.0618 48.8202 75.4271 50.0553 72.1807C51.2903 68.9342 54.184 66.6582 56.2836 64.9997C57.6421 63.9234 58.8242 62.9883 58.736 62.406C58.7007 62.1237 58.2949 61.8238 57.5892 61.5591C56.8129 61.2592 56.0012 61.1181 55.1543 61.1181" fill="#BBBBBB"/>
<path d="M68.1754 96.9878C68.4224 97.1289 68.5459 97.3583 68.4753 97.4818C68.4047 97.623 68.7753 97.9758 69.3046 98.2934C69.8339 98.611 70.3455 98.7522 70.4161 98.611C70.4866 98.4699 70.7867 98.4875 71.0513 98.6463C71.3689 98.8404 71.6336 98.7698 71.8277 98.4346C71.9864 98.1699 72.004 97.8876 71.8629 97.7994C71.7217 97.7288 71.7394 97.4289 71.8982 97.1642C72.057 96.8819 72.0217 96.582 71.7923 96.4585C71.5806 96.335 71.2807 95.7174 71.1395 95.0999C70.9984 94.4824 70.7514 93.9001 70.5926 93.8119C70.2044 93.5825 69.975 92.6121 70.2043 92.2063C70.3102 92.0299 70.2749 91.5888 70.1161 91.2359C69.9574 90.883 69.8868 90.5125 69.9398 90.4067C69.9927 90.3008 71.0337 90.7772 72.2511 91.4829C73.5567 92.2416 74.5095 92.6474 74.5801 92.5063C74.6506 92.3651 74.9152 92.3828 75.1622 92.5063C75.4093 92.6474 75.8857 92.6298 76.2209 92.471C76.7502 92.2416 77.1384 92.3475 78.5146 93.1414C79.4497 93.6884 80.2261 93.9883 80.3143 93.8472C80.3849 93.7061 80.7377 93.759 81.073 93.9531C81.7611 94.3589 85.4663 93.5296 85.0605 93.0709C84.937 92.9297 85.0075 92.471 85.2369 92.0828C85.6074 91.4476 85.5545 91.3241 84.9193 90.9536C84.5135 90.7243 84.1253 90.636 84.0548 90.7772C83.9842 90.9183 83.5784 90.8301 83.1902 90.6007C82.7844 90.3714 82.3962 90.2832 82.3256 90.4243C82.255 90.5655 81.6552 90.3714 81.02 90.0009C80.1378 89.4892 79.8378 89.154 79.7849 88.6423C79.7143 88.0071 79.4321 87.7777 76.8384 86.2957L73.9625 84.6372L74.8976 83.0139C75.7445 81.5319 75.7974 81.3025 75.4975 80.2968C75.2857 79.6087 75.3034 78.9382 75.5328 78.5501C75.7445 78.1972 75.7975 77.8443 75.6563 77.7737C75.5152 77.7032 75.5328 77.4032 75.6916 77.1386C75.8504 76.8739 75.868 76.5916 75.7269 76.5034C75.5857 76.4328 75.6034 76.1329 75.7622 75.8682C75.921 75.6035 75.9386 75.3212 75.7975 75.233C75.6563 75.1625 75.7093 74.8096 75.921 74.4567C76.4856 73.4686 76.1503 72.8158 74.6329 71.9336C73.8919 71.5102 73.3449 71.0338 73.4155 70.9103C73.4861 70.7692 73.3449 70.5398 73.0626 70.381C72.798 70.2222 72.6393 69.9928 72.7098 69.8517C72.7804 69.7105 72.4098 69.3577 71.8805 69.0401C71.3512 68.7225 70.9631 68.3696 71.0513 68.2285C71.1219 68.0873 70.469 67.558 69.481 66.9934C68.4929 66.4288 67.8401 65.8995 67.9107 65.7583C67.9989 65.6172 67.2402 65.0526 66.111 64.3821C64.9641 63.7293 64.0996 63.3588 64.029 63.4999C63.9585 63.6411 63.4468 63.4999 62.9175 63.1823C62.3881 62.8824 61.8766 62.7236 61.806 62.8647C61.7354 63.0059 61.1179 62.7942 60.4474 62.406C59.7769 62.0178 59.1594 61.8061 59.0888 61.9473C59.0182 62.0884 58.7712 62.0884 58.5595 61.9649C58.0831 61.7003 57.148 61.9296 56.8833 62.3707C56.7775 62.5472 56.3893 62.7412 56.0011 62.7765C55.4012 62.8471 55.1542 63.1294 53.9897 65.1408C52.6841 67.3992 52.0313 67.9991 51.3079 67.5756C51.1668 67.4874 50.267 67.6286 49.3142 67.8932C47.7792 68.3167 47.5145 68.4755 46.9499 69.4635C46.597 70.081 46.4206 70.628 46.5618 70.7162C46.7029 70.7868 46.7028 71.0338 46.597 71.2279C46.3147 71.7219 46.9852 74.2097 47.4616 74.492C47.6733 74.6155 47.7792 74.8096 47.691 74.9507C47.6204 75.0919 47.8321 75.3565 48.1673 75.5506C48.9613 76.0094 49.1907 76.8386 48.7319 77.6502C48.5378 78.0031 48.4849 78.3383 48.6084 78.4265C48.7495 78.4971 48.7496 78.7265 48.6437 78.9382C48.2732 79.591 49.6847 84.2666 50.3728 84.6724C50.708 84.8665 50.9198 85.1312 50.8492 85.2723C50.761 85.4135 51.6431 86.0487 53.037 86.8603L55.366 88.2012L57.095 87.7425C58.0478 87.4778 58.8771 87.1602 58.9653 87.0191C59.0535 86.8779 59.5475 86.6485 60.0592 86.5074C60.8355 86.2957 61.2414 86.3839 62.353 87.0367C63.094 87.4602 63.7644 87.7072 63.8526 87.566C63.9232 87.4249 64.6466 87.6895 65.4582 88.1659L66.9226 89.0128L65.9876 90.6184C65.0348 92.2769 64.9642 93.1062 65.7405 93.5473C65.9523 93.6708 66.0581 93.8825 65.9876 94.006C65.917 94.1471 66.2522 94.4824 66.7639 94.7823C67.3991 95.1528 67.699 95.5234 67.7519 95.9997C67.7872 96.3879 68.0165 96.8114 68.2459 96.9525" fill="#010101"/>
<path d="M103.604 117.666C90.1064 117.666 79.1497 106.71 79.1497 93.2121C79.1497 79.7146 90.1064 68.7578 103.604 68.7578C117.101 68.7578 128.058 79.7146 128.058 93.2121C128.058 106.71 117.101 117.666 103.604 117.666Z" fill="white"/>
<path d="M103.604 117.966C89.9478 117.966 78.8499 106.868 78.8499 93.212C78.8499 79.5557 89.9478 68.4578 103.604 68.4578C117.26 68.4578 128.358 79.5557 128.358 93.212C128.358 106.868 117.26 117.966 103.604 117.966ZM103.604 69.0577C90.283 69.0577 79.4498 79.8909 79.4498 93.212C79.4498 106.533 90.283 117.366 103.604 117.366C116.925 117.366 127.758 106.533 127.758 93.212C127.758 79.8909 116.925 69.0577 103.604 69.0577Z" fill="#BBBBBB"/>
<path d="M90.5125 94.9235C88.0071 94.9235 85.9604 92.8945 85.9604 90.3714C85.9604 87.8484 87.9894 85.8193 90.5125 85.8193C93.0356 85.8193 95.0646 87.8484 95.0646 90.3714C95.0646 92.8945 93.0356 94.9235 90.5125 94.9235Z" fill="white"/>
<path d="M90.5126 95.2234C87.8307 95.2234 85.6606 93.0532 85.6606 90.3713C85.6606 87.6895 87.8307 85.5193 90.5126 85.5193C93.1944 85.5193 95.3646 87.6895 95.3646 90.3713C95.3646 93.0532 93.1944 95.2234 90.5126 95.2234ZM90.5126 86.1192C88.166 86.1192 86.2605 88.0247 86.2605 90.3713C86.2605 92.7179 88.166 94.6235 90.5126 94.6235C92.8592 94.6235 94.7648 92.7179 94.7648 90.3713C94.7648 88.0247 92.8592 86.1192 90.5126 86.1192Z" fill="#BBBBBB"/>
<path d="M89.3059 81.5378L89.26 82.1359L96.6486 82.7031L96.6945 82.105L89.3059 81.5378Z" fill="#BBBBBB"/>
<path d="M83.349 93.9707L83.2255 93.3885L90.4595 91.7653L90.583 92.3475L83.349 93.9707Z" fill="#BBBBBB"/>
<path d="M100.763 89.0128C99.6342 89.0128 98.7168 88.0953 98.7168 86.9661C98.7168 85.8369 99.6342 84.9194 100.763 84.9194C101.893 84.9194 102.81 85.8369 102.81 86.9661C102.81 88.0953 101.893 89.0128 100.763 89.0128ZM100.763 85.5193C99.9694 85.5193 99.3166 86.1721 99.3166 86.9661C99.3166 87.7601 99.9694 88.4129 100.763 88.4129C101.557 88.4129 102.21 87.7601 102.21 86.9661C102.21 86.1721 101.557 85.5193 100.763 85.5193Z" fill="#BBBBBB"/>
</svg>
