<svg width="18" height="9" viewBox="0 0 18 9" fill="none" xmlns="http://www.w3.org/2000/svg">
<path d="M9 7.46187L16.8498 0.186854C16.913 0.126957 16.9881 0.0796045 17.0707 0.047535C17.1533 0.0154655 17.2418 -0.000683617 17.331 2.21433e-05C17.4202 0.000727904 17.5084 0.018274 17.5904 0.0516461C17.6724 0.0850183 17.7467 0.133554 17.8089 0.194443C17.8711 0.255332 17.92 0.327366 17.9528 0.406377C17.9856 0.485388 18.0016 0.569807 17.9999 0.654748C17.9982 0.73969 17.9788 0.823466 17.9429 0.901232C17.907 0.978997 17.8552 1.04921 17.7906 1.1078L9.47043 8.81801C9.34449 8.93471 9.17571 9 9 9C8.82429 9 8.65551 8.93471 8.52957 8.81801L0.209368 1.10779C0.144773 1.0492 0.0930214 0.978996 0.0571041 0.901231C0.0211868 0.823466 0.00181958 0.739689 0.000122042 0.654747C-0.0015774 0.569806 0.0144291 0.485387 0.0472126 0.406376C0.0799942 0.327365 0.128904 0.255331 0.191111 0.194442C0.253315 0.133553 0.327583 0.0850175 0.409613 0.0516454C0.491644 0.0182733 0.579809 0.000727168 0.669006 2.14149e-05C0.758204 -0.000684338 0.846661 0.0154648 0.929262 0.0475343C1.01186 0.0796038 1.08697 0.126957 1.15023 0.186853L9 7.46187Z" fill="#606060"/>
</svg>
