<svg width="93" height="49" viewBox="0 0 93 49" fill="none" xmlns="http://www.w3.org/2000/svg">
<path d="M2.31882 43.4152C1.52022 43.1949 0.694236 43.6637 0.473933 44.4623C0.25363 45.2609 0.722431 46.0869 1.52103 46.3072L2.31882 43.4152ZM77.196 22.7031L78.1995 23.818L77.196 22.7031ZM91.6603 0.544922L76.8969 9.60251L92.1227 17.8593L91.6603 0.544922ZM4.42956 47.0153C5.23994 47.1873 6.0363 46.6698 6.20827 45.8594C6.38025 45.049 5.86272 44.2527 5.05234 44.0807L4.42956 47.0153ZM10.6299 44.9432C9.80566 44.8603 9.07025 45.4613 8.98735 46.2855C8.90444 47.1098 9.50544 47.8452 10.3297 47.9281L10.6299 44.9432ZM16.2755 48.2352C17.1039 48.2394 17.7789 47.5712 17.783 46.7428C17.7872 45.9144 17.119 45.2394 16.2906 45.2353L16.2755 48.2352ZM21.9685 45.0214C21.1427 45.0864 20.5259 45.8086 20.5909 46.6345C20.6559 47.4604 21.3781 48.0771 22.204 48.0121L21.9685 45.0214ZM28.0847 47.3243C28.9035 47.1981 29.4649 46.4321 29.3387 45.6133C29.2125 44.7946 28.4464 44.2331 27.6277 44.3594L28.0847 47.3243ZM33.2378 43.2974C32.4294 43.4783 31.9207 44.2803 32.1016 45.0888C32.2825 45.8972 33.0845 46.4059 33.893 46.225L33.2378 43.2974ZM39.6108 44.7561C40.4065 44.5255 40.8647 43.6936 40.6341 42.8979C40.4036 42.1022 39.5716 41.644 38.7759 41.8746L39.6108 44.7561ZM44.2235 40.1215C43.4425 40.3979 43.0335 41.255 43.3099 42.036C43.5863 42.8169 44.4435 43.226 45.2244 42.9496L44.2235 40.1215ZM50.7236 40.8279C51.488 40.5084 51.8485 39.6297 51.529 38.8654C51.2094 38.1011 50.3307 37.7405 49.5664 38.0601L50.7236 40.8279ZM54.7887 35.706C54.0431 36.0671 53.7313 36.9642 54.0924 37.7098C54.4534 38.4554 55.3506 38.7671 56.0962 38.4061L54.7887 35.706ZM61.3272 35.692C62.0516 35.2902 62.3131 34.3771 61.9113 33.6527C61.5094 32.9283 60.5964 32.6668 59.8719 33.0686L61.3272 35.692ZM64.7945 30.1511C64.0944 30.594 63.886 31.5206 64.3289 32.2207C64.7719 32.9207 65.6984 33.1292 66.3985 32.6862L64.7945 30.1511ZM71.2908 29.3778C71.9621 28.8924 72.1129 27.9547 71.6275 27.2833C71.1421 26.612 70.2044 26.4613 69.5331 26.9466L71.2908 29.3778ZM74.0421 23.4498C73.4056 23.9801 73.3197 24.926 73.85 25.5624C74.3804 26.1988 75.3262 26.2848 75.9626 25.7544L74.0421 23.4498ZM80.6517 21.3293C81.1996 20.7079 81.1399 19.7601 80.5185 19.2122C79.8971 18.6643 78.9492 18.724 78.4014 19.3454L80.6517 21.3293ZM82.2331 14.1963C81.7828 14.8917 81.9815 15.8204 82.6768 16.2707C83.3722 16.721 84.3009 16.5223 84.7512 15.827L82.2331 14.1963ZM88.2007 10.0341C88.6052 9.31117 88.3469 8.39719 87.624 7.99273C86.901 7.58826 85.987 7.84647 85.5826 8.56945L88.2007 10.0341ZM88.7557 2.75467C88.362 3.48357 88.6337 4.39361 89.3626 4.78732C90.0915 5.18102 91.0015 4.90929 91.3952 4.1804L88.7557 2.75467ZM1.52103 46.3072C2.47982 46.5717 3.44978 46.8074 4.42956 47.0153L5.05234 44.0807C4.12967 43.8849 3.21813 43.6633 2.31882 43.4152L1.52103 46.3072ZM10.3297 47.9281C12.287 48.125 14.272 48.2251 16.2755 48.2352L16.2906 45.2353C14.3769 45.2256 12.4872 45.13 10.6299 44.9432L10.3297 47.9281ZM22.204 48.0121C24.157 47.8584 26.1199 47.6272 28.0847 47.3243L27.6277 44.3594C25.7329 44.6514 23.8439 44.8737 21.9685 45.0214L22.204 48.0121ZM33.893 46.225C35.8061 45.7969 37.7145 45.3055 39.6108 44.7561L38.7759 41.8746C36.9371 42.4074 35.0887 42.8832 33.2378 43.2974L33.893 46.225ZM45.2244 42.9496C47.0783 42.2934 48.9138 41.5846 50.7236 40.8279L49.5664 38.0601C47.8073 38.7956 46.024 39.4843 44.2235 40.1215L45.2244 42.9496ZM56.0962 38.4061C57.8756 37.5444 59.6218 36.6381 61.3272 35.692L59.8719 33.0686C58.2153 33.9876 56.5184 34.8684 54.7887 35.706L56.0962 38.4061ZM66.3985 32.6862C68.0842 31.6197 69.7178 30.515 71.2908 29.3778L69.5331 26.9466C68.0117 28.0466 66.4294 29.1166 64.7945 30.1511L66.3985 32.6862ZM75.9626 25.7544C76.7282 25.1165 77.4742 24.4707 78.1995 23.818L76.1926 21.5881C75.4964 22.2147 74.7792 22.8355 74.0421 23.4498L75.9626 25.7544ZM78.1995 23.818C79.0578 23.0455 79.8717 22.214 80.6517 21.3293L78.4014 19.3454C77.6894 20.1529 76.9562 20.9008 76.1926 21.5881L78.1995 23.818ZM84.7512 15.827C85.919 14.0236 87.0539 12.0841 88.2007 10.0341L85.5826 8.56945C84.4517 10.5909 83.3519 12.4686 82.2331 14.1963L84.7512 15.827Z" fill="#25D366"/>
</svg>
