<svg width="24" height="24" viewBox="0 0 24 24" fill="none" xmlns="http://www.w3.org/2000/svg">
<path d="M3.58694 19.5508C3.58694 20.3464 3.90302 21.1095 4.46562 21.6721C5.02823 22.2347 5.7913 22.5508 6.58694 22.5508H10.8994C10.9492 22.5508 10.9969 22.531 11.032 22.4959C11.0672 22.4607 11.0869 22.413 11.0869 22.3633V13.7383C11.0869 13.6885 11.0672 13.6409 11.032 13.6057C10.9969 13.5705 10.9492 13.5508 10.8994 13.5508H3.96194C3.86249 13.5508 3.76711 13.5903 3.69678 13.6606C3.62645 13.7309 3.58694 13.8263 3.58694 13.9258V19.5508ZM11.0869 11.8633V6.80078H12.5869V11.8633C12.5869 11.913 12.6067 11.9607 12.6419 11.9959C12.677 12.031 12.7247 12.0508 12.7744 12.0508H19.3369C19.5925 12.0508 19.8461 12.0072 20.0869 11.9219C20.5252 11.7663 20.9047 11.4789 21.1732 11.0991C21.4418 10.7194 21.5863 10.2659 21.5869 9.80078V9.05078C21.5869 8.45404 21.3499 7.88174 20.9279 7.45978C20.506 7.03783 19.9337 6.80078 19.3369 6.80078H17.4366C17.4203 6.80052 17.4043 6.79599 17.3903 6.78766C17.3762 6.77932 17.3646 6.76747 17.3566 6.75326C17.3485 6.73905 17.3443 6.72298 17.3444 6.70665C17.3444 6.69032 17.3488 6.67429 17.3569 6.66015C17.7909 5.92744 17.9319 5.05775 17.7515 4.22548C17.5712 3.3932 17.0829 2.65986 16.3845 2.17251C15.6862 1.68516 14.8294 1.47982 13.986 1.59767C13.1426 1.71552 12.375 2.14785 11.8369 2.80796C11.2989 2.14785 10.5313 1.71552 9.68787 1.59767C8.84447 1.47982 7.98769 1.68516 7.28934 2.17251C6.59099 2.65986 6.10269 3.3932 5.92235 4.22548C5.74201 5.05775 5.88296 5.92744 6.31695 6.66015C6.32511 6.67429 6.32944 6.69032 6.32951 6.70665C6.32958 6.72298 6.32538 6.73905 6.31733 6.75326C6.30927 6.76747 6.29765 6.77932 6.28361 6.78766C6.26956 6.79599 6.25359 6.80052 6.23726 6.80078H4.33694C3.74021 6.80078 3.16791 7.03783 2.74595 7.45978C2.324 7.88174 2.08694 8.45404 2.08694 9.05078V9.80078C2.08761 10.2659 2.23212 10.7194 2.50066 11.0991C2.76921 11.4789 3.14865 11.7663 3.58694 11.9219C3.8278 12.0072 4.08143 12.0508 4.33694 12.0508H10.8994C10.9492 12.0508 10.9969 12.031 11.032 11.9959C11.0672 11.9607 11.0869 11.913 11.0869 11.8633ZM12.5869 4.92578C12.5869 4.55494 12.6969 4.19242 12.9029 3.88408C13.109 3.57574 13.4018 3.33542 13.7444 3.1935C14.087 3.05159 14.464 3.01446 14.8277 3.0868C15.1915 3.15915 15.5255 3.33773 15.7878 3.59995C16.05 3.86217 16.2286 4.19627 16.3009 4.55998C16.3733 4.9237 16.3361 5.3007 16.1942 5.64331C16.0523 5.98592 15.812 6.27875 15.5036 6.48478C15.1953 6.69081 14.8328 6.80078 14.4619 6.80078H12.5869V4.92578ZM9.07788 3.05546C9.33476 3.03705 9.59267 3.07175 9.83554 3.1574C10.0784 3.24305 10.301 3.37782 10.4895 3.5533C10.678 3.72878 10.8284 3.9412 10.9311 4.17734C11.0339 4.41347 11.087 4.66824 11.0869 4.92578V6.80078H9.21194C8.72711 6.79953 8.26161 6.61053 7.91313 6.27344C7.56466 5.93636 7.3603 5.47739 7.34296 4.99286C7.32561 4.50834 7.49662 4.03593 7.8201 3.67479C8.14358 3.31364 8.59438 3.09184 9.07788 3.05593V3.05546ZM12.7744 22.5508H17.0869C17.8826 22.5508 18.6457 22.2347 19.2083 21.6721C19.7709 21.1095 20.0869 20.3464 20.0869 19.5508V13.9258C20.0869 13.8263 20.0474 13.7309 19.9771 13.6606C19.9068 13.5903 19.8114 13.5508 19.7119 13.5508H12.7744C12.7247 13.5508 12.677 13.5705 12.6419 13.6057C12.6067 13.6409 12.5869 13.6885 12.5869 13.7383V22.3633C12.5869 22.413 12.6067 22.4607 12.6419 22.4959C12.677 22.531 12.7247 22.5508 12.7744 22.5508Z" fill="#D6D2D2"/>
</svg>
