<svg width="20" height="16" fill="none" xmlns="http://www.w3.org/2000/svg"><path d="M.617.329C.371.442.258.654.258 1c0 .364.129.584.405.691.146.056.621.059 9.337.059s9.191-.003 9.337-.059c.277-.107.402-.322.402-.691 0-.351-.11-.558-.356-.671C19.255.27 18.905.268 10 .268S.745.27.617.329m0 7C.371 7.442.258 7.654.258 8c0 .364.129.584.405.691.146.056.621.059 9.337.059s9.191-.003 9.337-.059c.277-.107.402-.322.402-.691 0-.351-.11-.558-.356-.671-.128-.059-.478-.061-9.383-.061S.745 7.27.617 7.329m0 7c-.246.113-.359.325-.359.671 0 .364.129.584.405.691.146.056.621.059 9.337.059s9.191-.003 9.337-.059c.277-.107.402-.322.402-.691 0-.351-.11-.558-.356-.671-.128-.059-.478-.061-9.383-.061s-9.255.002-9.383.061" fill-rule="evenodd" fill="#000"/></svg>