<svg width="30" height="38" viewBox="0 0 30 38" fill="none" xmlns="http://www.w3.org/2000/svg">
<path d="M15 0C18.9782 0 22.7936 1.71581 25.6066 4.76998C28.4196 7.82414 30 11.9665 30 16.2857C30 23.028 25.2667 30.0924 16 37.6381C15.7115 37.873 15.3606 38 15 38C14.6394 38 14.2885 37.873 14 37.6381C4.73333 30.0924 0 23.028 0 16.2857C0 11.9665 1.58035 7.82414 4.3934 4.76998C7.20644 1.71581 11.0218 0 15 0ZM15 10.8571C13.6739 10.8571 12.4021 11.4291 11.4645 12.4471C10.5268 13.4652 10 14.846 10 16.2857C10 17.7255 10.5268 19.1062 11.4645 20.1243C12.4021 21.1423 13.6739 21.7143 15 21.7143C16.3261 21.7143 17.5979 21.1423 18.5355 20.1243C19.4732 19.1062 20 17.7255 20 16.2857C20 14.846 19.4732 13.4652 18.5355 12.4471C17.5979 11.4291 16.3261 10.8571 15 10.8571Z" fill="#FF4E00"/>
</svg>
