<svg width="34" height="34" viewBox="0 0 34 34" fill="none" xmlns="http://www.w3.org/2000/svg">
<path d="M17 0C7.61116 0 0 7.61116 0 17C0 26.3888 7.61116 34 17 34C26.3888 34 34 26.3888 34 17C34 7.61116 26.3888 0 17 0ZM10.8906 6.75268C11.2409 6.73203 11.5575 6.94138 11.7975 7.31298L14.1217 11.7207C14.3664 12.243 14.2274 12.8022 13.8623 13.1754L12.7977 14.24C12.732 14.33 12.6888 14.4314 12.6878 14.5429C13.096 16.1232 14.3344 17.5809 15.427 18.5834C16.5196 19.5858 17.694 20.943 19.2184 21.2645C19.4068 21.3171 19.6376 21.3359 19.7725 21.2106L21.0093 19.9509C21.4362 19.6273 22.0538 19.4705 22.5096 19.7351H22.5304L26.7243 22.2108C27.3399 22.5967 27.4037 23.3426 26.963 23.7963L24.0744 26.6621C23.6478 27.0996 23.081 27.2467 22.5304 27.2473C20.0952 27.1744 17.7943 25.9791 15.9044 24.7509C12.8021 22.494 9.95653 19.6949 8.17006 16.3131C7.4849 14.895 6.68004 13.0857 6.75685 11.5029C6.76371 10.9074 6.92481 10.324 7.34414 9.94024L10.2328 7.05157C10.4578 6.8601 10.6804 6.76509 10.8906 6.75268Z" fill="#FF4E00"/>
</svg>
