<svg width="24" height="24" viewBox="0 0 24 24" fill="none" xmlns="http://www.w3.org/2000/svg">
<path d="M18.1545 21.507C16.8677 22.8207 12.0808 21.6121 7.3454 16.7775C2.60999 11.9956 1.37467 7.16105 2.66146 5.79477C3.79384 4.63869 5.13211 2.69437 7.13952 5.26928C9.19839 7.84419 8.16895 8.57988 7.03657 9.73596C6.21302 10.5767 7.91159 12.6262 9.66164 14.4128C11.4117 16.1995 13.4706 17.8811 14.2426 17.0928C15.375 15.9368 16.0956 14.8858 18.6177 16.9352C21.1913 18.9846 19.2354 20.4034 18.1545 21.507Z" fill="white"/>
<path d="M11.3087 6.21511C11.669 5.84726 12.2352 5.89981 12.2352 5.89981C13.5735 6.11001 14.9632 6.7406 16.0442 7.89668C17.1251 9.00021 17.7942 10.419 18.0001 11.7853C18.0001 11.7853 18.103 12.3108 17.6913 12.7312C17.3309 13.0991 16.6618 13.1516 16.25 12.7312C15.9927 12.4685 15.9412 12.1532 15.9412 12.1532C15.8383 11.47 15.6324 10.4716 14.5515 9.42061C13.522 8.36962 12.4926 8.15943 11.8749 8.00178C11.8749 8.00178 11.5661 7.94923 11.3087 7.68648C10.9484 7.26609 10.9484 6.58295 11.3087 6.21511Z" fill="white"/>
<path d="M21.706 12.994C21.706 12.994 21.6546 13.4144 21.3972 13.6771C21.0369 14.045 20.3678 14.0975 19.956 13.6771C19.5957 13.3093 19.6986 12.7313 19.6986 12.7313C19.956 10.9446 19.1325 8.68497 17.228 6.74065C15.3235 4.79633 13.1102 3.95554 11.3602 4.21829C11.3602 4.21829 10.794 4.32339 10.4337 3.95554C10.0219 3.53515 10.0219 2.85201 10.4337 2.48417C10.6911 2.22142 11.1028 2.16887 11.1028 2.16887C12.647 1.95867 15.6838 2.22142 18.7207 5.26927C21.6546 8.31713 21.9119 11.4175 21.706 12.994Z" fill="white"/>
</svg>
