<svg width="71" height="71" viewBox="0 0 71 71" fill="none" xmlns="http://www.w3.org/2000/svg">
<path d="M70.8165 40.6905L67.2227 35.1917C65.6357 32.7618 62.9395 31.3109 60.0086 31.3109H50.7142V25.9624C50.7142 22.6968 48.0586 20.0412 44.793 20.0412H27.3939C26.4176 14.9423 21.9293 11.0737 16.5498 11.0737C10.4584 11.0737 5.50328 16.0295 5.50328 22.1203C5.50328 25.9501 7.46432 29.3286 10.4333 31.3109H1.12722C0.504285 31.3109 0 31.8152 0 32.4381C0 33.0611 0.504285 33.5654 1.12722 33.5654H12.3969V35.8192H7.88864C7.26634 35.8192 6.76206 36.3234 6.76206 36.9464C6.76206 37.5693 7.26634 38.073 7.88864 38.073H12.3969V40.3268H1.12722C0.504285 40.3268 0 40.8311 0 41.454C0 42.0769 0.504285 42.5812 1.12722 42.5812H12.3969V47.5725C10.4101 48.4488 9.01586 50.4312 9.01586 52.7385V53.8509C9.01586 54.4738 9.52079 54.9781 10.1431 54.9781H20.1385C20.7795 57.7356 23.2519 59.7991 26.2022 59.7991C29.1531 59.7991 31.6248 57.7356 32.2658 54.9781H53.9482C54.5898 57.7356 57.0622 59.7991 60.0118 59.7991C62.9614 59.7991 65.4345 57.7356 66.0755 54.9781H69.8731C70.496 54.9781 70.9997 54.4738 70.9997 53.8509V41.307C70.9997 41.0877 70.9358 40.873 70.8165 40.6905ZM7.75709 22.1203C7.75709 17.2722 11.7017 13.3275 16.5498 13.3275C21.3986 13.3275 25.3426 17.2722 25.3426 22.1203C25.3426 26.9684 21.3986 30.913 16.5498 30.913C11.7017 30.913 7.75709 26.9684 7.75709 22.1203ZM14.6507 42.5812H16.9045C17.5274 42.5812 18.0317 42.0769 18.0317 41.454C18.0317 40.8311 17.5274 40.3268 16.9045 40.3268H14.6507V38.073H22.54C23.1623 38.073 23.6666 37.5693 23.6666 36.9464C23.6666 36.3234 23.1623 35.8192 22.54 35.8192H14.6507V33.5654H29.3014C29.9237 33.5654 30.4286 33.0611 30.4286 32.4381C30.4286 31.8152 29.9237 31.3109 29.3014 31.3109H22.6664C25.5896 29.3589 27.5287 26.052 27.588 22.295H44.7936C46.8153 22.295 48.4604 23.9407 48.4604 25.9624V47.0888H14.6649C14.6604 47.0888 14.6559 47.0901 14.6507 47.0901V42.5812ZM48.4604 52.7237H32.3684C32.191 51.4275 31.6158 50.259 30.7665 49.3426H48.4604V52.7237ZM14.6649 49.3426H21.6378C20.7892 50.259 20.2133 51.4275 20.0366 52.7237H11.2697C11.2774 50.8587 12.798 49.3426 14.6649 49.3426ZM26.2022 57.5453C24.0103 57.5453 22.2259 55.7616 22.2259 53.5691C22.2259 51.3772 24.0103 49.5928 26.2022 49.5928C28.3947 49.5928 30.1784 51.3772 30.1784 53.5691C30.1784 55.7616 28.3947 57.5453 26.2022 57.5453ZM60.0118 57.5453C57.8199 57.5453 56.0356 55.7616 56.0356 53.5691C56.0356 51.3772 57.8199 49.5928 60.0118 49.5928C62.2044 49.5928 63.9881 51.3772 63.9881 53.5691C63.9881 55.7616 62.2044 57.5453 60.0118 57.5453ZM68.7459 52.7237H66.178C65.7634 49.6883 63.1594 47.339 60.0118 47.339C56.8642 47.339 54.2609 49.6883 53.8456 52.7237H50.7142V33.5654H60.0086C62.1747 33.5654 64.1667 34.6339 65.3365 36.424L68.7459 41.6423V52.7237Z" fill="#FF4E00"/>
<path d="M61.8555 53.5693C61.8555 54.5875 61.0301 55.4129 60.0118 55.4129C58.9936 55.4129 58.1682 54.5875 58.1682 53.5693C58.1682 52.551 58.9936 51.7256 60.0118 51.7256C61.0301 51.7256 61.8555 52.551 61.8555 53.5693Z" fill="#FF4E00"/>
<path d="M28.0458 53.5693C28.0458 54.5875 27.2204 55.4129 26.2022 55.4129C25.1846 55.4129 24.3591 54.5875 24.3591 53.5693C24.3591 52.551 25.1846 51.7256 26.2022 51.7256C27.2204 51.7256 28.0458 52.551 28.0458 53.5693Z" fill="#FF4E00"/>
<path d="M18.0317 22.1202V17.1896C18.0317 16.5666 17.5274 16.063 16.9045 16.063C16.2822 16.063 15.7779 16.5666 15.7779 17.1896V21.7526L13.4777 24.908C13.1108 25.411 13.221 26.1152 13.724 26.4814C13.9252 26.6285 14.1574 26.6988 14.3876 26.6988C14.7352 26.6988 15.0782 26.5382 15.2988 26.2351L17.8157 22.7838C17.9556 22.5916 18.0317 22.3595 18.0317 22.1202Z" fill="#FF4E00"/>
<path d="M59.632 34.6919H57.4762C56.8533 34.6919 56.349 35.1962 56.349 35.8191V43.7078C56.349 44.3307 56.8533 44.835 57.4762 44.835H65.0611C65.7679 44.835 66.4005 44.4693 66.7552 43.8587C67.1099 43.248 67.1105 42.5167 66.761 41.9073L64.1293 37.301C63.2104 35.6927 61.4866 34.6919 59.632 34.6919ZM58.6034 42.5812V36.9463H59.632C60.6799 36.9463 61.653 37.5106 62.1721 38.4199L64.5498 42.5812H58.6034Z" fill="#FF4E00"/>
</svg>
