<svg width="57" height="56" viewBox="0 0 57 56" fill="none" xmlns="http://www.w3.org/2000/svg">
<g clip-path="url(#clip0_22_396)">
<path d="M47.173 6.87863C47.173 5.279 45.8529 3.98204 44.2247 3.98204H41.2764C41.2764 2.38241 39.9563 1.08545 38.3281 1.08545C36.6999 1.08545 35.3798 2.38241 35.3798 3.98204H31.4487C31.4487 2.38241 30.1286 1.08545 28.5004 1.08545C26.8722 1.08545 25.5521 2.38241 25.5521 3.98204H21.621C21.621 2.38241 20.3008 1.08545 18.6727 1.08545C17.0445 1.08545 15.7243 2.38241 15.7243 3.98204H11.7933C11.7933 2.38241 10.4731 1.08545 8.84494 1.08545C7.21675 1.08545 5.89663 2.38241 5.89663 3.98204H2.94831C1.32012 3.98204 0 5.279 0 6.87863V47.4309C0 47.9641 0.44004 48.3964 0.982771 48.3964H3.93109V51.293C3.93109 51.8262 4.37113 52.2585 4.91386 52.2585H30.7932C30.8061 52.2585 30.8157 52.2519 30.8277 52.2519C36.0329 55.7788 42.8197 56.114 48.3588 53.117C53.8979 50.1205 57.2378 44.3061 56.9868 38.099C56.7359 31.8914 52.9367 26.3561 47.173 23.8004V6.87863ZM37.3453 3.98204C37.3453 3.44883 37.7854 3.01651 38.3281 3.01651C38.8708 3.01651 39.3109 3.44883 39.3109 3.98204V6.87863H37.3453V3.98204ZM27.5176 3.98204C27.5176 3.44883 27.9576 3.01651 28.5004 3.01651C29.0431 3.01651 29.4831 3.44883 29.4831 3.98204V6.87863H27.5176V3.98204ZM17.6899 3.98204C17.6899 3.44883 18.1299 3.01651 18.6727 3.01651C19.2154 3.01651 19.6554 3.44883 19.6554 3.98204V6.87863H17.6899V3.98204ZM7.86217 3.98204C7.86217 3.44883 8.30221 3.01651 8.84494 3.01651C9.38767 3.01651 9.82771 3.44883 9.82771 3.98204V6.87863H7.86217V3.98204ZM1.96554 6.87863C1.96554 6.34542 2.40558 5.9131 2.94831 5.9131H5.89663V7.84416C5.89663 8.37737 6.33667 8.80969 6.8794 8.80969H10.8105C11.3532 8.80969 11.7933 8.37737 11.7933 7.84416V5.9131H15.7243V7.84416C15.7243 8.37737 16.1644 8.80969 16.7071 8.80969H20.6382C21.1809 8.80969 21.621 8.37737 21.621 7.84416V5.9131H25.5521V7.84416C25.5521 8.37737 25.9921 8.80969 26.5348 8.80969H30.4659C31.0086 8.80969 31.4487 8.37737 31.4487 7.84416V5.9131H35.3798V7.84416C35.3798 8.37737 35.8198 8.80969 36.3625 8.80969H40.2936C40.8364 8.80969 41.2764 8.37737 41.2764 7.84416V5.9131H44.2247C44.7674 5.9131 45.2075 6.34542 45.2075 6.87863V11.7063H1.96554V6.87863ZM5.89663 48.3964H26.8132C27.3146 49.081 27.8693 49.7264 28.4721 50.3275H5.89663V48.3964ZM55.0352 38.7411C55.0352 46.7397 48.4351 53.2241 40.2936 53.2241C32.1522 53.2241 25.5521 46.7397 25.5521 38.7411C25.5521 30.7425 32.1522 24.2582 40.2936 24.2582C48.4312 24.2671 55.0261 30.7463 55.0352 38.7411ZM40.2936 22.3271C34.4234 22.3233 28.9826 25.3482 25.9638 30.2941C22.9449 35.2397 22.7914 41.3803 25.5597 46.4653H1.96554V13.6373H45.2075V23.0541C43.6158 22.5718 41.9592 22.3266 40.2936 22.3271Z" fill="#FF4E00"/>
<path d="M8.84492 17.4995C7.21673 17.4995 5.89661 18.7965 5.89661 20.3961C5.89661 21.9957 7.21673 23.2927 8.84492 23.2927C10.4731 23.2927 11.7932 21.9957 11.7932 20.3961C11.7932 18.7965 10.4731 17.4995 8.84492 17.4995ZM8.84492 21.3616C8.30219 21.3616 7.86215 20.9293 7.86215 20.3961C7.86215 19.8629 8.30219 19.4306 8.84492 19.4306C9.38765 19.4306 9.82769 19.8629 9.82769 20.3961C9.82769 20.9293 9.38765 21.3616 8.84492 21.3616Z" fill="#FF4E00"/>
<path d="M18.6727 17.4995C17.0445 17.4995 15.7244 18.7965 15.7244 20.3961C15.7244 21.9957 17.0445 23.2927 18.6727 23.2927C20.3009 23.2927 21.621 21.9957 21.621 20.3961C21.621 18.7965 20.3009 17.4995 18.6727 17.4995ZM18.6727 21.3616C18.1299 21.3616 17.6899 20.9293 17.6899 20.3961C17.6899 19.8629 18.1299 19.4306 18.6727 19.4306C19.2154 19.4306 19.6555 19.8629 19.6555 20.3961C19.6555 20.9293 19.2154 21.3616 18.6727 21.3616Z" fill="#FF4E00"/>
<path d="M28.5004 17.4995C26.8722 17.4995 25.5521 18.7965 25.5521 20.3961C25.5521 21.9957 26.8722 23.2927 28.5004 23.2927C30.1286 23.2927 31.4487 21.9957 31.4487 20.3961C31.4487 18.7965 30.1286 17.4995 28.5004 17.4995ZM28.5004 21.3616C27.9576 21.3616 27.5176 20.9293 27.5176 20.3961C27.5176 19.8629 27.9576 19.4306 28.5004 19.4306C29.0431 19.4306 29.4831 19.8629 29.4831 20.3961C29.4831 20.9293 29.0431 21.3616 28.5004 21.3616Z" fill="#FF4E00"/>
<path d="M8.84492 25.2236C7.21673 25.2236 5.89661 26.5206 5.89661 28.1202C5.89661 29.7199 7.21673 31.0168 8.84492 31.0168C10.4731 31.0168 11.7932 29.7199 11.7932 28.1202C11.7932 26.5206 10.4731 25.2236 8.84492 25.2236ZM8.84492 29.0858C8.30219 29.0858 7.86215 28.6534 7.86215 28.1202C7.86215 27.587 8.30219 27.1547 8.84492 27.1547C9.38765 27.1547 9.82769 27.587 9.82769 28.1202C9.82769 28.6534 9.38765 29.0858 8.84492 29.0858Z" fill="#FF4E00"/>
<path d="M18.6727 25.2236C17.0445 25.2236 15.7244 26.5206 15.7244 28.1202C15.7244 29.7199 17.0445 31.0168 18.6727 31.0168C20.3009 31.0168 21.621 29.7199 21.621 28.1202C21.621 26.5206 20.3009 25.2236 18.6727 25.2236ZM18.6727 29.0858C18.1299 29.0858 17.6899 28.6534 17.6899 28.1202C17.6899 27.587 18.1299 27.1547 18.6727 27.1547C19.2154 27.1547 19.6555 27.587 19.6555 28.1202C19.6555 28.6534 19.2154 29.0858 18.6727 29.0858Z" fill="#FF4E00"/>
<path d="M8.84492 32.9478C7.21673 32.9478 5.89661 34.2447 5.89661 35.8443C5.89661 37.444 7.21673 38.7409 8.84492 38.7409C10.4731 38.7409 11.7932 37.444 11.7932 35.8443C11.7932 34.2447 10.4731 32.9478 8.84492 32.9478ZM8.84492 36.8099C8.30219 36.8099 7.86215 36.3776 7.86215 35.8443C7.86215 35.3111 8.30219 34.8788 8.84492 34.8788C9.38765 34.8788 9.82769 35.3111 9.82769 35.8443C9.82769 36.3776 9.38765 36.8099 8.84492 36.8099Z" fill="#FF4E00"/>
<path d="M18.6727 32.9478C17.0445 32.9478 15.7244 34.2447 15.7244 35.8443C15.7244 37.444 17.0445 38.7409 18.6727 38.7409C20.3009 38.7409 21.621 37.444 21.621 35.8443C21.621 34.2447 20.3009 32.9478 18.6727 32.9478ZM18.6727 36.8099C18.1299 36.8099 17.6899 36.3776 17.6899 35.8443C17.6899 35.3111 18.1299 34.8788 18.6727 34.8788C19.2154 34.8788 19.6555 35.3111 19.6555 35.8443C19.6555 36.3776 19.2154 36.8099 18.6727 36.8099Z" fill="#FF4E00"/>
<path d="M27.5176 38.7409C27.5176 45.6731 33.2376 51.2927 40.2936 51.2927C47.3496 51.2927 53.0696 45.6731 53.0696 38.7409C53.0696 31.8087 47.3496 26.189 40.2936 26.189C33.241 26.197 27.5257 31.812 27.5176 38.7409ZM51.1041 38.7409H49.1385C48.5958 38.7409 48.1558 39.1732 48.1558 39.7064C48.1558 40.2396 48.5958 40.6719 49.1385 40.6719H50.9165C50.0301 45.3454 46.0943 48.8733 41.2764 49.3126V47.4306C41.2764 46.8974 40.8363 46.4651 40.2936 46.4651C39.7509 46.4651 39.3108 46.8974 39.3108 47.4306V49.3126C34.493 48.8733 30.5571 45.3454 29.6707 40.6719H31.4487C31.9914 40.6719 32.4314 40.2396 32.4314 39.7064C32.4314 39.1732 31.9914 38.7409 31.4487 38.7409H29.4831C29.4903 33.2532 33.7487 28.6726 39.3108 28.1695V30.0511C39.3108 30.5843 39.7509 31.0166 40.2936 31.0166C40.8363 31.0166 41.2764 30.5843 41.2764 30.0511V28.1695C46.8385 28.6726 51.0969 33.2532 51.1041 38.7409Z" fill="#FF4E00"/>
<path d="M40.5048 38.2777L39.1458 36.2745C38.8444 35.8309 38.234 35.7112 37.7825 36.0067C37.3309 36.3028 37.209 36.9025 37.5104 37.3461L39.4759 40.2427C39.6309 40.47 39.8766 40.6222 40.1521 40.6618C40.1991 40.6689 40.2461 40.6727 40.2936 40.6722C40.5235 40.6727 40.7461 40.5935 40.9227 40.4492L46.8194 35.6216C47.2369 35.2802 47.2935 34.6711 46.9461 34.2614C46.5986 33.8513 45.9786 33.7952 45.5612 34.1365L40.5048 38.2777Z" fill="#FF4E00"/>
</g>
<defs>
<clipPath id="clip0_22_396">
<rect width="57" height="56" fill="white"/>
</clipPath>
</defs>
</svg>
