<svg width="57" height="58" viewBox="0 0 57 58" fill="none" xmlns="http://www.w3.org/2000/svg">
<g clip-path="url(#clip0_22_368)">
<path d="M19.2097 44.3952C19.1952 44.3227 19.174 44.2514 19.1462 44.1823C19.1184 44.1143 19.0839 44.0486 19.0438 43.9874C19.0037 43.9251 18.957 43.8673 18.9057 43.8152C18.8545 43.7631 18.7978 43.7155 18.7365 43.6748C18.6764 43.634 18.6118 43.5989 18.5439 43.5705C18.4771 43.5422 18.407 43.5196 18.3357 43.506C18.1921 43.4765 18.0441 43.4765 17.9016 43.506C17.8303 43.5196 17.7602 43.5422 17.6923 43.5705C17.6255 43.5989 17.5609 43.634 17.5008 43.6748C17.4396 43.7155 17.3828 43.7631 17.3316 43.8152C17.2804 43.8673 17.2336 43.9251 17.1935 43.9874C17.1523 44.0486 17.1189 44.1143 17.0911 44.1823C17.0633 44.2514 17.041 44.3227 17.0276 44.3952C17.0132 44.4677 17.0054 44.5425 17.0054 44.6161C17.0054 44.6898 17.0132 44.7645 17.0276 44.837C17.041 44.9095 17.0633 44.9809 17.0911 45.0489C17.1189 45.118 17.1523 45.1837 17.1935 45.2448C17.2336 45.3071 17.2804 45.3649 17.3316 45.417C17.3828 45.4691 17.4396 45.5167 17.5008 45.5575C17.5609 45.5984 17.6255 45.6335 17.6923 45.6618C17.7602 45.6902 17.8303 45.7128 17.9016 45.7264C17.9728 45.7411 18.0463 45.7491 18.1187 45.7491C18.191 45.7491 18.2645 45.7411 18.3357 45.7264C18.407 45.7128 18.4771 45.6902 18.5439 45.6618C18.6118 45.6335 18.6764 45.5983 18.7365 45.5575C18.7978 45.5167 18.8545 45.4691 18.9057 45.417C18.957 45.3649 19.0037 45.3071 19.0438 45.2448C19.0839 45.1837 19.1184 45.118 19.1462 45.0489C19.174 44.9809 19.1952 44.9095 19.2097 44.837C19.2241 44.7645 19.2319 44.6898 19.2319 44.6161C19.2319 44.5425 19.2241 44.4677 19.2097 44.3952Z" fill="#FF4E00"/>
<path d="M51.2102 44.7441C51.2058 44.7328 51.2014 44.7216 51.1967 44.7105C50.172 42.2707 47.7689 41.369 44.9249 42.3574L37.1689 44.5399C36.7205 43.158 35.602 41.9822 34.0204 41.385C34.0106 41.3813 34.0008 41.3777 33.9909 41.3743L25.4653 38.4299C24.7557 37.4966 22.5329 35.1084 18.3711 35.1084C15.4627 35.1084 12.8898 37.1386 11.4178 39.3516H1.11328C0.498416 39.3516 0 39.8587 0 40.4844V54.7665C0 55.3922 0.498416 55.8994 1.11328 55.8994H7.73252C8.34738 55.8994 8.8458 55.3922 8.8458 54.7665V53.7885H11.95C12.5648 53.7885 13.0632 53.2813 13.0632 52.6557V52.3296C14.8728 52.4903 15.4679 52.8395 17.1298 53.8146C18.4079 54.5646 20.3395 55.6979 23.8181 57.2894C23.8342 57.2968 23.8506 57.3038 23.867 57.3104C24.5346 57.5776 25.8397 57.9974 27.4487 57.9974C28.5687 57.9974 29.8362 57.7939 31.1371 57.1938L48.2807 50.948C48.3112 50.9368 48.3412 50.9244 48.3706 50.9106C50.009 50.1435 52.4506 47.9818 51.2102 44.7441ZM6.61924 53.6336H2.22656V41.6171H6.61924V53.6336ZM10.8367 51.5227H8.8458V41.6171H10.8367V51.5227ZM47.481 48.8326L30.3452 55.0757C30.3301 55.0811 30.3097 55.0893 30.2949 55.0954C30.2799 55.1016 30.2649 55.1082 30.2501 55.1151C27.8635 56.2312 25.595 55.563 24.7059 55.2113C21.3458 53.6728 19.5524 52.6205 18.2421 51.8517C16.4203 50.7828 15.5425 50.2676 13.0632 50.0593V40.9354C14.1185 39.1754 16.165 37.3739 18.3713 37.3739C22.1549 37.3739 23.7581 39.878 23.8211 39.979C23.957 40.204 24.166 40.3736 24.4117 40.4584L33.2595 43.5141C34.6726 44.0538 35.4194 45.2851 35.0762 46.5131C34.9177 47.0802 34.5517 47.5505 34.0456 47.8375C33.5438 48.1219 32.9638 48.1923 32.411 48.0366L22.4367 44.8203C21.8503 44.6313 21.2248 44.9616 21.0391 45.558C20.8533 46.1545 21.1779 46.7911 21.7641 46.9802L31.7557 50.202C31.7663 50.2054 31.7768 50.2087 31.7875 50.2117C32.1864 50.3272 32.5925 50.3843 32.9962 50.3843C33.7352 50.3843 34.4661 50.1927 35.1294 49.8166C36.155 49.2351 36.8967 48.282 37.2178 47.1327C37.2434 47.041 37.2661 46.9492 37.2858 46.8575L45.6446 44.5012C46.8519 44.0816 48.4366 43.9304 49.1422 45.584C49.8726 47.5253 47.9744 48.5932 47.481 48.8326Z" fill="#FF4E00"/>
<path d="M39.9735 14.9016C39.959 14.8291 39.9379 14.7577 39.9089 14.6886C39.8811 14.6206 39.8477 14.5549 39.8065 14.4938C39.7664 14.4315 39.7196 14.3737 39.6684 14.3216C39.6172 14.2695 39.5604 14.2219 39.4992 14.1811C39.4391 14.1403 39.3745 14.1052 39.3077 14.0769C39.2398 14.0486 39.1697 14.0259 39.0995 14.0123C38.9559 13.9829 38.8079 13.9829 38.6643 14.0123C38.593 14.0259 38.5229 14.0486 38.4561 14.0769C38.3882 14.1052 38.3236 14.1403 38.2635 14.1811C38.2022 14.2219 38.1455 14.2695 38.0943 14.3216C38.043 14.3737 37.9963 14.4315 37.9562 14.4938C37.9161 14.5549 37.8816 14.6206 37.8538 14.6886C37.826 14.7577 37.8037 14.8291 37.7903 14.9016C37.7759 14.9741 37.7681 15.0488 37.7681 15.1225C37.7681 15.1961 37.7759 15.2709 37.7903 15.3434C37.8037 15.4159 37.826 15.4872 37.8538 15.5552C37.8816 15.6243 37.9161 15.69 37.9562 15.7512C37.9963 15.8135 38.043 15.8713 38.0943 15.9234C38.1455 15.9755 38.2022 16.0231 38.2635 16.0638C38.3236 16.1046 38.3882 16.1397 38.4561 16.1681C38.5229 16.1964 38.593 16.2179 38.6643 16.2326C38.7355 16.2474 38.809 16.2553 38.8813 16.2553C38.9537 16.2553 39.0272 16.2474 39.0995 16.2326C39.1697 16.2179 39.2398 16.1964 39.3077 16.1681C39.3745 16.1397 39.4391 16.1046 39.4992 16.0638C39.5604 16.0231 39.6172 15.9755 39.6684 15.9234C39.7196 15.8713 39.7664 15.8135 39.8065 15.7512C39.8477 15.69 39.8811 15.6243 39.9089 15.5552C39.9379 15.4872 39.959 15.4159 39.9735 15.3434C39.9879 15.2709 39.9946 15.1961 39.9946 15.1225C39.9946 15.0488 39.9879 14.9741 39.9735 14.9016Z" fill="#FF4E00"/>
<path d="M55.8867 3.83902H49.2675C48.6526 3.83902 48.1542 4.34618 48.1542 4.97183V5.94991H45.05C44.4352 5.94991 43.9368 6.45707 43.9368 7.08272V7.40874C42.1272 7.248 41.5321 6.89886 39.8703 5.92374C38.5922 5.17382 36.6606 4.04044 33.1819 2.44895C33.1658 2.44147 33.1495 2.43456 33.1329 2.42799C32.0006 1.97464 29.0329 1.08266 25.8633 2.54433L21.3835 4.17649L17.6073 0.334214C17.1726 -0.108149 16.4677 -0.108149 16.0329 0.334214L3.63565 12.9489C3.23465 13.357 3.15772 14.0647 3.63565 14.551L24.8199 36.107C25.1589 36.452 25.9527 36.5563 26.3945 36.107L37.7126 24.5903C38.0069 24.6162 38.3122 24.6301 38.6287 24.6301C41.5373 24.6301 44.1101 22.5999 45.582 20.387H55.8867C56.5016 20.387 57 19.8799 57 19.2542V4.97183C57 4.34618 56.5016 3.83902 55.8867 3.83902ZM16.82 2.73725L19.3574 5.31916C18.6032 5.7938 17.7311 6.04778 16.82 6.04778C15.9088 6.04778 15.0369 5.79392 14.2826 5.31916L16.82 2.73725ZM8.53476 16.3319L5.99736 13.7499L8.53476 11.168C9.00122 11.9355 9.25082 12.8228 9.25082 13.7499C9.25082 14.677 9.00133 15.5643 8.53476 16.3319ZM25.6073 33.7038L23.0703 31.1224C24.6192 30.1497 26.5951 30.1497 28.1441 31.1224L25.6073 33.7038ZM29.7481 29.4904C27.288 27.6745 23.9265 27.6745 21.4664 29.4904L10.1387 17.9638C11.008 16.7472 11.4774 15.2858 11.4774 13.7499C11.4774 12.2139 11.0081 10.7526 10.1387 9.53594L12.6788 6.95131C13.8745 7.83593 15.3106 8.31352 16.8201 8.31352C18.3296 8.31352 19.7658 7.83593 20.9614 6.95131L23.3693 9.40147C22.8498 9.47952 22.3431 9.65375 21.8706 9.92166C21.0726 10.3741 20.4465 11.0516 20.0567 11.8713C18.8009 12.108 17.6383 12.7266 16.7263 13.6545C14.252 16.1723 14.252 20.2689 16.7264 22.7867C17.9635 24.0455 19.5885 24.675 21.2137 24.675C22.8387 24.675 24.4639 24.0456 25.7011 22.7867C26.506 21.9676 27.0699 20.961 27.3523 19.864L31.1112 21.1621C30.688 23.1568 31.1215 25.2552 32.2905 26.9034L29.7481 29.4904ZM22.9796 18.3534C22.9894 18.357 22.9992 18.3607 23.0091 18.3641L25.2352 19.1329C25.0671 19.9049 24.6867 20.6147 24.1267 21.1846C22.5205 22.8188 19.9069 22.8191 18.3009 21.1846C16.6947 19.5503 16.6947 16.8911 18.3009 15.2566C18.6883 14.8622 19.1455 14.554 19.6437 14.345C19.8493 16.0852 21.0807 17.6363 22.9796 18.3534ZM33.8946 25.271C33.4649 24.5585 33.2218 23.7453 33.1834 22.9152C33.7166 23.3075 34.3683 23.6919 35.1467 23.997L33.8946 25.271ZM43.9367 18.8026C42.8815 20.5627 40.835 22.3642 38.6287 22.3642C38.2159 22.3642 37.8291 22.3343 37.4674 22.2811C37.4659 22.2809 37.4645 22.2806 37.463 22.2804C35.0588 21.9251 33.7655 20.5346 33.3392 19.9841C33.3165 19.9501 33.2198 19.8213 33.2054 19.7999C33.0757 19.564 32.8631 19.3744 32.5919 19.2807L23.7404 16.2238C22.3279 15.6844 21.5812 14.4536 21.9234 13.2261C21.9236 13.2253 21.9239 13.2245 21.9241 13.2237C21.9244 13.2228 21.9246 13.2218 21.9249 13.2209C22.0839 12.6556 22.4493 12.1867 22.9543 11.9005C23.456 11.616 24.0359 11.5454 24.5889 11.7014L34.5632 14.9176C35.1494 15.1069 35.7751 14.7763 35.9608 14.1799C36.1465 13.5835 35.8219 12.9468 35.2358 12.7578L27.3031 10.1999L27.2339 10.1294C27.2332 10.1287 27.2325 10.1279 27.2318 10.1273L23.1249 5.94832L26.6549 4.66212C26.6668 4.65771 26.6815 4.65216 26.6933 4.64728C26.6963 4.64604 26.7021 4.64377 26.705 4.64253C26.7201 4.6363 26.735 4.62973 26.7498 4.62282C29.1362 3.50677 31.4047 4.17479 32.2938 4.52664C35.6541 6.06511 37.4476 7.11738 38.7579 7.88622C40.5797 8.95526 41.4575 9.47035 43.9367 9.67867V18.8026ZM48.1542 18.1212H46.1633V8.21553H48.1542V18.1212ZM54.7734 18.1212H50.3808V6.10465H54.7734V18.1212Z" fill="#FF4E00"/>
</g>
<defs>
<clipPath id="clip0_22_368">
<rect width="57" height="58" fill="white"/>
</clipPath>
</defs>
</svg>
